SplineFontDB: 3.0
FontName: Gidolinya-Regular-Monospace
FullName: Gidolinya Regular Monospace
FamilyName: Gidolinya
Weight: Regular
Copyright: Copyright (c) 2015, Andreas Larsen (<andreaslarsen.dk|mail@andreaslarsen.dk>) Edit by Megabits
Version: 1.0.3
ItalicAngle: 0
UnderlinePosition: -100
UnderlineWidth: 50
Ascent: 800
Descent: 200
InvalidEm: 0
sfntRevision: 0x000100c5
LayerCount: 2
Layer: 0 0 "Back" 1
Layer: 1 0 "Fore" 0
XUID: [1021 67 -769999032 14900368]
StyleMap: 0x0040
FSType: 0
OS2Version: 3
OS2_WeightWidthSlopeOnly: 0
OS2_UseTypoMetrics: 0
CreationTime: 1417722385
ModificationTime: 1485848170
PfmFamily: 17
TTFWeight: 400
TTFWidth: 5
LineGap: 26
VLineGap: 0
Panose: 2 0 5 3 0 0 0 0 0 0
OS2TypoAscent: 667
OS2TypoAOffset: 0
OS2TypoDescent: -185
OS2TypoDOffset: 0
OS2TypoLinegap: 52
OS2WinAscent: 883
OS2WinAOffset: 0
OS2WinDescent: 191
OS2WinDOffset: 0
HheadAscent: 883
HheadAOffset: 0
HheadDescent: -191
HheadDOffset: 0
OS2SubXSize: 650
OS2SubYSize: 700
OS2SubXOff: 0
OS2SubYOff: 140
OS2SupXSize: 650
OS2SupYSize: 700
OS2SupXOff: 0
OS2SupYOff: 480
OS2StrikeYSize: 49
OS2StrikeYPos: 258
OS2CapHeight: 667
OS2XHeight: 478
OS2FamilyClass: 1283
OS2Vendor: 'PfEd'
OS2CodePages: 00000003.00000000
OS2UnicodeRanges: e00000ff.4000206a.00000000.00000000
MarkAttachClasses: 1
DEI: 91125

StartChar: .notdef
Encoding: 65536 -1 0
Width: 500
Flags: MW
HStem: 0 50<100 400 100 450> 483 50<100 400 100 100>
VStem: 50 50<50 50 50 483> 400 50<50 483 483 483>
LayerCount: 2
Fore
SplineSet
50 0 m 1
 50 533 l 1
 450 533 l 1
 450 0 l 1
 50 0 l 1
100 50 m 1
 400 50 l 1
 400 483 l 1
 100 483 l 1
 100 50 l 1
EndSplineSet
EndChar

StartChar: exclam
Encoding: 33 33 2
Width: 260
GlyphClass: 2
Flags: MW
HStem: -6 102<115 145> 646 20G<92 166 166 166>
VStem: 79 102<30 60> 92 74<472 666>
LayerCount: 2
Fore
SplineSet
130 96 m 0xe0
 160 96 181 75 181 45 c 0
 181 15 160 -6 130 -6 c 0
 100 -6 79 15 79 45 c 0
 79 75 100 96 130 96 c 0xe0
92 666 m 1xd0
 166 666 l 1
 166 472 l 2
 166 292 156 169 156 169 c 1
 102 169 l 1
 102 169 92 292 92 472 c 2
 92 666 l 1xd0
EndSplineSet
EndChar

StartChar: quotedbl
Encoding: 34 34 3
Width: 362
GlyphClass: 2
Flags: MW
HStem: 455 217<86 98 53 116 246 258 86 213>
VStem: 50 102<614.5 636.5 614.5 636.5> 210 102<614.5 636.5 614.5 636.5>
LayerCount: 2
Fore
SplineSet
210 621 m 0
 210 652 231 672 261 672 c 0
 291 672 312 652 312 621 c 0
 312 608 308 595 298 567 c 2
 258 455 l 1
 213 455 l 1
 242 573 l 1
 223 579 210 598 210 621 c 0
50 621 m 0
 50 652 71 672 101 672 c 0
 131 672 152 652 152 621 c 0
 152 608 148 595 138 567 c 2
 98 455 l 1
 53 455 l 1
 82 573 l 1
 63 579 50 598 50 621 c 0
EndSplineSet
EndChar

StartChar: numbersign
Encoding: 35 35 4
Width: 610
GlyphClass: 2
Flags: MW
HStem: 0 21G<96 160 96 96 310 374 310 310> 190 57<55 136 55 148 212 350 55 200 426 520> 421 57<90 184 90 196 90 248 260 398 474 555> 646 20G<236 300 300 300 450 514 514 514>
LayerCount: 2
Fore
SplineSet
236 666 m 1
 300 666 l 1
 260 478 l 1
 410 478 l 1
 450 666 l 1
 514 666 l 1
 474 478 l 1
 555 478 l 1
 555 421 l 1
 462 421 l 1
 426 247 l 1
 520 247 l 1
 520 190 l 1
 414 190 l 1
 374 0 l 1
 310 0 l 1
 350 190 l 1
 200 190 l 1
 160 0 l 1
 96 0 l 1
 136 190 l 1
 55 190 l 1
 55 247 l 1
 148 247 l 1
 184 421 l 1
 90 421 l 1
 90 478 l 1
 196 478 l 1
 236 666 l 1
398 421 m 1
 248 421 l 1
 212 247 l 1
 362 247 l 1
 398 421 l 1
EndSplineSet
EndChar

StartChar: dollar
Encoding: 36 36 5
Width: 531
GlyphClass: 2
Flags: MW
HStem: -5 70<234 234 234 288> 601 70<234 234 234 288>
VStem: 50 74<490.5 513.5 490.5 531> 234 54<-70 -5 -70 -5 65 306 393 601 671 736> 407 74<163 188.5>
LayerCount: 2
Fore
SplineSet
234 736 m 1
 288 736 l 1
 288 671 l 1
 345 667 403 650 453 619 c 1
 413 561 l 1
 376 583 333 596 288 601 c 1
 288 379 l 1
 348 363 390 343 423 312 c 0
 471 266 481 212 481 180 c 0
 481 125 455 73 413 40 c 0
 376 11 331 -2 288 -5 c 1
 288 -70 l 1
 234 -70 l 1
 234 -5 l 1
 166 0 99 23 44 63 c 1
 88 119 l 1
 130 88 182 70 234 65 c 1
 234 320 l 1
 195 330 150 344 113 375 c 0
 75 407 50 452 50 507 c 0
 50 555 73 599 108 628 c 0
 150 661 205 670 234 671 c 1
 234 736 l 1
234 601 m 1
 201 600 172 588 155 574 c 0
 129 551 124 520 124 507 c 0
 124 474 137 449 162 428 c 0
 181 412 206 401 234 393 c 1
 234 601 l 1
288 306 m 1
 288 65 l 1
 320 69 349 78 372 100 c 0
 393 120 407 146 407 180 c 0
 407 197 401 233 372 261 c 0
 347 285 326 293 288 306 c 1
EndSplineSet
EndChar

StartChar: percent
Encoding: 37 37 6
Width: 692
GlyphClass: 2
Flags: MW
HStem: -6 58<502 522 502 531.5> 237 58<502 522> 371 58<170 190 170 199.5> 614 58<170 190>
VStem: 60 60<505 537.5 505 541> 240 60<505 537.5> 392 60<128 160.5 128 164> 572 60<128 160.5>
LayerCount: 2
Fore
SplineSet
512 295 m 0
 551 295 584 278 604 254 c 0
 632 220 632 184 632 144 c 0
 632 105 632 69 604 35 c 0
 584 11 551 -6 512 -6 c 0
 473 -6 440 11 420 35 c 0
 392 69 392 105 392 144 c 0
 392 184 392 220 420 254 c 0
 440 278 473 295 512 295 c 0
512 237 m 0
 492 237 475 229 464 214 c 0
 452 197 452 177 452 144 c 0
 452 112 452 92 464 75 c 0
 475 60 492 52 512 52 c 0
 532 52 549 60 560 75 c 0
 572 92 572 112 572 144 c 0
 572 177 572 197 560 214 c 0
 549 229 532 237 512 237 c 0
180 672 m 0
 219 672 252 655 272 631 c 0
 300 597 300 561 300 521 c 0
 300 482 300 446 272 412 c 0
 252 388 219 371 180 371 c 0
 141 371 108 388 88 412 c 0
 60 446 60 482 60 521 c 0
 60 561 60 597 88 631 c 0
 108 655 141 672 180 672 c 0
180 614 m 0
 160 614 143 606 132 591 c 0
 120 574 120 554 120 521 c 0
 120 489 120 469 132 452 c 0
 143 437 160 429 180 429 c 0
 200 429 217 437 228 452 c 0
 240 469 240 489 240 521 c 0
 240 554 240 574 228 591 c 0
 217 606 200 614 180 614 c 0
486 666 m 1
 560 666 l 1
 200 0 l 1
 126 0 l 1
 486 666 l 1
EndSplineSet
EndChar

StartChar: ampersand
Encoding: 38 38 7
Width: 642
GlyphClass: 2
Flags: MW
HStem: -6 70<252 296.5 252 302 520 536.5> 308 70<280.5 395 312 395 469 577> 602 70<258 292.5>
VStem: 60 74<164.5 203 164.5 216> 72 74<474.5 509 474.5 522> 395 74<163 164 164 308 378 478>
LayerCount: 2
Fore
SplineSet
312 308 m 2xf4
 249 308 211 308 177 280 c 0
 151 258 134 222 134 184 c 0
 134 145 151 115 171 97 c 0
 195 75 232 64 272 64 c 0
 321 64 368 79 397 107 c 1
 397 107 395 116 395 163 c 2
 395 308 l 1
 312 308 l 2xf4
312 378 m 2
 395 378 l 1
 395 478 l 1
 469 478 l 1
 469 378 l 1
 577 378 l 1
 577 308 l 1
 469 308 l 1
 469 164 l 2
 469 115 469 95 483 80 c 0
 494 68 512 64 528 64 c 0
 545 64 563 68 580 76 c 1
 612 12 l 1
 586 1 558 -6 528 -6 c 0
 483 -6 447 10 424 40 c 1
 385 10 332 -6 272 -6 c 0
 219 -6 166 8 125 42 c 0
 87 73 60 124 60 184 c 0xf4
 60 248 91 310 150 345 c 1
 97 379 72 435 72 492 c 0
 72 552 99 597 133 626 c 0
 174 660 224 672 271 672 c 0
 326 672 384 657 431 621 c 1
 387 565 l 1
 354 591 313 602 272 602 c 0
 244 602 210 596 185 576 c 0
 160 556 146 526 146 492 c 0xec
 146 457 161 424 185 404 c 0
 216 378 250 378 312 378 c 2
EndSplineSet
EndChar

StartChar: quotesingle
Encoding: 39 39 8
Width: 202
GlyphClass: 2
Flags: MW
HStem: 455 217<86 98 53 116>
VStem: 50 102<614.5 636.5 614.5 636.5>
LayerCount: 2
Fore
SplineSet
50 621 m 0
 50 652 71 672 101 672 c 0
 131 672 152 652 152 621 c 0
 152 608 148 595 138 567 c 2
 98 455 l 1
 53 455 l 1
 82 573 l 1
 63 579 50 598 50 621 c 0
EndSplineSet
EndChar

StartChar: parenleft
Encoding: 40 40 9
Width: 320
GlyphClass: 2
Flags: MW
VStem: 80 60<203 393 203 395.5>
LayerCount: 2
Fore
SplineSet
140 298 m 0
 140 108 140 20 180 -56 c 0
 201 -97 235 -130 278 -149 c 1
 254 -200 l 1
 198 -176 153 -132 126 -80 c 0
 80 7 80 103 80 298 c 0
 80 493 80 588 126 675 c 0
 153 727 198 771 254 795 c 1
 278 744 l 1
 235 725 201 692 180 651 c 0
 140 575 140 488 140 298 c 0
EndSplineSet
EndChar

StartChar: parenright
Encoding: 41 41 10
Width: 320
GlyphClass: 2
Flags: MW
VStem: 180 60<203 393>
LayerCount: 2
Fore
SplineSet
180 298 m 0
 180 488 180 575 140 651 c 0
 119 692 85 725 42 744 c 1
 66 795 l 1
 122 771 167 727 194 675 c 0
 240 588 240 493 240 298 c 0
 240 103 240 7 194 -80 c 0
 167 -132 122 -176 66 -200 c 1
 42 -149 l 1
 85 -130 119 -97 140 -56 c 0
 180 20 180 108 180 298 c 0
EndSplineSet
EndChar

StartChar: asterisk
Encoding: 42 42 11
Width: 352
GlyphClass: 2
Flags: MW
HStem: 429 238<124 202 150 228>
VStem: 153 46<576 576>
LayerCount: 2
Fore
SplineSet
150 667 m 1
 202 667 l 1
 199 576 l 1
 286 607 l 1
 302 557 l 1
 214 532 l 1
 270 460 l 1
 228 429 l 1
 176 504 l 1
 124 429 l 1
 83 459 l 1
 138 532 l 1
 50 558 l 1
 66 608 l 1
 153 576 l 1
 150 667 l 1
EndSplineSet
EndChar

StartChar: plus
Encoding: 43 43 12
Width: 520
GlyphClass: 2
Flags: MW
HStem: 221 58<80 230 80 230 290 440>
VStem: 230 60<70 221 70 221 279 430>
LayerCount: 2
Fore
SplineSet
80 279 m 1
 230 279 l 1
 230 430 l 1
 290 430 l 1
 290 279 l 1
 440 279 l 1
 440 221 l 1
 290 221 l 1
 290 70 l 1
 230 70 l 1
 230 221 l 1
 80 221 l 1
 80 279 l 1
EndSplineSet
EndChar

StartChar: comma
Encoding: 44 44 13
Width: 202
GlyphClass: 2
Flags: MW
HStem: -121 217<86 98 53 116>
VStem: 50 102<38.5 60.5 38.5 60.5>
LayerCount: 2
Fore
SplineSet
50 45 m 0
 50 76 71 96 101 96 c 0
 131 96 152 76 152 45 c 0
 152 32 148 19 138 -9 c 2
 98 -121 l 1
 53 -121 l 1
 82 -3 l 1
 63 3 50 22 50 45 c 0
EndSplineSet
EndChar

StartChar: hyphen
Encoding: 45 45 14
Width: 370
GlyphClass: 2
Flags: MW
HStem: 221 58<80 290 80 290>
VStem: 80 210<221 279 221 279>
LayerCount: 2
Fore
SplineSet
80 279 m 1
 290 279 l 1
 290 221 l 1
 80 221 l 1
 80 279 l 1
EndSplineSet
EndChar

StartChar: period
Encoding: 46 46 15
Width: 202
GlyphClass: 2
Flags: MW
HStem: -6 102<86 116>
VStem: 50 102<30 60>
LayerCount: 2
Fore
SplineSet
101 96 m 0
 131 96 152 75 152 45 c 0
 152 15 131 -6 101 -6 c 0
 71 -6 50 15 50 45 c 0
 50 75 71 96 101 96 c 0
EndSplineSet
EndChar

StartChar: slash
Encoding: 47 47 16
Width: 342
GlyphClass: 2
Flags: MW
VStem: 20 302
LayerCount: 2
Fore
SplineSet
260 740 m 1
 322 740 l 1
 82 -144 l 1
 20 -144 l 1
 260 740 l 1
EndSplineSet
EndChar

StartChar: zero
Encoding: 48 48 17
Width: 534
GlyphClass: 2
Flags: MW
HStem: -6 70<252 282 252 295.5> 602 70<252 282>
VStem: 65 74<261 405> 395 74<261 405>
LayerCount: 2
Fore
SplineSet
267 602 m 0
 237 602 195 593 169 561 c 0
 139 524 139 478 139 405 c 2
 139 261 l 2
 139 188 139 142 169 105 c 0
 195 73 237 64 267 64 c 0
 297 64 339 73 365 105 c 0
 395 142 395 188 395 261 c 2
 395 405 l 2
 395 478 395 524 365 561 c 0
 339 593 297 602 267 602 c 0
267 672 m 0
 324 672 385 652 425 602 c 0
 469 547 469 484 469 405 c 2
 469 261 l 2
 469 182 469 119 425 64 c 0
 385 14 324 -6 267 -6 c 0
 210 -6 149 14 109 64 c 0
 65 119 65 182 65 261 c 2
 65 405 l 2
 65 484 65 547 109 602 c 0
 149 652 210 672 267 672 c 0
EndSplineSet
EndChar

StartChar: one
Encoding: 49 49 18
Width: 534
GlyphClass: 2
Flags: MW
HStem: 0 21G<229 303 229 229> 597 70<132 146 132 146>
VStem: 229 74<0 512 0 532.5>
LayerCount: 2
Fore
SplineSet
303 512 m 2
 303 0 l 1
 229 0 l 1
 229 512 l 2
 229 553 229 575 212 588 c 0
 200 597 183 597 146 597 c 2
 132 597 l 1
 132 667 l 1
 146 667 l 2
 190 667 230 667 263 639 c 0
 303 604 303 560 303 512 c 2
EndSplineSet
EndChar

StartChar: two
Encoding: 50 50 19
Width: 534
GlyphClass: 2
Flags: MW
HStem: 0 70<187 462.5 216.5 462.5 216.5 462.5> 602 70<223 261.5>
VStem: 71.5 74<87.5 102 87.5 114.5> 369.5 74<465.5 505.5>
LayerCount: 2
Fore
SplineSet
243.5 672 m 0
 300.5 672 342.5 657 376.5 631 c 0
 415.5 601 443.5 548 443.5 490 c 0
 443.5 415 406.5 372 350.5 316 c 2
 198.5 163 l 2
 160.5 125 145.5 112 145.5 92 c 0
 145.5 83 150.5 77 156.5 74 c 0
 163.5 70 173.5 70 216.5 70 c 2
 462.5 70 l 1
 462.5 0 l 1
 206.5 0 l 2
 167.5 0 145.5 0 121.5 12 c 0
 93.5 26 71.5 54 71.5 92 c 0
 71.5 137 100.5 167 144.5 211 c 2
 296.5 364 l 2
 346.5 415 369.5 441 369.5 490 c 0
 369.5 521 356.5 555 330.5 576 c 0
 308.5 594 279.5 602 243.5 602 c 0
 202.5 602 159.5 590 128.5 565 c 1
 84.5 621 l 1
 133.5 659 194.5 672 243.5 672 c 0
EndSplineSet
EndChar

StartChar: three
Encoding: 51 51 20
Width: 534
GlyphClass: 2
Flags: MW
HStem: -6 70<221 264.5 221 277> 596 70<101.5 293.5 101.5 303.5>
VStem: 360.5 74<569.5 580.5> 383.5 74<175.5 212.5>
LayerCount: 2
Fore
SplineSet
101.5 666 m 1xe0
 303.5 666 l 2
 348.5 666 385.5 666 414.5 632 c 0
 426.5 618 434.5 601 434.5 577 c 0xe0
 434.5 537 411.5 511 378.5 471 c 2
 312.5 392 l 1
 343.5 386 372.5 372 396.5 350 c 0
 434.5 315 457.5 262 457.5 197 c 0
 457.5 132 433.5 80 396.5 46 c 0
 360.5 13 308.5 -6 245.5 -6 c 0
 179.5 -6 119.5 14 76.5 50 c 1
 122.5 105 l 1
 150.5 80 196.5 64 245.5 64 c 0
 283.5 64 320.5 74 344.5 96 c 0
 368.5 118 383.5 154 383.5 197 c 0xd0
 383.5 228 375.5 272 344.5 300 c 0
 313.5 328 276.5 328 212.5 328 c 1
 212.5 385 l 1
 322.5 517 l 2
 349.5 549 360.5 562 360.5 577 c 0
 360.5 584 357.5 588 353.5 591 c 0
 347.5 595 341.5 596 293.5 596 c 2
 101.5 596 l 1
 101.5 666 l 1xe0
EndSplineSet
EndChar

StartChar: four
Encoding: 52 52 21
Width: 534
GlyphClass: 2
Flags: MW
HStem: 0 21G<349.5 419.5 349.5 349.5> 165 70<196.5 206.5 206.5 349.5 419.5 476.5> 646 20G<255.5 338.5 338.5 338.5>
VStem: 57.5 74<261 273 261 282> 349.5 70<0 165 0 165 235 403>
LayerCount: 2
Fore
SplineSet
338.5 666 m 1
 165.5 344 l 2
 139.346679688 295.321289062 131.5 282 131.5 264 c 0
 131.5 258 132.5 253 136.5 247 c 0
 144.5 235 158.5 235 196.5 235 c 2
 349.5 235 l 1
 349.5 403 l 1
 419.5 403 l 1
 419.5 235 l 1
 476.5 235 l 1
 476.5 165 l 1
 419.5 165 l 1
 419.5 0 l 1
 349.5 0 l 1
 349.5 165 l 1
 206.5 165 l 2
 158.5 165 135.5 165 111.5 177 c 0
 81.5 192 57.5 221 57.5 264 c 0
 57.5 300 76.3544921875 333.461914062 95.5 369 c 2
 255.5 666 l 1
 338.5 666 l 1
EndSplineSet
EndChar

StartChar: five
Encoding: 53 53 22
Width: 534
GlyphClass: 2
Flags: MW
HStem: -6 70<221 267.5 221 278> 330 70<222.5 254> 596 70<231.5 417 250 417>
VStem: 93 74<483 511 461 535> 384 74<176 219.5>
LayerCount: 2
Fore
SplineSet
93 483 m 2
 93 511 l 2
 93 559 93 603 133 638 c 0
 166 666 206 666 250 666 c 2
 417 666 l 1
 417 596 l 1
 250 596 l 2
 213 596 196 596 184 587 c 0
 167 574 167 552 167 511 c 2
 167 483 l 2
 167 439 169 425 181 414 c 0
 192 404 212 400 233 400 c 0
 305 400 357 387 397 350 c 0
 434 316 458 263 458 198 c 0
 458 132 434 80 397 46 c 0
 361 13 310 -6 246 -6 c 0
 181 -6 119 13 76 49 c 1
 122 104 l 1
 152 78 196 64 246 64 c 0
 289 64 322 75 345 96 c 0
 370 119 384 154 384 198 c 0
 384 241 369 278 345 300 c 0
 316 326 279 330 229 330 c 0
 194 330 158 340 134 360 c 0
 93 394 93 438 93 483 c 2
EndSplineSet
EndChar

StartChar: six
Encoding: 54 54 23
Width: 534
GlyphClass: 2
Flags: MW
HStem: -6 70<245.5 288.5 245.5 299.5> 346 70<257.5 288.5> 646 20G<267 349 349 349>
VStem: 67 74<182.5 227.5 182.5 236.5> 393 74<182.5 227.5>
LayerCount: 2
Fore
SplineSet
393 205 m 0
 393 250 380 284 361 306 c 0
 342 329 310 346 267 346 c 0
 224 346 192 329 173 306 c 0
 154 284 141 250 141 205 c 0
 141 160 154 126 173 104 c 0
 192 81 224 64 267 64 c 0
 310 64 342 81 361 104 c 0
 380 126 393 160 393 205 c 0
67 205 m 0
 67 268 82 310 143 427 c 2
 267 666 l 1
 349 666 l 1
 214 406 l 1
 231 414 248 416 267 416 c 0
 332 416 385 389 419 350 c 0
 451 313 467 262 467 205 c 0
 467 148 451 97 419 60 c 0
 385 21 332 -6 267 -6 c 0
 202 -6 149 21 115 60 c 0
 83 97 67 148 67 205 c 0
EndSplineSet
EndChar

StartChar: seven
Encoding: 55 55 24
Width: 534
GlyphClass: 2
Flags: MW
HStem: 0 21G<120.5 120.5 120.5 201.5> 596 70<72.5 314.5 72.5 324.5>
VStem: 387.5 74<558.5 572.5>
LayerCount: 2
Fore
SplineSet
120.5 0 m 1
 355.5 484 l 2
 378.5 531 387.5 550 387.5 567 c 0
 387.5 578 383.5 585 377.5 590 c 0
 369.5 596 357.5 596 314.5 596 c 2
 72.5 596 l 1
 72.5 666 l 1
 324.5 666 l 2
 364.5 666 403.5 666 432.5 637 c 0
 449.5 620 461.5 598 461.5 567 c 0
 461.5 533 444.5 499 422.5 454 c 2
 201.5 0 l 1
 120.5 0 l 1
EndSplineSet
EndChar

StartChar: eight
Encoding: 56 56 25
Width: 535
GlyphClass: 2
Flags: MW
HStem: -6 70<252.5 282.5 252.5 291> 308 70<257.5 277.5 257.5 282.5> 602 70<255 280>
VStem: 61.5 74<164.5 207.5 164.5 222.5> 73.5 74<474 509.5 474 520> 387.5 74<474 509.5> 399.5 74<164.5 207.5>
LayerCount: 2
Fore
SplineSet
267.5 602 m 0xec
 242.5 602 215.5 596 193.5 581 c 0
 165.5 562 147.5 529 147.5 490 c 0
 147.5 458 160.5 422 193.5 399 c 0
 218.5 382 247.5 378 267.5 378 c 0
 287.5 378 316.5 382 341.5 399 c 0
 374.5 422 387.5 458 387.5 490 c 0
 387.5 529 369.5 562 341.5 581 c 0
 319.5 596 292.5 602 267.5 602 c 0xec
267.5 672 m 0
 310.5 672 358.5 660 396.5 629 c 0
 434.5 598 461.5 550 461.5 490 c 0xec
 461.5 426 428.5 374 382.5 344 c 1
 434.5 314 473.5 259 473.5 186 c 0
 473.5 121 442.5 69 402.5 38 c 0
 362.5 7 314.5 -6 267.5 -6 c 0
 220.5 -6 172.5 7 132.5 38 c 0
 92.5 69 61.5 121 61.5 186 c 0xf2
 61.5 259 100.5 314 152.5 344 c 1
 106.5 374 73.5 426 73.5 490 c 0
 73.5 550 100.5 598 138.5 629 c 0
 176.5 660 224.5 672 267.5 672 c 0
267.5 308 m 0
 237.5 308 205.5 300 179.5 280 c 0
 155.5 261 135.5 229 135.5 186 c 0
 135.5 143 155.5 111 179.5 92 c 0
 205.5 72 237.5 64 267.5 64 c 0
 297.5 64 329.5 72 355.5 92 c 0
 379.5 111 399.5 143 399.5 186 c 0xf2
 399.5 229 379.5 261 355.5 280 c 0
 329.5 300 297.5 308 267.5 308 c 0
EndSplineSet
EndChar

StartChar: nine
Encoding: 57 57 26
Width: 534
GlyphClass: 2
Flags: MW
HStem: 0 21G<185 267 185 185> 250 70<245.5 276.5> 602 70<245.5 288.5>
VStem: 67 74<438.5 483.5 438.5 489.5> 393 74<438.5 483.5>
LayerCount: 2
Fore
SplineSet
267 602 m 0
 224 602 192 585 173 562 c 0
 154 540 141 506 141 461 c 0
 141 416 154 382 173 360 c 0
 192 337 224 320 267 320 c 0
 310 320 342 337 361 360 c 0
 380 382 393 416 393 461 c 0
 393 506 380 540 361 562 c 0
 342 585 310 602 267 602 c 0
267 672 m 0
 332 672 385 645 419 606 c 0
 451 569 467 518 467 461 c 0
 467 398 452 356 391 239 c 2
 267 0 l 1
 185 0 l 1
 320 260 l 1
 303 252 286 250 267 250 c 0
 202 250 149 277 115 316 c 0
 83 353 67 404 67 461 c 0
 67 518 83 569 115 606 c 0
 149 645 202 672 267 672 c 0
EndSplineSet
EndChar

StartChar: colon
Encoding: 58 58 27
Width: 202
GlyphClass: 2
Flags: MW
HStem: -6 102<86 116> 283 102<86 116>
VStem: 50 102<30 60 319 349>
LayerCount: 2
Fore
SplineSet
101 96 m 0
 131 96 152 75 152 45 c 0
 152 15 131 -6 101 -6 c 0
 71 -6 50 15 50 45 c 0
 50 75 71 96 101 96 c 0
101 385 m 0
 131 385 152 364 152 334 c 0
 152 304 131 283 101 283 c 0
 71 283 50 304 50 334 c 0
 50 364 71 385 101 385 c 0
EndSplineSet
EndChar

StartChar: semicolon
Encoding: 59 59 28
Width: 202
GlyphClass: 2
Flags: MW
HStem: 283 102<86 116>
VStem: 50 102<38.5 60.5 38.5 60.5 319 349>
LayerCount: 2
Fore
SplineSet
50 45 m 0
 50 76 71 96 101 96 c 0
 131 96 152 76 152 45 c 0
 152 32 148 19 138 -9 c 2
 98 -121 l 1
 53 -121 l 1
 82 -3 l 1
 63 3 50 22 50 45 c 0
101 385 m 0
 131 385 152 364 152 334 c 0
 152 304 131 283 101 283 c 0
 71 283 50 304 50 334 c 0
 50 364 71 385 101 385 c 0
EndSplineSet
EndChar

StartChar: less
Encoding: 60 60 29
Width: 520
GlyphClass: 2
Flags: W
LayerCount: 2
Fore
SplineSet
449 394 m 1
 157 250 l 1
 449 106 l 1
 421 54 l 1
 80 224 l 1
 80 276 l 1
 421 446 l 1
 449 394 l 1
EndSplineSet
EndChar

StartChar: equal
Encoding: 61 61 30
Width: 520
GlyphClass: 2
Flags: MW
HStem: 153 58<80 440 80 440> 289 58<80 440 80 440>
LayerCount: 2
Fore
SplineSet
80 347 m 1
 440 347 l 1
 440 289 l 1
 80 289 l 1
 80 347 l 1
80 211 m 1
 440 211 l 1
 440 153 l 1
 80 153 l 1
 80 211 l 1
EndSplineSet
EndChar

StartChar: greater
Encoding: 62 62 31
Width: 520
GlyphClass: 2
Flags: W
LayerCount: 2
Fore
SplineSet
71 394 m 1
 99 446 l 1
 440 276 l 1
 440 224 l 1
 99 54 l 1
 71 106 l 1
 363 250 l 1
 71 394 l 1
EndSplineSet
EndChar

StartChar: question
Encoding: 63 63 32
Width: 469
GlyphClass: 2
Flags: MW
HStem: -6 102<199 229> 602 70<188.5 227>
VStem: 163 102<30 60> 185 58<216 216 216 234.5> 335 74<470.5 506>
LayerCount: 2
Fore
SplineSet
214 96 m 0xe8
 244 96 265 75 265 45 c 0
 265 15 244 -6 214 -6 c 0
 184 -6 163 15 163 45 c 0
 163 75 184 96 214 96 c 0xe8
209 672 m 0
 266 672 308 657 342 631 c 0
 381 601 409 549 409 490 c 0
 409 427 379 381 343 351 c 0
 307 321 265 306 250 262 c 0
 247 253 244 240 243 216 c 2
 241 169 l 1
 187 169 l 1
 187 169 185 206 185 224 c 0xd8
 185 245 186 257 190 276 c 0
 204 344 263 375 294 402 c 0
 319 424 335 451 335 490 c 0
 335 522 322 555 296 576 c 0
 274 594 245 602 209 602 c 0
 168 602 125 590 94 565 c 1
 50 621 l 1
 99 659 160 672 209 672 c 0
EndSplineSet
EndChar

StartChar: at
Encoding: 64 64 33
Width: 850
GlyphClass: 2
Flags: MW
HStem: -183 62<317 492 358 492> -6 66<406 440.5 406 452> 229 62<425 524 442 524> 419 62<310 383.5> 604 62<277 342 277 342>
VStem: 75 66<98 200> 241 70<128 157.5 128 168.5> 524 70<200 229 229 229> 709 66<98 235>
LayerCount: 2
Fore
SplineSet
594 266 m 2
 594 200 l 2
 594 133 594 87 559 46 c 0
 529 11 482 -6 422 -6 c 0
 374 -6 333 4 301 27 c 0
 268 50 241 90 241 142 c 0
 241 195 268 234 300 257 c 0
 347 291 403 291 442 291 c 2
 524 291 l 1
 524 318 524 365 485 396 c 0
 456 419 418 419 349 419 c 0
 271 419 218 419 177 371 c 0
 141 329 141 275 141 200 c 2
 141 98 l 2
 141 23 141 -31 177 -73 c 0
 218 -121 280 -121 358 -121 c 2
 492 -121 l 2
 570 -121 632 -121 673 -73 c 0
 709 -31 709 23 709 98 c 2
 709 235 l 2
 709 349 709 451 632 528 c 0
 556 604 452 604 342 604 c 2
 277 604 l 1
 277 666 l 1
 342 666 l 2
 463 666 584 666 680 570 c 0
 775 475 775 351 775 235 c 2
 775 98 l 2
 775 15 775 -57 720 -117 c 0
 659 -183 574 -183 492 -183 c 2
 358 -183 l 2
 276 -183 191 -183 130 -117 c 0
 75 -57 75 15 75 98 c 2
 75 200 l 2
 75 283 75 355 130 415 c 0
 191 481 267 481 349 481 c 0
 426 481 480 481 532 442 c 0
 594 395 594 322 594 266 c 2
524 200 m 2
 524 229 l 1
 442 229 l 2
 408 229 372 229 344 209 c 0
 326 196 311 173 311 142 c 0
 311 114 325 92 343 79 c 0
 362 66 390 60 422 60 c 0
 459 60 488 68 505 88 c 0
 524 110 524 141 524 200 c 2
EndSplineSet
EndChar

StartChar: A
Encoding: 65 65 34
Width: 594
GlyphClass: 2
Flags: MW
HStem: 0 21G<35 111 35 35 483 559 483 483> 195 70<182 412 182 431 163 412> 602 70<293 301>
LayerCount: 2
Fore
SplineSet
297 672 m 0
 323 672 350 663 370 644 c 0
 387 628 395 614 416 534 c 2
 559 0 l 1
 483 0 l 1
 431 195 l 1
 163 195 l 1
 111 0 l 1
 35 0 l 1
 178 534 l 2
 199 614 207 628 224 644 c 0
 244 663 271 672 297 672 c 0
182 265 m 1
 412 265 l 1
 344 518 l 2
 330 572 325 587 318 594 c 0
 313 599 305 602 297 602 c 0
 289 602 281 599 276 594 c 0
 269 587 264 572 250 518 c 2
 182 265 l 1
EndSplineSet
EndChar

StartChar: B
Encoding: 66 66 35
Width: 550
GlyphClass: 2
Flags: MW
HStem: 0 70<210 244 232 244> 308 70<149 234 234 244 149 234> 596 70<213.5 234 232 234>
VStem: 75 74<155 308 378 511> 401 74<474 500> 421 74<171 207>
LayerCount: 2
Fore
SplineSet
115 638 m 0xf4
 148 666 188 666 232 666 c 2
 234 666 l 2
 305 666 361 666 411 627 c 0
 452 595 475 544 475 487 c 0xf8
 475 426 449 377 402 348 c 1
 460 318 495 262 495 189 c 0
 495 132 473 85 442 54 c 0
 388 0 318 0 244 0 c 2
 232 0 l 2
 188 0 148 0 115 28 c 0
 75 63 75 107 75 155 c 2
 75 511 l 2
 75 560 75 605 115 638 c 0xf4
166 587 m 0
 149 574 149 552 149 511 c 2
 149 378 l 1
 234 378 l 2
 302 378 348 378 377 414 c 0
 394 435 401 461 401 487 c 0
 401 513 394 539 377 560 c 0
 348 596 302 596 234 596 c 2
 232 596 l 2
 195 596 178 596 166 587 c 0
244 308 m 2
 149 308 l 1
 149 155 l 2
 149 114 149 92 166 79 c 0
 178 70 195 70 232 70 c 2
 244 70 l 2
 313 70 358 70 391 105 c 0
 408 123 421 153 421 189 c 0xf4
 421 225 408 255 391 273 c 0
 358 308 313 308 244 308 c 2
EndSplineSet
EndChar

StartChar: C
Encoding: 67 67 36
Width: 536
GlyphClass: 2
Flags: MW
HStem: -6 70<264.278 316 264.278 324.5> 602 70<264.278 314>
VStem: 65 74<270.5 395.5 270.5 397.5>
LayerCount: 2
Fore
SplineSet
290 672 m 0
 352 672 416 651 465 611 c 1
 422 555 l 1
 386 585 338 602 290 602 c 0
 238.556640625 602 198.372070312 582.874023438 174 552 c 0
 139 506 139 458 139 333 c 0
 139 208 139 160 174 114 c 0
 198.372070312 83.1259765625 238.556640625 64 290 64 c 0
 342 64 394 83 431 117 c 1
 476 62 l 1
 426 18 359 -6 290 -6 c 0
 206.528320312 -6 148.19921875 29 113 74 c 0
 65 137 65 204 65 333 c 0
 65 462 65 529 113 592 c 0
 148.19921875 637 206.528320312 672 290 672 c 0
EndSplineSet
EndChar

StartChar: D
Encoding: 68 68 37
Width: 570
GlyphClass: 2
Flags: MW
HStem: 0 70<203.5 240 203.5 244.5> 596 70<203.5 240>
VStem: 75 74<155 511> 441 74<285 381>
LayerCount: 2
Fore
SplineSet
212 666 m 0
 277 666 378 666 447 597 c 0
 515 529 515 435 515 333 c 0
 515 231 515 137 447 69 c 0
 378 0 277 0 212 0 c 0
 188 0 148 0 115 28 c 0
 75 63 75 107 75 155 c 2
 75 511 l 2
 75 559 75 603 115 638 c 0
 148 666 188 666 212 666 c 0
212 596 m 0
 195 596 178 596 166 587 c 0
 149 574 149 552 149 511 c 2
 149 155 l 2
 149 114 149 92 166 79 c 0
 178 70 195 70 212 70 c 0
 268 70 346 70 393 117 c 0
 441 165 441 237 441 333 c 0
 441 429 441 501 393 549 c 0
 346 596 268 596 212 596 c 0
EndSplineSet
EndChar

StartChar: E
Encoding: 69 69 38
Width: 510
GlyphClass: 2
Flags: MW
HStem: 0 70<210 445 232 445> 308 70<149 149> 596 70<213.5 445 232 445>
VStem: 75 74<155 308 378 511>
LayerCount: 2
Fore
SplineSet
149 378 m 1
 385 379 l 1
 385 309 l 1
 149 308 l 1
 149 155 l 2
 149 114 149 92 166 79 c 0
 178 70 195 70 232 70 c 2
 445 70 l 1
 445 0 l 1
 232 0 l 2
 188 0 148 0 115 28 c 0
 75 63 75 107 75 155 c 2
 75 511 l 2
 75 559 75 603 115 638 c 0
 148 666 188 666 232 666 c 2
 445 666 l 1
 445 596 l 1
 232 596 l 2
 195 596 178 596 166 587 c 0
 149 574 149 552 149 511 c 2
 149 378 l 1
EndSplineSet
EndChar

StartChar: F
Encoding: 70 70 39
Width: 495
GlyphClass: 2
Flags: MW
HStem: 0 21G<75 149 75 75> 309 70<149 385 149 385> 596 70<213.5 435 232 435>
VStem: 75 74<0 309 379 511>
LayerCount: 2
Fore
SplineSet
232 666 m 2
 435 666 l 1
 435 596 l 1
 232 596 l 2
 195 596 178 596 166 587 c 0
 149 574 149 552 149 511 c 2
 149 379 l 1
 385 379 l 1
 385 309 l 1
 149 309 l 1
 149 0 l 1
 75 0 l 1
 75 511 l 2
 75 559 75 603 115 638 c 0
 148 666 188 666 232 666 c 2
EndSplineSet
EndChar

StartChar: G
Encoding: 71 71 40
Width: 580
GlyphClass: 2
Flags: MW
HStem: -6 70<264.278 315.722 264.278 331.736> 287 70<303 440.917 303 515> 602 70<264.278 314>
VStem: 65 74<270.5 395.5 270.5 397.5> 440.917 74.0825
LayerCount: 2
Fore
SplineSet
290 672 m 0
 352 672 416 651 465 611 c 1
 422 555 l 1
 386 585 338 602 290 602 c 0
 238.556640625 602 198.372070312 582.874023438 174 552 c 0
 139 506 139 458 139 333 c 0
 139 208 139 160 174 114 c 0
 198.372070312 83.1259765625 238.556640625 64 290 64 c 0
 341.443359375 64 381.627929688 83.1259765625 406 114 c 0
 436.340820312 153.876953125 440.379882812 195.256835938 440.916992188 287 c 1
 303 287 l 1
 303 357 l 1
 515 357 l 1
 515 333 l 2
 515 204 515 137 467 74 c 0
 431.80078125 29 373.471679688 -6 290 -6 c 0
 206.528320312 -6 148.19921875 29 113 74 c 0
 65 137 65 204 65 333 c 0
 65 462 65 529 113 592 c 0
 148.19921875 637 206.528320312 672 290 672 c 0
EndSplineSet
EndChar

StartChar: H
Encoding: 72 72 41
Width: 590
GlyphClass: 2
Flags: MW
HStem: 0 21G<75 149 75 75 441 515 441 441> 308 70<149 441 149 441> 646 20G<75 149 149 149 441 515 515 515>
VStem: 75 74<0 308 378 666> 441 74<0 308 308 308 378 666 0 666>
LayerCount: 2
Fore
SplineSet
75 666 m 1
 149 666 l 1
 149 378 l 1
 441 378 l 1
 441 666 l 1
 515 666 l 1
 515 0 l 1
 441 0 l 1
 441 308 l 1
 149 308 l 1
 149 0 l 1
 75 0 l 1
 75 666 l 1
EndSplineSet
EndChar

StartChar: I
Encoding: 73 73 42
Width: 224
GlyphClass: 2
Flags: MW
HStem: 0 21G<75 149 75 75> 646 20G<75 149 149 149>
VStem: 75 74<0 666 0 666>
LayerCount: 2
Fore
SplineSet
149 666 m 1
 149 0 l 1
 75 0 l 1
 75 666 l 1
 149 666 l 1
EndSplineSet
EndChar

StartChar: J
Encoding: 74 74 43
Width: 446
GlyphClass: 2
Flags: MW
HStem: -6 70<163 201 163 210.5> 646 20G<302 376 376 376>
VStem: 302 74<261 666>
LayerCount: 2
Fore
SplineSet
302 666 m 1
 376 666 l 1
 376 261 l 2
 376 179 376 117 335 64 c 0
 297 15 240 -6 181 -6 c 0
 129 -6 78 10 35 43 c 1
 80 99 l 1
 107 76 145 64 181 64 c 0
 221 64 250 78 269 98 c 0
 302 133 302 184 302 261 c 2
 302 666 l 1
EndSplineSet
EndChar

StartChar: K
Encoding: 75 75 44
Width: 561
GlyphClass: 2
Flags: MW
HStem: 0 21G<75 149 75 75 431 521 431 431> 288 70<149 155 149 155.5> 646 20G<75 149 149 149 416 506 506 506>
VStem: 75 74<0 288 358 666>
LayerCount: 2
Fore
SplineSet
75 666 m 1
 149 666 l 1
 149 358 l 1
 161 358 173 358 185 364 c 0
 199 371 210 386 231 415 c 2
 416 666 l 1
 506 666 l 1
 301 388 l 2
 292 375 279 356 268 343 c 1
 521 0 l 1
 431 0 l 1
 211 298 l 1
 186 288 162 288 149 288 c 1
 149 0 l 1
 75 0 l 1
 75 666 l 1
EndSplineSet
EndChar

StartChar: L
Encoding: 76 76 45
Width: 480
GlyphClass: 2
Flags: MW
HStem: 0 70<210 425 232 425> 646 20G<75 149 149 149>
VStem: 75 74<155 666>
LayerCount: 2
Fore
SplineSet
75 666 m 1
 149 666 l 1
 149 155 l 2
 149 114 149 92 166 79 c 0
 178 70 195 70 232 70 c 2
 425 70 l 1
 425 0 l 1
 232 0 l 2
 188 0 148 0 115 28 c 0
 75 63 75 107 75 155 c 2
 75 666 l 1
EndSplineSet
EndChar

StartChar: M
Encoding: 77 77 46
Width: 806
GlyphClass: 2
Flags: MW
HStem: 0 21G<70 144 70 70 366 440 366 366 662 736 662 662> 602 70<237.5 272.5 533.5 568.5>
VStem: 70 74<0 416 0 456.5> 366 74<0 416 0 454> 662 74<0 416 0 454>
CounterMasks: 1 38
LayerCount: 2
Fore
SplineSet
260 672 m 0
 324 672 378 645 406 592 c 1
 438 644 488 672 556 672 c 0
 612 672 657 651 688 617 c 0
 736 564 736 497 736 416 c 2
 736 0 l 1
 662 0 l 1
 662 416 l 2
 662 492 662 534 634 568 c 0
 616 590 586 602 551 602 c 0
 516 602 486 590 468 568 c 0
 440 534 440 492 440 416 c 2
 440 0 l 1
 366 0 l 1
 366 416 l 2
 366 492 366 534 338 568 c 0
 320 590 290 602 255 602 c 0
 220 602 190 590 172 568 c 0
 144 534 144 492 144 416 c 2
 144 0 l 1
 70 0 l 1
 70 416 l 2
 70 497 70 566 120 617 c 0
 153 651 200 672 260 672 c 0
EndSplineSet
EndChar

StartChar: N
Encoding: 78 78 47
Width: 554
GlyphClass: 2
Flags: MW
HStem: 0 21G<70 144 70 70 410 484 410 410> 602 70<257.5 296.5>
VStem: 70 74<0 387 0 432> 410 74<0 387 0 427.5>
LayerCount: 2
Fore
SplineSet
277 672 m 0
 339 672 396 649 432 608 c 0
 484 549 484 477 484 387 c 2
 484 0 l 1
 410 0 l 1
 410 387 l 2
 410 468 410 524 376 562 c 0
 352 589 316 602 277 602 c 0
 238 602 202 589 178 562 c 0
 144 524 144 468 144 387 c 2
 144 0 l 1
 70 0 l 1
 70 387 l 2
 70 477 70 549 122 608 c 0
 158 649 215 672 277 672 c 0
EndSplineSet
EndChar

StartChar: O
Encoding: 79 79 48
Width: 584
GlyphClass: 2
Flags: MW
HStem: -6 70<264 320 264 334> 602 70<264 320>
VStem: 65 74<282 384 282 392> 445 74<282 384>
LayerCount: 2
Fore
SplineSet
139 333 m 0
 139 231 139 171 165 128 c 0
 189 88 236 64 292 64 c 0
 348 64 395 88 419 128 c 0
 445 171 445 231 445 333 c 0
 445 435 445 495 419 538 c 0
 395 578 348 602 292 602 c 0
 236 602 189 578 165 538 c 0
 139 495 139 435 139 333 c 0
65 333 m 0
 65 451 65 514 101 573 c 0
 138 634 208 672 292 672 c 0
 376 672 446 634 483 573 c 0
 519 514 519 451 519 333 c 0
 519 215 519 152 483 93 c 0
 446 32 376 -6 292 -6 c 0
 208 -6 138 32 101 93 c 0
 65 152 65 215 65 333 c 0
EndSplineSet
EndChar

StartChar: P
Encoding: 80 80 49
Width: 535
GlyphClass: 2
Flags: MW
HStem: 0 21G<75 149 75 75> 236 70<149 204 149 204> 596 70<205.5 251>
VStem: 75 74<0 236 0 306 306 511> 411 74<427 475>
LayerCount: 2
Fore
SplineSet
219 666 m 0
 288 666 357 666 418 611 c 0
 467 567 485 504 485 451 c 0
 485 398 467 335 418 291 c 0
 357 236 283 236 204 236 c 2
 149 236 l 1
 149 0 l 1
 75 0 l 1
 75 511 l 2
 75 559 75 603 115 638 c 0
 148 666 185 666 219 666 c 0
219 596 m 0
 192 596 178 596 166 587 c 0
 149 574 149 552 149 511 c 2
 149 306 l 1
 204 306 l 2
 278 306 327 306 366 341 c 0
 393 365 411 403 411 451 c 0
 411 499 393 537 366 561 c 0
 327 596 283 596 219 596 c 0
EndSplineSet
EndChar

StartChar: Q
Encoding: 81 81 50
Width: 584
GlyphClass: 2
Flags: MW
HStem: -6 70<264 302.5> 602 70<264 320>
VStem: 65 74<282 384 282 392> 445 74<282 384>
LayerCount: 2
Fore
SplineSet
65 333 m 0
 65 451 65 514 101 573 c 0
 138 634 208 672 292 672 c 0
 376 672 446 634 483 573 c 0
 519 514 519 451 519 333 c 0
 519 215 519 152 483 93 c 0
 469 70 450 50 427 34 c 1
 532 -36 l 1
 495 -95 l 1
 353 1 l 1
 334 -4 313 -6 292 -6 c 0
 208 -6 138 32 101 93 c 0
 65 152 65 215 65 333 c 0
139 333 m 0
 139 231 139 171 165 128 c 0
 189 88 236 64 292 64 c 0
 348 64 395 88 419 128 c 0
 445 171 445 231 445 333 c 0
 445 435 445 495 419 538 c 0
 395 578 348 602 292 602 c 0
 236 602 189 578 165 538 c 0
 139 495 139 435 139 333 c 0
EndSplineSet
EndChar

StartChar: R
Encoding: 82 82 51
Width: 550
GlyphClass: 2
Flags: MW
HStem: 0 21G<75 149 75 75 420 500 420 420> 256 70<149 218 149 218> 596 70<211 259.5>
VStem: 75 74<0 256 326 511> 416 74<442 480>
LayerCount: 2
Fore
SplineSet
227 596 m 0
 195 596 178 596 166 587 c 0
 149 574 149 552 149 511 c 2
 149 326 l 1
 218 326 l 2
 293 326 339 326 377 361 c 0
 403 385 416 423 416 461 c 0
 416 499 403 537 377 561 c 0
 339 596 292 596 227 596 c 0
227 666 m 0
 296 666 370 666 429 611 c 0
 466 576 490 524 490 461 c 0
 490 374 444 308 382 279 c 1
 500 0 l 1
 420 0 l 1
 312 259 l 1
 290 256 268 256 218 256 c 2
 149 256 l 1
 149 0 l 1
 75 0 l 1
 75 511 l 2
 75 559 75 603 115 638 c 0
 148 666 188 666 227 666 c 0
EndSplineSet
EndChar

StartChar: S
Encoding: 83 83 52
Width: 510
GlyphClass: 2
Flags: MW
HStem: -6 70<219 297 219 319> 602 70<202.5 275>
VStem: 49 74<488 527 488 548.5> 386 74<153 195.5>
LayerCount: 2
Fore
SplineSet
247 672 m 0
 318 672 385 649 433 612 c 1
 389 556 l 1
 355 583 303 602 247 602 c 0
 158 602 123 551 123 503 c 0
 123 473 138 444 163 424 c 0
 187 404 226 392 259 382 c 0
 303 369 352 355 394 319 c 0
 429 289 460 238 460 180 c 0
 460 89 391 -6 247 -6 c 0
 173 -6 99 18 43 66 c 1
 90 120 l 1
 133 82 191 64 247 64 c 0
 347 64 386 126 386 180 c 0
 386 211 370 246 342 269 c 0
 315 292 274 304 228 318 c 0
 191 329 152 340 111 374 c 0
 77 402 49 450 49 501 c 0
 49 596 123 672 247 672 c 0
EndSplineSet
EndChar

StartChar: T
Encoding: 84 84 53
Width: 530
GlyphClass: 2
Flags: MW
HStem: 0 21G<228 302 228 228> 596 70<40 228 40 490 302 490 302 302>
VStem: 228 74<0 596 0 596>
LayerCount: 2
Fore
SplineSet
40 666 m 1
 490 666 l 1
 490 596 l 1
 302 596 l 1
 302 0 l 1
 228 0 l 1
 228 596 l 1
 40 596 l 1
 40 666 l 1
EndSplineSet
EndChar

StartChar: U
Encoding: 85 85 54
Width: 554
GlyphClass: 2
Flags: MW
HStem: -6 70<257.5 296.5 257.5 308> 646 20G<70 144 144 144 410 484 484 484>
VStem: 70 74<279 666> 426 74
LayerCount: 2
Fore
SplineSet
70 666 m 1
 144 666 l 1
 144 279 l 2
 144 198 144 142 178 104 c 0
 202 77 238 64 277 64 c 0
 316 64 352 77 376 104 c 0
 410 142 410 198 410 279 c 2
 410 666 l 1
 484 666 l 1
 484 279 l 2
 484 189 484 117 432 58 c 0
 396 17 339 -6 277 -6 c 0
 215 -6 158 17 122 58 c 0
 70 117 70 189 70 279 c 2
 70 666 l 1
EndSplineSet
EndChar

StartChar: V
Encoding: 86 86 55
Width: 556
GlyphClass: 2
Flags: MW
HStem: -6 70<274 282 274 291> 646 20G<35 111 111 111 445 521 521 521>
LayerCount: 2
Fore
SplineSet
111 666 m 1
 238 130 l 2
 247 93 250 78 257 72 c 0
 264 66 270 64 278 64 c 0
 286 64 292 66 299 72 c 0
 306 78 309 93 318 130 c 2
 445 666 l 1
 521 666 l 1
 390 114 l 2
 375 52 371 41 351 22 c 0
 331 3 304 -6 278 -6 c 0
 252 -6 225 3 205 22 c 0
 185 41 181 52 166 114 c 2
 35 666 l 1
 111 666 l 1
EndSplineSet
EndChar

StartChar: W
Encoding: 87 87 56
Width: 806
GlyphClass: 2
Flags: MW
HStem: -6 70<237.5 272.5 237.5 287.872 533.5 568.5> 646 20G<70 144 144 144 366 440 440 440 662 736 736 736>
VStem: 70 74<250 666> 366 74<250 666> 662 74<250 666>
CounterMasks: 1 38
LayerCount: 2
Fore
SplineSet
70 666 m 1
 144 666 l 1
 144 250 l 2
 144 174 144 132 172 98 c 0
 190 76 220 64 255 64 c 0
 290 64 320 76 338 98 c 0
 366 132 366 174 366 250 c 2
 366 666 l 1
 440 666 l 1
 440 250 l 2
 440 174 440 132 468 98 c 0
 486 76 516 64 551 64 c 0
 586 64 616 76 634 98 c 0
 662 132 662 174 662 250 c 2
 662 666 l 1
 736 666 l 1
 736 250 l 2
 736 169 736 102 687 49 c 0
 655 15 609 -6 551 -6 c 0
 485.270507812 -6 433.774414062 20.51171875 403 73.5478515625 c 1
 372.208984375 21.4892578125 320.744140625 -6 255 -6 c 0
 197 -6 151 15 119 49 c 0
 70 102 70 169 70 250 c 2
 70 666 l 1
EndSplineSet
EndChar

StartChar: X
Encoding: 88 88 57
Width: 540
GlyphClass: 2
Flags: MW
HStem: 0 21G<40 123 40 40 417 500 417 417> 646 20G<45 128 128 128 412 495 495 495>
LayerCount: 2
Fore
SplineSet
45 666 m 1
 128 666 l 1
 270 398 l 1
 412 666 l 1
 495 666 l 1
 316 338 l 1
 500 0 l 1
 417 0 l 1
 270 278 l 1
 123 0 l 1
 40 0 l 1
 224 338 l 1
 45 666 l 1
EndSplineSet
EndChar

StartChar: Y
Encoding: 89 89 58
Width: 510
GlyphClass: 2
Flags: MW
HStem: 0 21G<218 292 218 218> 646 20G<20 101 101 101 409 490 490 490>
VStem: 218 74<0 309 0 309>
LayerCount: 2
Fore
SplineSet
255 374 m 0
 260 374 265 375 271 381 c 0
 278 388 285 399 311 452 c 2
 409 666 l 1
 490 666 l 1
 375 423 l 2
 339 351 328 326 292 309 c 1
 292 0 l 1
 218 0 l 1
 218 309 l 1
 182 326 171 351 135 423 c 2
 20 666 l 1
 101 666 l 1
 199 452 l 2
 225 399 232 388 239 381 c 0
 245 375 250 374 255 374 c 0
EndSplineSet
EndChar

StartChar: Z
Encoding: 90 90 59
Width: 530
GlyphClass: 2
Flags: MW
HStem: 0 70<184 470 210 470 210 470> 596 70<70 311 70 310>
VStem: 52 74<94.5 109.5 94.5 120.5> 394 74<556.5 571.5>
LayerCount: 2
Fore
SplineSet
70 596 m 1
 70 666 l 1
 311 666 l 2
 363 666 404 666 435 638 c 0
 454 621 468 598 468 566 c 0
 468 521 446 496 398 440 c 2
 180 182 l 2
 135 129 126 119 126 100 c 0
 126 89 131 82 137 78 c 0
 149 70 163 70 210 70 c 2
 470 70 l 1
 470 0 l 1
 209 0 l 2
 159 0 116 0 86 27 c 0
 65 46 52 68 52 100 c 0
 52 141 70 164 118 221 c 2
 353 499 l 2
 385 537 394 547 394 566 c 0
 394 577 389 584 382 589 c 0
 371 596 352 596 310 596 c 2
 70 596 l 1
EndSplineSet
EndChar

StartChar: bracketleft
Encoding: 91 91 60
Width: 289
GlyphClass: 2
Flags: MW
HStem: -185 56<145 239 145 239> 724 56<145 239 145 145>
VStem: 85 60<-129 724 -129 780 -129 780> 85 154<-185 -129 724 780>
LayerCount: 2
Fore
SplineSet
85 780 m 1xd0
 239 780 l 1
 239 724 l 1xd0
 145 724 l 1
 145 -129 l 1xe0
 239 -129 l 1
 239 -185 l 1
 85 -185 l 1
 85 780 l 1xd0
EndSplineSet
EndChar

StartChar: backslash
Encoding: 92 92 61
Width: 342
GlyphClass: 2
Flags: MW
VStem: 20 302
LayerCount: 2
Fore
SplineSet
20 740 m 1
 82 740 l 1
 322 -144 l 1
 260 -144 l 1
 20 740 l 1
EndSplineSet
EndChar

StartChar: bracketright
Encoding: 93 93 62
Width: 289
GlyphClass: 2
Flags: MW
HStem: -185 56<50 144 50 204 50 144> 724 56<50 144 50 204>
VStem: 50 154<-185 -129 -129 -129 724 780 -185 780> 144 60<-129 724 724 724>
LayerCount: 2
Fore
SplineSet
50 780 m 1xe0
 204 780 l 1
 204 -185 l 1
 50 -185 l 1
 50 -129 l 1xe0
 144 -129 l 1
 144 724 l 1xd0
 50 724 l 1
 50 780 l 1xe0
EndSplineSet
EndChar

StartChar: asciicircum
Encoding: 94 94 63
Width: 368
GlyphClass: 4
Flags: MW
HStem: 546 120<50 223 50 223 145 318 145 252>
VStem: 50 268<546 546>
LayerCount: 2
Fore
SplineSet
145 666 m 1
 223 666 l 1
 318 546 l 1
 252 546 l 1
 184 622 l 1
 116 546 l 1
 50 546 l 1
 145 666 l 1
EndSplineSet
EndChar

StartChar: underscore
Encoding: 95 95 64
Width: 440
GlyphClass: 2
Flags: MW
HStem: -58 58<35 405 35 405>
LayerCount: 2
Fore
SplineSet
35 0 m 1
 405 0 l 1
 405 -58 l 1
 35 -58 l 1
 35 0 l 1
EndSplineSet
EndChar

StartChar: grave
Encoding: 96 96 65
Width: 253
GlyphClass: 4
Flags: MW
HStem: 546 120<50 203 50 137>
VStem: 50 153<546 666>
LayerCount: 2
Fore
SplineSet
50 666 m 1
 128 666 l 1
 203 546 l 1
 137 546 l 1
 50 666 l 1
EndSplineSet
EndChar

StartChar: a
Encoding: 97 97 66
Width: 438
GlyphClass: 2
Flags: MW
HStem: -6 66<200 234.5 200 246> 229 62<219 318 236 318> 418 66<191 232>
VStem: 35 70<128 157.5 128 168.5> 318 70<200 229 229 229>
LayerCount: 2
Fore
SplineSet
388 200 m 2
 388 133 388 87 353 46 c 0
 323 11 276 -6 216 -6 c 0
 168 -6 127 4 95 27 c 0
 62 50 35 90 35 142 c 0
 35 195 62 234 94 257 c 0
 141 291 197 291 236 291 c 2
 318 291 l 1
 318 322 318 362 294 389 c 0
 277 408 251 418 213 418 c 0
 169 418 125 408 83 392 c 1
 61 455 l 1
 108 472 159 484 213 484 c 0
 273 484 318 465 348 431 c 0
 388 386 388 327 388 274 c 2
 388 200 l 2
318 200 m 2
 318 229 l 1
 236 229 l 2
 202 229 166 229 138 209 c 0
 120 196 105 173 105 142 c 0
 105 114 119 92 137 79 c 0
 156 66 184 60 216 60 c 0
 253 60 282 68 299 88 c 0
 318 110 318 141 318 200 c 2
EndSplineSet
EndChar

StartChar: b
Encoding: 98 98 67
Width: 470
GlyphClass: 2
Flags: MW
HStem: -6 66<214.5 247 214.5 260> 418 66<221 259> 646 20G<55 125 125 125>
VStem: 55 70<232 256 423 666> 355 70<211.5 265>
LayerCount: 2
Fore
SplineSet
240 418 m 0
 202 418 173 404 155 383 c 0
 125 348 125 293 125 219 c 0
 125 166 125 123 149 94 c 0
 169 70 199 60 230 60 c 0
 264 60 298 72 320 96 c 0
 355 134 355 186 355 237 c 0
 355 293 355 348 325 383 c 0
 307 404 278 418 240 418 c 0
245 484 m 0
 304 484 351 460 380 425 c 0
 425 371 425 305 425 237 c 0
 425 176 425 106 369 49 c 0
 338 18 290 -6 230 -6 c 0
 167 -6 117 21 89 60 c 0
 55 107 55 157 55 232 c 2
 55 666 l 1
 125 666 l 1
 125 423 l 1
 152 461 196 484 245 484 c 0
EndSplineSet
EndChar

StartChar: c
Encoding: 99 99 68
Width: 419
GlyphClass: 2
Flags: MW
HStem: -6 66<215.5 254 215.5 260.5> 418 66<219.5 253>
VStem: 45 70<217.5 265 217.5 269>
LayerCount: 2
Fore
SplineSet
343 93 m 1
 379 37 l 1
 337 9 286 -6 235 -6 c 0
 171 -6 124.0625 18.0546875 93 53 c 0
 45 107 45 184 45 243 c 0
 45 295 45 370 92 424 c 0
 123 460 171 484 235 484 c 0
 283 484 331 471 372 445 c 1
 338 388 l 1
 308 407 271 418 235 418 c 0
 204 418 170 410 146 382 c 0
 115 346 115 287 115 243 c 0
 115 192 115 132 147 95 c 0
 166.015625 73.013671875 196 60 235 60 c 0
 273 60 311 71 343 93 c 1
EndSplineSet
EndChar

StartChar: d
Encoding: 100 100 69
Width: 470
GlyphClass: 2
Flags: MW
HStem: -6 66<223 255.5 223 271.5> 418 66<211 249> 646 20G<345 415 415 415>
VStem: 45 70<211.5 265 211.5 271> 345 70<194.5 232 232 256 423 666>
LayerCount: 2
Fore
SplineSet
225 484 m 0
 274 484 318 461 345 423 c 1
 345 666 l 1
 415 666 l 1
 415 232 l 2
 415 157 415 107 381 60 c 0
 353 21 303 -6 240 -6 c 0
 180 -6 132 18 101 49 c 0
 45 106 45 176 45 237 c 0
 45 305 45 371 90 425 c 0
 119 460 166 484 225 484 c 0
345 219 m 0
 345 293 345 348 315 383 c 0
 297 404 268 418 230 418 c 0
 192 418 163 404 145 383 c 0
 115 348 115 293 115 237 c 0
 115 186 115 134 150 96 c 0
 172 72 206 60 240 60 c 0
 271 60 301 70 321 94 c 0
 345 123 345 166 345 219 c 0
EndSplineSet
EndChar

StartChar: e
Encoding: 101 101 70
Width: 454
GlyphClass: 2
Flags: MW
HStem: -6 66<215 260.5 215 265> 218 62<116 208 116 208> 418 66<221.5 259.5>
VStem: 45 71<206.5 218 205 278> 344 70<334.5 346>
LayerCount: 2
Fore
SplineSet
139 102 m 0
 159 75 191 60 239 60 c 0
 282 60 325 70 361 89 c 1
 390 29 l 1
 343 5 291 -6 239 -6 c 0
 170 -6 115 19 83 62 c 0
 45 114 45 174 45 239 c 0
 45 317 45 363 81 413 c 0
 113 458 173 484 244 484 c 0
 294 484 334 471 364 447 c 0
 394 422 413 385 414 346 c 0
 414 302 392 268 364 248 c 0
 322 218 279 218 208 218 c 2
 116 218 l 1
 116 192 116 133 139 102 c 0
344 346 m 0
 343 365 333 385 318 397 c 0
 301 411 275 418 244 418 c 0
 199 418 163 405 141 379 c 0
 116 350 116 300 116 280 c 1
 208 280 l 2
 271 280 299 280 320 296 c 0
 333 306 344 323 344 346 c 0
EndSplineSet
EndChar

StartChar: f
Encoding: 102 102 71
Width: 313
GlyphClass: 2
Flags: MW
HStem: 0 21G<65 135 65 65> 416 62<135 255 135 255> 606 66<195 216.5>
VStem: 65 70<0 416 0 476 478 503.5>
LayerCount: 2
Fore
SplineSet
208 672 m 0
 236 672 261 666 285 660 c 1
 269 596 l 1
 245 602 225 606 208 606 c 0
 182 606 163 597 150 579 c 0
 135 558 135 529 135 478 c 1
 255 478 l 1
 255 416 l 1
 135 416 l 1
 135 0 l 1
 65 0 l 1
 65 476 l 2
 65 536 65 579 93 617 c 0
 116 648 152 672 208 672 c 0
EndSplineSet
EndChar

StartChar: g
Encoding: 103 103 72
Width: 470
GlyphClass: 2
Flags: MW
HStem: -189 66<199 244.5 199 253> -6 66<211 249 211 249.5> 418 66<213.5 250>
VStem: 45 70<213 269.5 213 272> 345 70<45 55 55 55 222 249>
LayerCount: 2
Fore
SplineSet
232 418 m 0
 195 418 165 405 147 385 c 0
 115 349 115 298 115 241 c 0
 115 185 115 130 145 95 c 0
 163 74 192 60 230 60 c 0
 268 60 297 74 315 95 c 0
 345 130 345 185 345 259 c 0
 345 312 345 354 321 382 c 0
 302 405 268 418 232 418 c 0
232 484 m 0
 278 484 336 470 375 424 c 0
 415 377 415 330 415 249 c 2
 415 45 l 2
 415 -26 415 -81 369 -131 c 0
 337 -166 286 -189 220 -189 c 0
 171 -189 118 -177 74 -153 c 1
 103 -93 l 1
 136 -111 178 -123 220 -123 c 0
 269 -123 302 -106 321 -82 c 0
 345 -52 345 -16 345 45 c 2
 345 55 l 1
 318 17 274 -6 225 -6 c 0
 166 -6 119 18 90 53 c 0
 45 107 45 173 45 241 c 0
 45 303 45 373 93 427 c 0
 124 461 172 484 232 484 c 0
EndSplineSet
EndChar

StartChar: h
Encoding: 104 104 73
Width: 470
GlyphClass: 2
Flags: MW
HStem: 0 21G<65 135 65 65 345 415 345 345> 418 66<223.5 256.5> 646 20G<65 135 135 135>
VStem: 65 70<0 256 428 666> 345 70<0 256 0 287>
LayerCount: 2
Fore
SplineSet
65 666 m 1
 135 666 l 1
 135 428 l 1
 158 461 198 484 245 484 c 0
 304 484 346 458 369 433 c 0
 415 384 415 326 415 256 c 2
 415 0 l 1
 345 0 l 1
 345 256 l 2
 345 318 345 360 316 389 c 0
 299 406 273 418 240 418 c 0
 207 418 181 406 164 389 c 0
 135 360 135 318 135 256 c 2
 135 0 l 1
 65 0 l 1
 65 666 l 1
EndSplineSet
EndChar

StartChar: i
Encoding: 105 105 74
Width: 200
GlyphClass: 2
Flags: MW
HStem: 0 21G<65 65 65 135> 555 94<86.5 113.5>
VStem: 53 94<588 616> 65 70<0 478 0 478>
LayerCount: 2
Fore
SplineSet
100 649 m 0xe0
 127 649 147 630 147 602 c 0
 147 574 127 555 100 555 c 0
 73 555 53 574 53 602 c 0
 53 630 73 649 100 649 c 0xe0
65 0 m 1xd0
 65 478 l 1
 135 478 l 1
 135 0 l 1
 65 0 l 1xd0
EndSplineSet
EndChar

StartChar: j
Encoding: 106 106 75
Width: 200
GlyphClass: 2
Flags: MW
HStem: -189 66<7.5 22 7.5 35.5> 555 94<86.5 113.5>
VStem: 53 94<588 616> 65 70<-14 478>
LayerCount: 2
Fore
SplineSet
135 -24 m 2xd0
 135 -78 135 -113 109 -146 c 0
 89 -171 57 -189 14 -189 c 0
 -12 -189 -36 -182 -56 -173 c 1
 -29 -112 l 1
 -15 -119 1 -123 14 -123 c 0
 30 -123 45 -118 55 -104 c 0
 65 -90 65 -72 65 -14 c 2
 65 478 l 1
 135 478 l 1
 135 -24 l 2xd0
100 649 m 0
 127 649 147 630 147 602 c 0
 147 574 127 555 100 555 c 0
 73 555 53 574 53 602 c 0xe0
 53 630 73 649 100 649 c 0
EndSplineSet
EndChar

StartChar: k
Encoding: 107 107 76
Width: 458
GlyphClass: 2
Flags: MW
HStem: 0 21G<65 135 65 65 338 423 338 338> 218 66<135 142 135 143.5> 647 20G<65 135 135 135>
VStem: 65 70<0 218 284 667>
LayerCount: 2
Fore
SplineSet
65 667 m 1
 135 667 l 1
 135 284 l 1
 149 284 162 284 175 294 c 0
 185 302 193 312 208 331 c 2
 322 477 l 1
 408 477 l 1
 266 294 l 2
 253 277 248 270 238 260 c 1
 423 0 l 1
 338 0 l 1
 180 223 l 1
 166 219 152 218 135 218 c 1
 135 0 l 1
 65 0 l 1
 65 667 l 1
EndSplineSet
EndChar

StartChar: l
Encoding: 108 108 77
Width: 200
GlyphClass: 2
Flags: MW
HStem: 0 21G<65 135 65 65> 647 20G<65 135 135 135>
VStem: 65 70<0 667 0 667>
LayerCount: 2
Fore
SplineSet
65 667 m 1
 135 667 l 1
 135 0 l 1
 65 0 l 1
 65 667 l 1
EndSplineSet
EndChar

StartChar: m
Encoding: 109 109 78
Width: 700
GlyphClass: 2
Flags: MW
HStem: 0 21G<55 125 55 55 315 385 315 315 575 645 575 575> 418 66<206.5 233.5 466.5 493.5>
VStem: 55 70<0 256 0 293.5> 315 70<0 256 0 289> 575 70<0 256 0 289>
CounterMasks: 1 38
LayerCount: 2
Fore
SplineSet
220 484 m 0
 277 484 323 459 350 414 c 1
 377 459 423 484 480 484 c 0
 527 484 568 467 595 441 c 0
 645 393 645 331 645 256 c 2
 645 0 l 1
 575 0 l 1
 575 256 l 2
 575 322 575 367 545 395 c 0
 530 409 507 418 480 418 c 0
 453 418 430 409 415 395 c 0
 385 367 385 322 385 256 c 2
 385 0 l 1
 315 0 l 1
 315 256 l 2
 315 322 315 367 285 395 c 0
 270 409 247 418 220 418 c 0
 193 418 170 409 155 395 c 0
 125 367 125 322 125 256 c 2
 125 0 l 1
 55 0 l 1
 55 256 l 2
 55 331 55 393 105 441 c 0
 132 467 173 484 220 484 c 0
EndSplineSet
EndChar

StartChar: n
Encoding: 110 110 79
Width: 460
GlyphClass: 2
Flags: MW
HStem: 0 21G<55 125 55 55 335 405 335 335> 418 66<213.5 246.5>
VStem: 55 70<0 256 0 291> 335 70<0 256 0 287>
LayerCount: 2
Fore
SplineSet
230 484 m 0
 291 484 334 458 358 433 c 0
 405 384 405 326 405 256 c 2
 405 0 l 1
 335 0 l 1
 335 256 l 2
 335 318 335 360 306 389 c 0
 289 406 263 418 230 418 c 0
 197 418 171 406 154 389 c 0
 125 360 125 318 125 256 c 2
 125 0 l 1
 55 0 l 1
 55 256 l 2
 55 326 55 384 102 433 c 0
 126 458 169 484 230 484 c 0
EndSplineSet
EndChar

StartChar: o
Encoding: 111 111 80
Width: 470
GlyphClass: 2
Flags: MW
HStem: -6 66<213 257 213 270.5> 418 66<213 257>
VStem: 45 70<213.5 264.5 213.5 267.5> 355 70<213.5 264.5>
LayerCount: 2
Fore
SplineSet
235 418 m 0
 191 418 157 400 137 370 c 0
 115 337 115 290 115 239 c 0
 115 188 115 141 137 108 c 0
 157 78 191 60 235 60 c 0
 279 60 313 78 333 108 c 0
 355 141 355 188 355 239 c 0
 355 290 355 337 333 370 c 0
 313 400 279 418 235 418 c 0
235 484 m 0
 306 484 364 452 396 399 c 0
 425 351 425 296 425 239 c 0
 425 182 425 127 396 79 c 0
 364 26 306 -6 235 -6 c 0
 164 -6 106 26 74 79 c 0
 45 127 45 182 45 239 c 0
 45 296 45 351 74 399 c 0
 106 452 164 484 235 484 c 0
EndSplineSet
EndChar

StartChar: p
Encoding: 112 112 81
Width: 470
GlyphClass: 2
Flags: MW
HStem: -6 66<221 259 221 274.5> 418 66<220 256.5>
VStem: 55 70<-183 55 222 249 249 285.5> 355 70<213 269.5>
LayerCount: 2
Fore
SplineSet
238 418 m 0
 202 418 168 405 149 382 c 0
 125 354 125 312 125 259 c 0
 125 185 125 130 155 95 c 0
 173 74 202 60 240 60 c 0
 278 60 307 74 325 95 c 0
 355 130 355 185 355 241 c 0
 355 298 355 349 323 385 c 0
 305 405 275 418 238 418 c 0
238 484 m 0
 298 484 346 461 377 427 c 0
 425 373 425 303 425 241 c 0
 425 173 425 107 380 53 c 0
 351 18 304 -6 245 -6 c 0
 196 -6 152 17 125 55 c 1
 125 -183 l 1
 55 -183 l 1
 55 249 l 2
 55 330 55 377 95 424 c 0
 134 470 192 484 238 484 c 0
EndSplineSet
EndChar

StartChar: q
Encoding: 113 113 82
Width: 470
GlyphClass: 2
Flags: MW
HStem: -6 66<211 249 211 249.5> 418 66<213.5 250>
VStem: 45 70<213 269.5 213 272> 345 70<-183 55 55 55 222 249 -183 285.5>
LayerCount: 2
Fore
SplineSet
232 418 m 0
 195 418 165 405 147 385 c 0
 115 349 115 298 115 241 c 0
 115 185 115 130 145 95 c 0
 163 74 192 60 230 60 c 0
 268 60 297 74 315 95 c 0
 345 130 345 185 345 259 c 0
 345 312 345 354 321 382 c 0
 302 405 268 418 232 418 c 0
232 484 m 0
 278 484 336 470 375 424 c 0
 415 377 415 330 415 249 c 2
 415 -183 l 1
 345 -183 l 1
 345 55 l 1
 318 17 274 -6 225 -6 c 0
 166 -6 119 18 90 53 c 0
 45 107 45 173 45 241 c 0
 45 303 45 373 93 427 c 0
 124 461 172 484 232 484 c 0
EndSplineSet
EndChar

StartChar: r
Encoding: 114 114 83
Width: 338
GlyphClass: 2
Flags: MW
HStem: 0 21G<55 125 55 55> 418 66<220 246.5>
VStem: 55 70<0 249 0 289.5>
LayerCount: 2
Fore
SplineSet
238 484 m 0
 263 484 286 480 306 473 c 1
 285 410 l 1
 271 415 255 418 238 418 c 0
 202 418 168 405 149 382 c 0
 125 354 125 312 125 249 c 2
 125 0 l 1
 55 0 l 1
 55 249 l 2
 55 330 55 377 95 424 c 0
 134 470 192 484 238 484 c 0
EndSplineSet
EndChar

StartChar: s
Encoding: 115 115 84
Width: 408
GlyphClass: 2
Flags: MW
HStem: -6 66<176 213.5 176 222> 418 66<186.5 219>
VStem: 40 70<343.5 365 343.5 377> 298 70<121.5 141.5>
LayerCount: 2
Fore
SplineSet
345 451 m 1
 319 390 l 1
 281 408 239 418 199 418 c 0
 174 418 156 414 139 404 c 0
 122 394 110 376 110 354 c 0
 110 333 121 316 135 305 c 0
 155 289 176 284 212 276 c 0
 248 268 281 259 309 239 c 0
 340 217 368 180 368 130 c 0
 368 85 345 48 314 26 c 0
 283 4 245 -6 199 -6 c 0
 145 -6 89 5 38 29 c 1
 66 89 l 1
 107 70 153 60 199 60 c 0
 228 60 253 65 272 79 c 0
 291 93 298 113 298 130 c 0
 298 153 286 172 270 184 c 0
 248 200 223 206 191 213 c 0
 159 220 123 229 93 252 c 0
 63 275 40 311 40 354 c 0
 40 400 65 435 94 455 c 0
 123 475 158 484 199 484 c 0
 250 484 300 472 345 451 c 1
EndSplineSet
EndChar

StartChar: t
Encoding: 116 116 85
Width: 314
GlyphClass: 2
Flags: MW
HStem: -6 66<180 200.5 180 209> 416 62<130 250 130 250>
VStem: 60 70<170 416 478 591>
LayerCount: 2
Fore
SplineSet
130 170 m 2
 130 116 130 98 144 80 c 0
 154 68 169 60 191 60 c 0
 210 60 233 67 256 79 c 1
 286 20 l 1
 259 6 227 -6 191 -6 c 0
 147 -6 110 12 88 40 c 0
 60 75 60 113 60 170 c 2
 60 591 l 1
 130 591 l 1
 130 478 l 1
 250 478 l 1
 250 416 l 1
 130 416 l 1
 130 170 l 2
EndSplineSet
EndChar

StartChar: u
Encoding: 117 117 86
Width: 460
GlyphClass: 2
Flags: MW
HStem: -6 66<213.5 246.5 213.5 260.5>
VStem: 55 70<222 478> 335 70<222 478>
LayerCount: 2
Fore
SplineSet
55 478 m 1
 125 478 l 1
 125 222 l 2
 125 160 125 118 154 89 c 0
 171 72 197 60 230 60 c 0
 263 60 289 72 306 89 c 0
 335 118 335 160 335 222 c 2
 335 478 l 1
 405 478 l 1
 405 222 l 2
 405 152 405 94 358 45 c 0
 334 20 291 -6 230 -6 c 0
 169 -6 126 20 102 45 c 0
 55 94 55 152 55 222 c 2
 55 478 l 1
EndSplineSet
EndChar

StartChar: v
Encoding: 118 118 87
Width: 422
GlyphClass: 2
Flags: MW
HStem: -6 66<207 215 207 223.5>
LayerCount: 2
Fore
SplineSet
87 478 m 1
 174 118 l 2
 180 92 184 77 190 70 c 0
 195 64 203 60 211 60 c 0
 219 60 227 64 232 70 c 0
 238 77 242 92 248 118 c 2
 335 478 l 1
 407 478 l 1
 318 111 l 2
 307 65 302 39 274 16 c 0
 258 3 236 -6 211 -6 c 0
 186 -6 164 3 148 16 c 0
 120 39 115 65 104 111 c 2
 15 478 l 1
 87 478 l 1
407 478 m 1024
EndSplineSet
EndChar

StartChar: w
Encoding: 119 119 88
Width: 700
GlyphClass: 2
Flags: MW
HStem: -6 66<206.5 233.5 206.5 248.5 466.5 493.5>
VStem: 55 70<222 478> 315 70<222 478> 575 70<222 478>
CounterMasks: 1 70
LayerCount: 2
Fore
SplineSet
220 -6 m 0
 173 -6 132 11 105 37 c 0
 55 85 55 147 55 222 c 2
 55 478 l 1
 125 478 l 1
 125 222 l 2
 125 156 125 111 155 83 c 0
 170 69 193 60 220 60 c 0
 247 60 270 69 285 83 c 0
 315 111 315 156 315 222 c 2
 315 478 l 1
 385 478 l 1
 385 222 l 2
 385 156 385 111 415 83 c 0
 430 69 453 60 480 60 c 0
 507 60 530 69 545 83 c 0
 575 111 575 156 575 222 c 2
 575 478 l 1
 645 478 l 1
 645 222 l 2
 645 147 645 85 595 37 c 0
 568 11 527 -6 480 -6 c 0
 423 -6 377 19 350 64 c 1
 323 19 277 -6 220 -6 c 0
EndSplineSet
EndChar

StartChar: x
Encoding: 120 120 89
Width: 452
GlyphClass: 2
Flags: MW
HStem: 0 21G<40 117 40 40 333 412 333 333>
LayerCount: 2
Fore
SplineSet
43 478 m 1
 122 478 l 1
 226 296 l 1
 332 478 l 1
 409 478 l 1
 265 241 l 1
 412 0 l 1
 333 0 l 1
 226 187 l 1
 117 0 l 1
 40 0 l 1
 187 241 l 1
 43 478 l 1
EndSplineSet
EndChar

StartChar: y
Encoding: 121 121 90
Width: 418
GlyphClass: 2
Flags: MW
HStem: -189 66<137.5 154.5 137.5 166>
LayerCount: 2
Fore
SplineSet
15 478 m 1
 88 478 l 1
 182 156 l 2
 197 104 204 82 210 73 c 0
 216 64 226 62 236 61 c 1
 326 478 l 1
 398 478 l 1
 283 -41 l 2
 272 -90 264 -121 242 -146 c 0
 221 -170 187 -189 145 -189 c 0
 123 -189 100 -184 78 -176 c 1
 99 -114 l 1
 115 -120 130 -123 145 -123 c 0
 164 -123 177 -117 188 -106 c 0
 202 -92 208 -69 222 -4 c 1
 194 0 171 13 157 31 c 0
 142 51 138 69 116 141 c 2
 15 478 l 1
EndSplineSet
EndChar

StartChar: z
Encoding: 122 122 91
Width: 414
GlyphClass: 2
Flags: MW
HStem: 0 66<158.5 367 185 367> 412 66<57 249 57 249>
VStem: 35 70<89.5 104.5 89.5 119> 299 70<373.5 390>
LayerCount: 2
Fore
SplineSet
57 412 m 1
 57 478 l 1
 249 478 l 2
 275 478 305 478 335 454 c 0
 358 436 369 410 369 384 c 0
 369 335 335 305 285 264 c 2
 173 171 l 2
 127 133 105 115 105 94 c 0
 105 85 109 78 114 74 c 0
 124 66 142 66 185 66 c 2
 367 66 l 1
 367 0 l 1
 185 0 l 2
 132 0 86 0 55 37 c 0
 42 53 35 73 35 94 c 0
 35 144 69 171 128 221 c 2
 239 314 l 2
 279 347 299 363 299 384 c 0
 299 396 293 402 287 406 c 0
 278 412 259 412 249 412 c 2
 57 412 l 1
EndSplineSet
EndChar

StartChar: braceleft
Encoding: 123 123 92
Width: 336
GlyphClass: 2
Flags: MW
VStem: 141 60<-14 24.5 -14 24.5 571 609>
LayerCount: 2
Fore
SplineSet
130 298 m 1
 156 277 172 255 185 226 c 0
 199 194 205 160 205 117 c 0
 205 80 201 43 201 6 c 0
 201 -34 206 -64 224 -96 c 0
 239 -123 263 -141 286 -149 c 1
 266 -201 l 1
 225 -187 192 -158 172 -124 c 0
 150 -86 141 -47 141 6 c 0
 141 43 145 80 145 117 c 0
 145 153 141 183 124 215 c 0
 111 240 89 261 60 271 c 1
 60 325 l 1
 89 335 111 356 124 381 c 0
 141 413 145 443 145 479 c 0
 145 516 141 553 141 589 c 0
 141 642 150 681 172 719 c 0
 192 753 225 782 266 796 c 1
 286 744 l 1
 263 736 239 718 224 691 c 0
 206 659 201 629 201 589 c 0
 201 553 205 516 205 479 c 0
 205 436 199 402 185 370 c 0
 172 341 156 319 130 298 c 1
EndSplineSet
EndChar

StartChar: bar
Encoding: 124 124 93
Width: 230
GlyphClass: 2
Flags: MW
VStem: 85 60<-145 740 -145 740>
LayerCount: 2
Fore
SplineSet
85 740 m 1
 145 740 l 1
 145 -145 l 1
 85 -145 l 1
 85 740 l 1
EndSplineSet
EndChar

StartChar: braceright
Encoding: 125 125 94
Width: 336
GlyphClass: 2
Flags: MW
VStem: 135 60<-14 24.5 571 609>
LayerCount: 2
Fore
SplineSet
206 298 m 1
 180 319 164 341 151 370 c 0
 137 402 131 436 131 479 c 0
 131 516 135 553 135 589 c 0
 135 629 130 659 112 691 c 0
 97 718 73 736 50 744 c 1
 70 796 l 1
 111 782 144 753 164 719 c 0
 186 681 195 642 195 589 c 0
 195 553 191 516 191 479 c 0
 191 443 195 413 212 381 c 0
 225 356 247 335 276 325 c 1
 276 271 l 1
 247 261 225 240 212 215 c 0
 195 183 191 153 191 117 c 0
 191 80 195 43 195 6 c 0
 195 -47 186 -86 164 -124 c 0
 144 -158 111 -187 70 -201 c 1
 50 -149 l 1
 73 -141 97 -123 112 -96 c 0
 130 -64 135 -34 135 6 c 0
 135 43 131 80 131 117 c 0
 131 160 137 194 151 226 c 0
 164 255 180 277 206 298 c 1
EndSplineSet
EndChar

StartChar: asciitilde
Encoding: 126 126 95
Width: 520
GlyphClass: 2
Flags: MW
HStem: 188 60<338 365 338 380> 252 60<155 182>
VStem: 54 60<211 223> 406 60<277 289>
LayerCount: 2
Fore
SplineSet
114 211 m 1
 54 223 l 1
 65 273 111 312 169 312 c 0
 216 312 252 289 276 276 c 0
 302 261 325 248 351 248 c 0
 379 248 401 267 406 289 c 1
 466 277 l 1
 455 227 409 188 351 188 c 0
 304 188 268 211 244 224 c 0
 218 239 195 252 169 252 c 0
 141 252 119 233 114 211 c 1
EndSplineSet
EndChar

StartChar: exclamdown
Encoding: 161 161 97
Width: 260
GlyphClass: 2
Flags: MW
HStem: 387 102<115 145>
VStem: 79 102<423 453> 92 74<-183 11 -183 101>
LayerCount: 2
Fore
SplineSet
130 387 m 0xc0
 100 387 79 408 79 438 c 0
 79 468 100 489 130 489 c 0
 160 489 181 468 181 438 c 0
 181 408 160 387 130 387 c 0xc0
92 -183 m 1xa0
 92 11 l 2
 92 191 102 314 102 314 c 1
 156 314 l 1
 156 314 166 191 166 11 c 2
 166 -183 l 1
 92 -183 l 1xa0
EndSplineSet
EndChar

StartChar: cent
Encoding: 162 162 98
Width: 450
GlyphClass: 2
Flags: MW
HStem: -5 66<230 230 230 280> 416 66<230 230 230 280>
VStem: 55 70<202 275> 230 50<-86 -5 -86 -5 61 416 482 563>
LayerCount: 2
Fore
SplineSet
230 563 m 1
 280 563 l 1
 280 482 l 1
 322 479 362 467 399 448 c 1
 370 388 l 1
 341 403 311 412 280 416 c 1
 280 61 l 1
 312 65 343 74 372 90 c 1
 405 32 l 1
 366 11 324 -1 280 -5 c 1
 280 -86 l 1
 230 -86 l 1
 230 -5 l 1
 180 -1 134 19 103 52 c 0
 55 103 55 164 55 202 c 2
 55 275 l 2
 55 316 55 374 103 425 c 0
 134 458 180 478 230 482 c 1
 230 563 l 1
151 376 m 0
 125 344 125 308 125 275 c 2
 125 202 l 2
 125 173 125 127 155 96 c 0
 173 77 200 65 230 61 c 1
 230 416 l 1
 195 413 168 396 151 376 c 0
EndSplineSet
EndChar

StartChar: sterling
Encoding: 163 163 99
Width: 548
GlyphClass: 2
Flags: MW
HStem: 0 70<156 488 156 488> 292 61<60 120 60 120 194 418> 602 70<295 332>
VStem: 120 74<245.686 292 245.686 292 353 435>
LayerCount: 2
Fore
SplineSet
120 435 m 2
 120 502 120 556 160 605 c 0
 194 647 250 672 315 672 c 0
 360 672 407 662 449 630 c 1
 409 572 l 1
 384 592 349 602 315 602 c 0
 275 602 241 588 221 565 c 0
 194 534 194 497 194 435 c 2
 194 353 l 1
 418 353 l 1
 418 292 l 1
 194 292 l 1
 194 199.372070312 188 139 156 70 c 1
 488 70 l 1
 488 0 l 1
 60 0 l 1
 60 50 l 1
 109 121 120 180.11328125 120 292 c 1
 60 292 l 1
 60 353 l 1
 120 353 l 1
 120 435 l 2
EndSplineSet
EndChar

StartChar: currency
Encoding: 164 164 100
Width: 626
GlyphClass: 2
Flags: MW
HStem: 59 70<286 340> 449 70<286 340 286 361.5>
VStem: 81 74<262 316> 471 74<262 316 262 340>
LayerCount: 2
Fore
SplineSet
155 289 m 0
 155 187 216 129 313 129 c 0
 410 129 471 187 471 289 c 0
 471 391 410 449 313 449 c 0
 216 449 155 391 155 289 c 0
60 491 m 1
 111 542 l 1
 174 477 l 1
 212 502 259 519 313 519 c 0
 367 519 414 502 452 477 c 1
 515 542 l 1
 566 491 l 1
 503 428 l 1
 530 390 545 343 545 289 c 0
 545 235 530 188 503 150 c 1
 566 87 l 1
 515 36 l 1
 452 99 l 1
 414 74 367 59 313 59 c 0
 259 59 212 74 174 99 c 1
 111 36 l 1
 60 87 l 1
 123 150 l 1
 96 188 81 235 81 289 c 0
 81 343 96 390 123 428 c 1
 60 491 l 1
EndSplineSet
EndChar

StartChar: yen
Encoding: 165 165 101
Width: 571
GlyphClass: 2
Flags: MW
HStem: 0 21G<248 322 248 248> 243 56<105 238 105 248 105 238 332 465> 368 56<95 173 95 203 95 173 397 475> 646 20G<50 129 129 129 444 521 521 521>
VStem: 248 74<0 243 0 243>
LayerCount: 2
Fore
SplineSet
50 666 m 1
 129 666 l 1
 285 346 l 1
 444 666 l 1
 521 666 l 1
 397 424 l 1
 475 424 l 1
 475 368 l 1
 367 368 l 1
 332 299 l 1
 465 299 l 1
 465 243 l 1
 322 243 l 1
 322 0 l 1
 248 0 l 1
 248 243 l 1
 105 243 l 1
 105 299 l 1
 238 299 l 1
 203 368 l 1
 95 368 l 1
 95 424 l 1
 173 424 l 1
 50 666 l 1
EndSplineSet
EndChar

StartChar: brokenbar
Encoding: 166 166 102
Width: 232
GlyphClass: 2
Flags: MW
HStem: 0 21G<85 147 85 85> 646 20G<85 147 147 147>
VStem: 85 62<0 264 0 264 404 666>
LayerCount: 2
Fore
SplineSet
85 264 m 1
 147 264 l 1
 147 0 l 1
 85 0 l 1
 85 264 l 1
85 666 m 1
 147 666 l 1
 147 404 l 1
 85 404 l 1
 85 666 l 1
EndSplineSet
EndChar

StartChar: section
Encoding: 167 167 103
Width: 468
GlyphClass: 2
Flags: MW
HStem: -6 66<206.5 259.5 206.5 267> 607 66<201 250>
VStem: 65 70<331.5 369 331.5 376 521.5 565> 333 70<109 156 83 162 310.5 352>
LayerCount: 2
Fore
SplineSet
97 94 m 1
 139 73 184 60 229 60 c 0
 290 60 333 84 333 134 c 0
 333 190 288 204 222 218 c 0
 167 229 65 253 65 354 c 0
 65 398 85 429 113 449 c 1
 85 469 65 499 65 544 c 0
 65 641 160 673 229 673 c 0
 283 673 335 660 383 639 c 1
 353 579 l 1
 313 597 271 607 229 607 c 0
 173 607 135 586 135 544 c 0
 135 499 175 485 236 472 c 0
 297 460 403 435 403 324 c 0
 403 283 387 252 363 230 c 1
 386 208 403 178 403 134 c 0
 403 32 305 -6 229 -6 c 0
 170 -6 114 11 63 36 c 1
 97 94 l 1
163 424 m 1
 144 408 135 384 135 354 c 0
 135 309 175 295 236 282 c 0
 259 278 287 271 314 260 c 1
 327 276 333 297 333 324 c 0
 333 380 288 394 222 408 c 0
 205 411 184 416 163 424 c 1
EndSplineSet
EndChar

StartChar: dieresis
Encoding: 168 168 104
Width: 374
GlyphClass: 4
Flags: MW
HStem: 550 94<83 111 263 291>
VStem: 50 94<583 611> 230 94<583 611>
LayerCount: 2
Fore
SplineSet
277 644 m 0
 305 644 324 625 324 597 c 0
 324 569 305 550 277 550 c 0
 249 550 230 569 230 597 c 0
 230 625 249 644 277 644 c 0
97 644 m 0
 125 644 144 625 144 597 c 0
 144 569 125 550 97 550 c 0
 69 550 50 569 50 597 c 0
 50 625 69 644 97 644 c 0
EndSplineSet
EndChar

StartChar: copyright
Encoding: 169 169 105
Width: 820
GlyphClass: 2
Flags: MW
HStem: -185 62<317 462 358 462> -6 66<401 436 401 443.5> 417 66<401.5 433> 605 62<319 462 358 462>
VStem: 75 66<96 386> 252 70<196 281> 679 66<96 386>
LayerCount: 2
Fore
SplineSet
462 -123 m 2
 540 -123 602 -123 643 -75 c 0
 679 -33 679 21 679 96 c 2
 679 386 l 2
 679 461 679 515 643 557 c 0
 602 605 540 605 462 605 c 2
 358 605 l 2
 280 605 218 605 177 557 c 0
 141 515 141 461 141 386 c 2
 141 96 l 2
 141 21 141 -33 177 -75 c 0
 218 -123 280 -123 358 -123 c 2
 462 -123 l 2
462 667 m 2
 544 667 629 667 690 601 c 0
 745 541 745 469 745 386 c 2
 745 96 l 2
 745 13 745 -59 690 -119 c 0
 629 -185 544 -185 462 -185 c 2
 358 -185 l 2
 276 -185 191 -185 130 -119 c 0
 75 -59 75 13 75 96 c 2
 75 386 l 2
 75 469 75 541 130 601 c 0
 191 667 276 667 358 667 c 2
 462 667 l 2
292 42 m 0
 252 84 252 131 252 196 c 2
 252 281 l 2
 252 342 252 391 292 434 c 0
 320 464 364 483 417 483 c 0
 462 483 507 470 542 443 c 1
 503 388 l 1
 480 407 449 417 417 417 c 0
 386 417 360 407 344 390 c 0
 322 366 322 338 322 281 c 2
 322 196 l 2
 322 138 322 112 343 88 c 0
 358 70 385 60 417 60 c 0
 455 60 488 73 509 92 c 1
 552 41 l 1
 518 10 470 -6 417 -6 c 0
 364 -6 320 13 292 42 c 0
EndSplineSet
EndChar

StartChar: ordfeminine
Encoding: 170 170 106
Width: 458
GlyphClass: 2
Flags: MW
HStem: 254 66<210.5 248.5 210.5 260> 489 62<238.5 333 268 333> 678 66<197 239>
VStem: 40 70<389.5 416.5 389.5 425> 333 70<465 489 489 489>
LayerCount: 2
Fore
SplineSet
218 744 m 0
 280 744 333 722 368 675 c 0
 403 628 403 571 403 500 c 2
 403 465 l 2
 403 397 403 358 376 318 c 0
 346 274 293 254 227 254 c 0
 180 254 136 263 101 287 c 0
 67 310 40 352 40 402 c 0
 40 448 62 488 98 515 c 0
 146 551 206 551 268 551 c 2
 333 551 l 1
 333 570 332 608 311 637 c 0
 291 664 260 678 218 678 c 0
 176 678 133 665 89 647 c 1
 64 708 l 1
 111 728 161 744 218 744 c 0
268 489 m 2
 209 489 171 489 141 466 c 0
 124 453 110 431 110 402 c 0
 110 377 122 356 139 343 c 0
 163 325 194 320 227 320 c 0
 270 320 300 330 318 355 c 0
 333 376 333 408 333 465 c 2
 333 489 l 1
 268 489 l 2
EndSplineSet
EndChar

StartChar: guillemotleft
Encoding: 171 171 107
Width: 484
GlyphClass: 2
Flags: W
LayerCount: 2
Fore
SplineSet
386 449 m 1
 434 413 l 1
 305 250 l 1
 434 87 l 1
 386 51 l 1
 230 250 l 1
 386 449 l 1
206 449 m 1
 254 413 l 1
 125 250 l 1
 254 87 l 1
 206 51 l 1
 50 250 l 1
 206 449 l 1
EndSplineSet
EndChar

StartChar: logicalnot
Encoding: 172 172 108
Width: 520
GlyphClass: 2
Flags: MW
HStem: 221 58<80 380 80 80>
VStem: 380 60<70 221 221 221>
LayerCount: 2
Fore
SplineSet
80 279 m 1
 440 280 l 1
 440 70 l 1
 380 70 l 1
 380 221 l 1
 80 221 l 1
 80 279 l 1
EndSplineSet
EndChar

StartChar: uni00AD
Encoding: 173 173 109
Width: 370
GlyphClass: 2
Flags: MW
HStem: 221 58<80 290 80 290>
VStem: 80 210<221 279 221 279>
LayerCount: 2
Fore
SplineSet
80 279 m 1
 290 279 l 1
 290 221 l 1
 80 221 l 1
 80 279 l 1
EndSplineSet
EndChar

StartChar: registered
Encoding: 174 174 110
Width: 820
GlyphClass: 2
Flags: MW
HStem: -183 62<317 462 358 462> 0 21G<262 332 262 262 496 571 496 496> 173 66<332 393 332 393> 412 66<332 393 332 332> 604 62<319 462 358 462>
VStem: 75 66<98 385> 262 70<0 173 239 412> 491 70<311 340.5> 679 66<98 385>
LayerCount: 2
Fore
SplineSet
462 -121 m 2
 540 -121 602 -121 643 -73 c 0
 679 -31 679 23 679 98 c 2
 679 385 l 2
 679 460 679 514 643 556 c 0
 602 604 540 604 462 604 c 2
 358 604 l 2
 280 604 218 604 177 556 c 0
 141 514 141 460 141 385 c 2
 141 98 l 2
 141 23 141 -31 177 -73 c 0
 218 -121 280 -121 358 -121 c 2
 462 -121 l 2
462 666 m 2
 544 666 629 666 690 600 c 0
 745 540 745 468 745 385 c 2
 745 98 l 2
 745 15 745 -57 690 -117 c 0
 629 -183 544 -183 462 -183 c 2
 358 -183 l 2
 276 -183 191 -183 130 -117 c 0
 75 -57 75 15 75 98 c 2
 75 385 l 2
 75 468 75 540 130 600 c 0
 191 666 276 666 358 666 c 2
 462 666 l 2
393 239 m 2
 415 239 442 239 464 258 c 0
 480 272 491 296 491 326 c 0
 491 355 480 379 464 393 c 0
 442 412 415 412 393 412 c 2
 332 412 l 1
 332 239 l 1
 393 239 l 2
488 193 m 1
 571 0 l 1
 496 0 l 1
 421 174 l 1
 411 173 402 173 393 173 c 2
 332 173 l 1
 332 0 l 1
 262 0 l 1
 262 478 l 1
 393 478 l 2
 423 478 469 478 512 441 c 0
 542 415 561 372 561 326 c 0
 561 263 530 217 488 193 c 1
EndSplineSet
EndChar

StartChar: macron
Encoding: 175 175 111
Width: 370
GlyphClass: 4
Flags: MW
HStem: 556 56<50 320 50 320>
VStem: 50 270<556 612 556 612>
LayerCount: 2
Fore
SplineSet
50 612 m 1
 320 612 l 1
 320 556 l 1
 50 556 l 1
 50 612 l 1
EndSplineSet
EndChar

StartChar: degree
Encoding: 176 176 112
Width: 324
GlyphClass: 2
Flags: MW
HStem: 449 54<145 179.5 145 195.5> 619 54<145 179.5>
VStem: 50 54<543.5 578.5 543.5 594.5> 220 54<543.5 578.5>
LayerCount: 2
Fore
SplineSet
162 673 m 0
 229 673 274 628 274 561 c 0
 274 494 229 449 162 449 c 0
 95 449 50 494 50 561 c 0
 50 628 95 673 162 673 c 0
162 619 m 0
 128 619 104 596 104 561 c 0
 104 526 128 503 162 503 c 0
 197 503 220 526 220 561 c 0
 220 596 197 619 162 619 c 0
EndSplineSet
EndChar

StartChar: plusminus
Encoding: 177 177 113
Width: 520
GlyphClass: 2
Flags: MW
HStem: 95 58<80 440 80 440> 294 58<80 230 80 230 290 440>
VStem: 230 60<203 294 203 294 352 443>
LayerCount: 2
Fore
SplineSet
230 443 m 1
 290 443 l 1
 290 352 l 1
 440 352 l 1
 440 294 l 1
 290 294 l 1
 290 203 l 1
 230 203 l 1
 230 294 l 1
 80 294 l 1
 80 352 l 1
 230 352 l 1
 230 443 l 1
80 153 m 1
 440 153 l 1
 440 95 l 1
 80 95 l 1
 80 153 l 1
EndSplineSet
EndChar

StartChar: uni00B2
Encoding: 178 178 114
Width: 377
GlyphClass: 2
Flags: MW
HStem: 260 66<144 327 144 327> 678 66<160.5 185.5>
VStem: 252 70<593.5 620>
LayerCount: 2
Fore
SplineSet
102 655 m 1
 61 708 l 1
 97 735 142 744 174 744 c 0
 216 744 247 733 273 713 c 0
 302 690 322 654 322 609 c 0
 322 566 310 542 269 488 c 2
 144 326 l 1
 327 326 l 1
 327 260 l 1
 50 260 l 1
 50 315 l 1
 211 525 l 2
 244 568 252 579 252 608 c 0
 252 632 242 651 229 662 c 0
 216 673 197 678 174 678 c 0
 147 678 121 670 102 655 c 1
EndSplineSet
EndChar

StartChar: uni00B3
Encoding: 179 179 115
Width: 364
GlyphClass: 2
Flags: MW
HStem: 254 66<145.5 174 145.5 180> 473 66<126 135 126 135> 678 66<148.5 173>
VStem: 241 70<599 621.5> 249 70<382.5 407>
LayerCount: 2
Fore
SplineSet
89 655 m 1xf0
 48 708 l 1
 82 733 123 744 162 744 c 0
 196 744 233 736 263 712 c 0
 290 690 311 655 311 610 c 0xf0
 311 572 296 536 260 508 c 1
 300 480 319 438 319 395 c 0
 319 348 297 311 269 289 c 0
 238 263 198 254 162 254 c 0
 114 254 72 268 40 295 c 1
 83 346 l 1
 101 330 129 320 162 320 c 0
 186 320 209 326 224 338 c 0
 238 350 249 370 249 395 c 0xe8
 249 419 239 441 223 455 c 0
 206 470 188 473 135 473 c 2
 126 473 l 1
 126 539 l 1
 135 539 l 2
 185 539 201 542 217 555 c 0
 231 567 241 588 241 610 c 0
 241 633 231 651 217 662 c 0
 204 672 184 678 162 678 c 0
 135 678 108 670 89 655 c 1xf0
EndSplineSet
EndChar

StartChar: acute
Encoding: 180 180 116
Width: 336
GlyphClass: 2
Flags: MW
HStem: 456 210<50 286 50 286>
VStem: 50 236<456 666>
LayerCount: 2
Fore
SplineSet
204 666 m 1
 286 666 l 1
 121 456 l 1
 50 456 l 1
 204 666 l 1
EndSplineSet
EndChar

StartChar: mu
Encoding: 181 181 117
Width: 485
GlyphClass: 2
Flags: MW
HStem: -6 66<229 261 229 275.5>
VStem: 65 70<-183 48 198.5 232 232 478> 355 70<232 478>
LayerCount: 2
Fore
SplineSet
250 -6 m 0
 208 -6 164 12 135 48 c 1
 135 -183 l 1
 65 -183 l 1
 65 478 l 1
 135 478 l 1
 135 232 l 2
 135 165 135 126 163 94 c 0
 183.071289062 71.0615234375 213 60 245 60 c 0
 277 60 307 71 327 94 c 0
 354.901367188 126.0859375 355 165 355 232 c 2
 355 478 l 1
 425 478 l 1
 425 232 l 2
 425 158 425 104 383 53 c 0
 350.9296875 14.0576171875 301 -6 250 -6 c 0
EndSplineSet
EndChar

StartChar: paragraph
Encoding: 182 182 118
Width: 525
GlyphClass: 2
Flags: MW
HStem: 0 21G<198 272 198 198 376 450 376 376> 596 70<341.5 376>
VStem: 60 212<424.5 477.5> 198 74<0 250 250 250> 376 74<0 596 596 596>
LayerCount: 2
Fore
SplineSet
341 666 m 2xe8
 450 666 l 1
 450 0 l 1
 376 0 l 1
 376 596 l 1
 307 596 272 594 272 594 c 1
 272 0 l 1
 198 0 l 1
 198 250 l 1xd8
 173 258 149 271 127 291 c 0
 78 335 60 398 60 451 c 0
 60 504 78 567 127 611 c 0
 188 666 262 666 341 666 c 2xe8
EndSplineSet
EndChar

StartChar: periodcentered
Encoding: 183 183 119
Width: 262
GlyphClass: 4
Flags: MW
HStem: 199 102<116 146>
VStem: 80 102<235 265>
LayerCount: 2
Fore
SplineSet
131 301 m 0
 161 301 182 280 182 250 c 0
 182 220 161 199 131 199 c 0
 101 199 80 220 80 250 c 0
 80 280 101 301 131 301 c 0
EndSplineSet
EndChar

StartChar: cedilla
Encoding: 184 184 120
Width: 269
GlyphClass: 4
Flags: MW
HStem: -189 52<101 111.5 101 124>
VStem: 163 56<-106.5 -95>
LayerCount: 2
Fore
SplineSet
66 -128 m 1
 80 -134 95 -137 107 -137 c 0
 116 -137 129 -137 143 -130 c 0
 155 -123 163 -113 163 -100 c 0
 163 -90 158 -80 147 -74 c 0
 139 -70 131 -70 122 -70 c 2
 85 -70 l 1
 107 0 l 1
 151 0 l 1
 140 -37 l 1
 161 -37 177 -37 196 -50 c 0
 211 -61 219 -79 219 -99 c 0
 219 -127 204 -149 188 -163 c 0
 170 -178 141 -189 107 -189 c 0
 89 -189 69 -186 50 -178 c 1
 66 -128 l 1
EndSplineSet
EndChar

StartChar: uni00B9
Encoding: 185 185 121
Width: 321
GlyphClass: 2
Flags: MW
VStem: 161 70<260 656 656 656>
LayerCount: 2
Fore
SplineSet
174 738 m 1
 231 738 l 1
 231 260 l 1
 161 260 l 1
 161 656 l 1
 100 625 l 1
 70 685 l 1
 174 738 l 1
EndSplineSet
EndChar

StartChar: ordmasculine
Encoding: 186 186 122
Width: 490
GlyphClass: 2
Flags: MW
HStem: 254 66<225 265 225 275.5> 678 66<225 265>
VStem: 55 70<472 526 472 528> 365 70<472 526>
LayerCount: 2
Fore
SplineSet
245 678 m 0
 205 678 170 663 150 635 c 0
 125 600 125 553 125 499 c 0
 125 445 125 398 150 363 c 0
 170 335 205 320 245 320 c 0
 285 320 320 335 340 363 c 0
 365 398 365 445 365 499 c 0
 365 553 365 600 340 635 c 0
 320 663 285 678 245 678 c 0
245 744 m 0
 306 744 365 720 400 669 c 0
 435 618 435 557 435 499 c 0
 435 441 435 380 400 329 c 0
 365 278 306 254 245 254 c 0
 184 254 125 278 90 329 c 0
 55 380 55 441 55 499 c 0
 55 557 55 618 90 669 c 0
 125 720 184 744 245 744 c 0
EndSplineSet
EndChar

StartChar: guillemotright
Encoding: 187 187 123
Width: 484
GlyphClass: 2
Flags: W
LayerCount: 2
Fore
SplineSet
98 449 m 1
 254 250 l 1
 98 51 l 1
 50 87 l 1
 179 250 l 1
 50 413 l 1
 98 449 l 1
278 449 m 1
 434 250 l 1
 278 51 l 1
 230 87 l 1
 359 250 l 1
 230 413 l 1
 278 449 l 1
EndSplineSet
EndChar

StartChar: onequarter
Encoding: 188 188 124
Width: 830
GlyphClass: 2
Flags: MW
HStem: 0 21G<200 264 200 200 674 744 674 674> 110 66<546 674 546 674 744 785> 646 21G
VStem: 161 70<188 584 584 584> 674 70<0 110 0 110 176 289>
LayerCount: 2
Fore
SplineSet
174 666 m 1
 231 666 l 1
 231 188 l 1
 161 188 l 1
 161 584 l 1
 100 553 l 1
 70 613 l 1
 174 666 l 1
621 478 m 1
 694 478 l 1
 546 176 l 1
 674 176 l 1
 674 289 l 1
 744 289 l 1
 744 176 l 1
 785 176 l 1
 785 110 l 1
 744 110 l 1
 744 0 l 1
 674 0 l 1
 674 110 l 1
 467 110 l 1
 467 163 l 1
 621 478 l 1
560 667 m 1
 624 667 l 1
 264 0 l 1
 200 0 l 1
 560 667 l 1
EndSplineSet
EndChar

StartChar: onehalf
Encoding: 189 189 125
Width: 894
GlyphClass: 2
Flags: MW
HStem: 0 66<661 844 661 844> 418 66<677.5 702.5> 646 21G
VStem: 161 70<188 584 584 584> 769 70<333.5 360>
LayerCount: 2
Fore
SplineSet
174 666 m 1
 231 666 l 1
 231 188 l 1
 161 188 l 1
 161 584 l 1
 100 553 l 1
 70 613 l 1
 174 666 l 1
619 395 m 1
 578 448 l 1
 614 475 659 484 691 484 c 0
 733 484 764 473 790 453 c 0
 819 430 839 394 839 349 c 0
 839 306 827 282 786 228 c 2
 661 66 l 1
 844 66 l 1
 844 0 l 1
 567 0 l 1
 567 55 l 1
 728 265 l 2
 761 308 769 319 769 348 c 0
 769 372 759 391 746 402 c 0
 733 413 714 418 691 418 c 0
 664 418 638 410 619 395 c 1
560 667 m 1
 624 667 l 1
 264 0 l 1
 200 0 l 1
 560 667 l 1
EndSplineSet
EndChar

StartChar: threequarters
Encoding: 190 190 126
Width: 880
GlyphClass: 2
Flags: MW
HStem: 0 21G<250 314 250 250 724 794 724 724> 110 66<596 724 596 724 794 835> 182 66<145.5 174 145.5 180> 401 66<126 135 126 135> 606 66<148.5 173>
VStem: 241 70<527 549.5> 249 70<310.5 335> 724 70<0 110 0 110 176 289>
LayerCount: 2
Fore
SplineSet
89 583 m 1xfd
 48 636 l 1
 82 661 123 672 162 672 c 0
 196 672 233 664 263 640 c 0
 290 618 311 583 311 538 c 0xfd
 311 500 296 464 260 436 c 1
 300 408 319 366 319 323 c 0
 319 276 297 239 269 217 c 0
 238 191 198 182 162 182 c 0
 114 182 72 196 40 223 c 1
 83 274 l 1
 101 258 129 248 162 248 c 0
 186 248 209 254 224 266 c 0
 238 278 249 298 249 323 c 0xfb
 249 347 239 369 223 383 c 0
 206 398 188 401 135 401 c 2
 126 401 l 1
 126 467 l 1
 135 467 l 2
 185 467 201 470 217 483 c 0
 231 495 241 516 241 538 c 0
 241 561 231 579 217 590 c 0
 204 600 184 606 162 606 c 0
 135 606 108 598 89 583 c 1xfd
671 478 m 1
 744 478 l 1
 596 176 l 1
 724 176 l 1
 724 289 l 1
 794 289 l 1
 794 176 l 1
 835 176 l 1
 835 110 l 1
 794 110 l 1
 794 0 l 1
 724 0 l 1
 724 110 l 1
 517 110 l 1
 517 163 l 1
 671 478 l 1
610 667 m 1
 674 667 l 1
 314 0 l 1
 250 0 l 1
 610 667 l 1
EndSplineSet
EndChar

StartChar: questiondown
Encoding: 191 191 127
Width: 387
GlyphClass: 2
Flags: MW
HStem: -189 70<242 280.5 242 284.5> 387 102<240 270>
VStem: 60 74<-23 12.5 -23 24.5> 204 102<423 453> 226 58<267 267>
LayerCount: 2
Fore
SplineSet
255 387 m 0xf0
 225 387 204 408 204 438 c 0
 204 468 225 489 255 489 c 0
 285 489 306 468 306 438 c 0
 306 408 285 387 255 387 c 0xf0
260 -189 m 0
 203 -189 161 -174 127 -148 c 0
 88 -118 60 -66 60 -7 c 0
 60 56 90 102 126 132 c 0
 162 162 204 177 219 221 c 0
 222 230 225 243 226 267 c 2
 228 314 l 1
 282 314 l 1
 282 314 284 277 284 259 c 0xe8
 284 238 283 226 279 207 c 0
 265 139 206 108 175 81 c 0
 150 59 134 32 134 -7 c 0
 134 -39 147 -72 173 -93 c 0
 195 -111 224 -119 260 -119 c 0
 301 -119 344 -107 375 -82 c 1
 419 -138 l 1
 370 -176 309 -189 260 -189 c 0
EndSplineSet
EndChar

StartChar: Agrave
Encoding: 192 192 128
Width: 594
GlyphClass: 2
Flags: MW
HStem: 0 21G<35 111 35 35 483 559 483 483> 195 70<182 412 182 431 163 412> 602 70<293 301> 736 120<178 331 178 265>
VStem: 178 153<736 856>
LayerCount: 2
Fore
SplineSet
178 856 m 1
 256 856 l 1
 331 736 l 1
 265 736 l 1
 178 856 l 1
297 672 m 0
 323 672 350 663 370 644 c 0
 387 628 395 614 416 534 c 2
 559 0 l 1
 483 0 l 1
 431 195 l 1
 163 195 l 1
 111 0 l 1
 35 0 l 1
 178 534 l 2
 199 614 207 628 224 644 c 0
 244 663 271 672 297 672 c 0
182 265 m 1
 412 265 l 1
 344 518 l 2
 330 572 325 587 318 594 c 0
 313 599 305 602 297 602 c 0
 289 602 281 599 276 594 c 0
 269 587 264 572 250 518 c 2
 182 265 l 1
EndSplineSet
EndChar

StartChar: Aacute
Encoding: 193 193 129
Width: 594
GlyphClass: 2
Flags: MW
HStem: 0 21G<35 111 35 35 483 559 483 483> 195 70<182 412 182 431 163 412> 602 70<293 301> 736 120<239 392 239 392>
VStem: 239 153<736 856>
LayerCount: 2
Fore
SplineSet
392 856 m 1
 305 736 l 1
 239 736 l 1
 314 856 l 1
 392 856 l 1
297 672 m 0
 323 672 350 663 370 644 c 0
 387 628 395 614 416 534 c 2
 559 0 l 1
 483 0 l 1
 431 195 l 1
 163 195 l 1
 111 0 l 1
 35 0 l 1
 178 534 l 2
 199 614 207 628 224 644 c 0
 244 663 271 672 297 672 c 0
182 265 m 1
 412 265 l 1
 344 518 l 2
 330 572 325 587 318 594 c 0
 313 599 305 602 297 602 c 0
 289 602 281 599 276 594 c 0
 269 587 264 572 250 518 c 2
 182 265 l 1
EndSplineSet
EndChar

StartChar: Acircumflex
Encoding: 194 194 130
Width: 594
GlyphClass: 2
Flags: MW
HStem: 0 21G<35 111 35 35 483 559 483 483> 195 70<182 412 182 431 163 412> 602 70<293 301> 736 120<151 324 151 324 246 419 246 353>
VStem: 151 268<736 736>
LayerCount: 2
Fore
SplineSet
246 856 m 1
 324 856 l 1
 419 736 l 1
 353 736 l 1
 285 812 l 1
 217 736 l 1
 151 736 l 1
 246 856 l 1
297 672 m 0
 323 672 350 663 370 644 c 0
 387 628 395 614 416 534 c 2
 559 0 l 1
 483 0 l 1
 431 195 l 1
 163 195 l 1
 111 0 l 1
 35 0 l 1
 178 534 l 2
 199 614 207 628 224 644 c 0
 244 663 271 672 297 672 c 0
182 265 m 1
 412 265 l 1
 344 518 l 2
 330 572 325 587 318 594 c 0
 313 599 305 602 297 602 c 0
 289 602 281 599 276 594 c 0
 269 587 264 572 250 518 c 2
 182 265 l 1
EndSplineSet
EndChar

StartChar: Atilde
Encoding: 195 195 131
Width: 594
GlyphClass: 2
Flags: MW
HStem: 0 21G<35 111 35 35 483 559 483 483> 195 70<182 412 182 431 163 412> 602 70<293 301> 740 52<336 354 336 369.5> 778 52<216 234>
VStem: 137 56<746 755.5 746 770> 377 56<814.5 824>
LayerCount: 2
Fore
SplineSet
345 740 m 0x16
 316 740 291 752 272 762 c 0
 257 769 243 778 225 778 c 0
 207 778 193 765 193 746 c 1
 137 746 l 1
 137 794 176 830 225 830 c 0x0e
 255 830 279 818 298 808 c 0
 313 801 327 792 345 792 c 0
 363 792 377 805 377 824 c 1
 433 824 l 1
 433 776 394 740 345 740 c 0x16
297 672 m 0xe0
 323 672 350 663 370 644 c 0
 387 628 395 614 416 534 c 2
 559 0 l 1
 483 0 l 1
 431 195 l 1
 163 195 l 1
 111 0 l 1
 35 0 l 1
 178 534 l 2
 199 614 207 628 224 644 c 0
 244 663 271 672 297 672 c 0xe0
182 265 m 1
 412 265 l 1
 344 518 l 2
 330 572 325 587 318 594 c 0
 313 599 305 602 297 602 c 0
 289 602 281 599 276 594 c 0
 269 587 264 572 250 518 c 2
 182 265 l 1
EndSplineSet
EndChar

StartChar: Adieresis
Encoding: 196 196 132
Width: 594
GlyphClass: 2
Flags: MW
HStem: 0 21G<35 111 35 35 483 559 483 483> 195 70<182 412 182 431 163 412> 602 70<293 301> 740 94<181 209 361 389>
VStem: 148 94<773 801> 328 94<773 801>
LayerCount: 2
Fore
SplineSet
375 834 m 0
 403 834 422 815 422 787 c 0
 422 759 403 740 375 740 c 0
 347 740 328 759 328 787 c 0
 328 815 347 834 375 834 c 0
195 834 m 0
 223 834 242 815 242 787 c 0
 242 759 223 740 195 740 c 0
 167 740 148 759 148 787 c 0
 148 815 167 834 195 834 c 0
297 672 m 0
 323 672 350 663 370 644 c 0
 387 628 395 614 416 534 c 2
 559 0 l 1
 483 0 l 1
 431 195 l 1
 163 195 l 1
 111 0 l 1
 35 0 l 1
 178 534 l 2
 199 614 207 628 224 644 c 0
 244 663 271 672 297 672 c 0
182 265 m 1
 412 265 l 1
 344 518 l 2
 330 572 325 587 318 594 c 0
 313 599 305 602 297 602 c 0
 289 602 281 599 276 594 c 0
 269 587 264 572 250 518 c 2
 182 265 l 1
EndSplineSet
EndChar

StartChar: Aring
Encoding: 197 197 133
Width: 594
GlyphClass: 2
Flags: MW
HStem: 0 21G<35 111 35 35 483 559 483 483> 195 70<182 412 182 431 163 412> 602 70<293 301> 709 41<271.5 298.5 271.5 311> 843 40<271.5 298.5>
VStem: 198 43<782.5 809.5 782.5 822.5> 330 42<782.5 809.5>
LayerCount: 2
Fore
SplineSet
285 883 m 0
 337 883 372 849 372 796 c 0
 372 744 337 709 285 709 c 0
 234 709 198 744 198 796 c 0
 198 849 234 883 285 883 c 0
285 843 m 0
 258 843 241 823 241 796 c 0
 241 769 258 750 285 750 c 0
 312 750 330 769 330 796 c 0
 330 823 312 843 285 843 c 0
297 672 m 0
 323 672 350 663 370 644 c 0
 387 628 395 614 416 534 c 2
 559 0 l 1
 483 0 l 1
 431 195 l 1
 163 195 l 1
 111 0 l 1
 35 0 l 1
 178 534 l 2
 199 614 207 628 224 644 c 0
 244 663 271 672 297 672 c 0
182 265 m 1
 412 265 l 1
 344 518 l 2
 330 572 325 587 318 594 c 0
 313 599 305 602 297 602 c 0
 289 602 281 599 276 594 c 0
 269 587 264 572 250 518 c 2
 182 265 l 1
EndSplineSet
EndChar

StartChar: AE
Encoding: 198 198 134
Width: 740
GlyphClass: 2
Flags: MW
HStem: 0 70<500 675 522 675> 195 70<182 365 182 365 163 365> 308 70<439 439> 596 70<300 675 314 365 439 675 439 439>
VStem: 365 74<155 195 195 195 265 308 378 596>
LayerCount: 2
Fore
SplineSet
365 265 m 1
 365 596 l 1
 314 596 l 2
 286 596 278 593 273 588 c 0
 266 581 261 566 247 512 c 2
 182 265 l 1
 365 265 l 1
439 596 m 1
 439 378 l 1
 635 379 l 1
 635 309 l 1
 439 308 l 1
 439 155 l 2
 439 114 439 92 456 79 c 0
 468 70 485 70 522 70 c 2
 675 70 l 1
 675 0 l 1
 522 0 l 2
 478 0 438 0 405 28 c 0
 365 63 365 107 365 155 c 2
 365 195 l 1
 163 195 l 1
 111 0 l 1
 35 0 l 1
 175 528 l 2
 196 608 204 622 221 638 c 0
 241 657 268 666 314 666 c 2
 675 666 l 1
 675 596 l 1
 439 596 l 1
EndSplineSet
EndChar

StartChar: Ccedilla
Encoding: 199 199 135
Width: 537
GlyphClass: 2
Flags: MW
HStem: -189 52<262 272.5 262 285> -5 69<266 319 310 310> 602 70<273 314.5>
VStem: 65 74<279 387> 324 56<-106.5 -95>
LayerCount: 2
Fore
SplineSet
227 -128 m 1
 241 -134 256 -137 268 -137 c 0
 277 -137 290 -137 304 -130 c 0
 316 -123 324 -113 324 -100 c 0
 324 -90 319 -80 308 -74 c 0
 300 -70 292 -70 283 -70 c 2
 246 -70 l 1
 266 -5 l 1
 219 -1 173 14 137 45 c 0
 65 107 65 191 65 279 c 2
 65 387 l 2
 65 474 65 558 136 620 c 0
 175 654 230 672 290 672 c 0
 351 672 417 654 467 614 c 1
 423 558 l 1
 387 587 339 602 290 602 c 0
 256 602 216 594 188 570 c 0
 139 528 139 468 139 387 c 2
 139 279 l 2
 139 196 139 139 187 97 c 0
 211 76 246 64 290 64 c 0
 348 64 399 85 431 114 c 1
 477 59 l 1
 435 24 377 -1 310 -5 c 1
 301 -37 l 1
 322 -37 338 -37 357 -50 c 0
 372 -61 380 -79 380 -99 c 0
 380 -127 365 -149 349 -163 c 0
 331 -178 302 -189 268 -189 c 0
 250 -189 230 -186 211 -178 c 1
 227 -128 l 1
EndSplineSet
EndChar

StartChar: Egrave
Encoding: 200 200 136
Width: 510
GlyphClass: 2
Flags: MW
HStem: 0 70<210 445 232 445> 308 70<149 149> 596 70<213.5 445 232 445> 736 120<148 301 148 235>
VStem: 75 74<155 308 378 511> 148 153<736 856>
LayerCount: 2
Fore
SplineSet
148 856 m 1x14
 226 856 l 1
 301 736 l 1
 235 736 l 1
 148 856 l 1x14
149 378 m 1xe8
 385 379 l 1
 385 309 l 1
 149 308 l 1
 149 155 l 2
 149 114 149 92 166 79 c 0
 178 70 195 70 232 70 c 2
 445 70 l 1
 445 0 l 1
 232 0 l 2
 188 0 148 0 115 28 c 0
 75 63 75 107 75 155 c 2
 75 511 l 2
 75 559 75 603 115 638 c 0
 148 666 188 666 232 666 c 2
 445 666 l 1
 445 596 l 1
 232 596 l 2
 195 596 178 596 166 587 c 0
 149 574 149 552 149 511 c 2
 149 378 l 1xe8
EndSplineSet
EndChar

StartChar: Eacute
Encoding: 201 201 137
Width: 510
GlyphClass: 2
Flags: MW
HStem: 0 70<210 445 232 445> 308 70<149 149> 596 70<213.5 445 232 445> 736 120<209 362 209 362>
VStem: 75 74<155 308 378 511> 209 153<736 856>
LayerCount: 2
Fore
SplineSet
362 856 m 1
 275 736 l 1
 209 736 l 1
 284 856 l 1
 362 856 l 1
149 378 m 1
 385 379 l 1
 385 309 l 1
 149 308 l 1
 149 155 l 2
 149 114 149 92 166 79 c 0
 178 70 195 70 232 70 c 2
 445 70 l 1
 445 0 l 1
 232 0 l 2
 188 0 148 0 115 28 c 0
 75 63 75 107 75 155 c 2
 75 511 l 2
 75 559 75 603 115 638 c 0
 148 666 188 666 232 666 c 2
 445 666 l 1
 445 596 l 1
 232 596 l 2
 195 596 178 596 166 587 c 0
 149 574 149 552 149 511 c 2
 149 378 l 1
EndSplineSet
EndChar

StartChar: Ecircumflex
Encoding: 202 202 138
Width: 510
GlyphClass: 2
Flags: MW
HStem: 0 70<210 445 232 445> 308 70<149 149> 596 70<213.5 445 232 445> 736 120<121 294 121 294 216 389 216 323>
VStem: 75 74<155 308 378 511> 121 268<736 736>
LayerCount: 2
Fore
SplineSet
216 856 m 1x14
 294 856 l 1
 389 736 l 1
 323 736 l 1
 255 812 l 1
 187 736 l 1
 121 736 l 1
 216 856 l 1x14
149 378 m 1xe8
 385 379 l 1
 385 309 l 1
 149 308 l 1
 149 155 l 2
 149 114 149 92 166 79 c 0
 178 70 195 70 232 70 c 2
 445 70 l 1
 445 0 l 1
 232 0 l 2
 188 0 148 0 115 28 c 0
 75 63 75 107 75 155 c 2
 75 511 l 2
 75 559 75 603 115 638 c 0
 148 666 188 666 232 666 c 2
 445 666 l 1
 445 596 l 1
 232 596 l 2
 195 596 178 596 166 587 c 0
 149 574 149 552 149 511 c 2
 149 378 l 1xe8
EndSplineSet
EndChar

StartChar: Edieresis
Encoding: 203 203 139
Width: 510
GlyphClass: 2
Flags: MW
HStem: 0 70<210 445 232 445> 308 70<149 149> 596 70<213.5 445 232 445> 740 94<151 179 331 359>
VStem: 75 74<155 308 378 511> 118 94<773 801> 298 94<773 801>
LayerCount: 2
Fore
SplineSet
345 834 m 0x16
 373 834 392 815 392 787 c 0
 392 759 373 740 345 740 c 0
 317 740 298 759 298 787 c 0
 298 815 317 834 345 834 c 0x16
165 834 m 0
 193 834 212 815 212 787 c 0
 212 759 193 740 165 740 c 0
 137 740 118 759 118 787 c 0
 118 815 137 834 165 834 c 0
149 378 m 1xe8
 385 379 l 1
 385 309 l 1
 149 308 l 1
 149 155 l 2
 149 114 149 92 166 79 c 0
 178 70 195 70 232 70 c 2
 445 70 l 1
 445 0 l 1
 232 0 l 2
 188 0 148 0 115 28 c 0
 75 63 75 107 75 155 c 2
 75 511 l 2
 75 559 75 603 115 638 c 0
 148 666 188 666 232 666 c 2
 445 666 l 1
 445 596 l 1
 232 596 l 2
 195 596 178 596 166 587 c 0
 149 574 149 552 149 511 c 2
 149 378 l 1xe8
EndSplineSet
EndChar

StartChar: Igrave
Encoding: 204 204 140
Width: 224
GlyphClass: 2
Flags: MW
HStem: 0 21G<75 149 75 75> 646 20G<75 149 149 149> 735 120<5 158 5 92>
VStem: 5 153<735 855> 75 74<0 666 0 666>
LayerCount: 2
Fore
SplineSet
5 855 m 1x30
 83 855 l 1
 158 735 l 1
 92 735 l 1
 5 855 l 1x30
149 666 m 1xc8
 149 0 l 1
 75 0 l 1
 75 666 l 1
 149 666 l 1xc8
EndSplineSet
EndChar

StartChar: Iacute
Encoding: 205 205 141
Width: 224
GlyphClass: 2
Flags: MW
HStem: 0 21G<75 149 75 75> 646 20G<75 149 149 149> 735 120<66 219 66 219>
VStem: 66 153<735 855> 75 74<0 666 0 666>
LayerCount: 2
Fore
SplineSet
219 855 m 1x30
 132 735 l 1
 66 735 l 1
 141 855 l 1
 219 855 l 1x30
149 666 m 1xc8
 149 0 l 1
 75 0 l 1
 75 666 l 1
 149 666 l 1xc8
EndSplineSet
EndChar

StartChar: Icircumflex
Encoding: 206 206 142
Width: 224
GlyphClass: 2
Flags: MW
HStem: 0 21G<75 149 75 75> 646 20G<75 149 149 149> 735 120<-22 151 -22 151 73 246 73 180>
VStem: -22 268<735 735> 75 74<0 666 0 666>
LayerCount: 2
Fore
SplineSet
73 855 m 1x30
 151 855 l 1
 246 735 l 1
 180 735 l 1
 112 811 l 1
 44 735 l 1
 -22 735 l 1
 73 855 l 1x30
149 666 m 1xc8
 149 0 l 1
 75 0 l 1
 75 666 l 1
 149 666 l 1xc8
EndSplineSet
EndChar

StartChar: Idieresis
Encoding: 207 207 143
Width: 224
GlyphClass: 2
Flags: MW
HStem: 0 21G<75 149 75 75> 646 20G<75 149 149 149> 739 94<8 36 188 216>
VStem: -25 94<772 800> 75 74<0 666 0 666> 155 94<772 800>
CounterMasks: 1 1c
LayerCount: 2
Fore
SplineSet
202 833 m 0
 230 833 249 814 249 786 c 0
 249 758 230 739 202 739 c 0
 174 739 155 758 155 786 c 0
 155 814 174 833 202 833 c 0
22 833 m 0
 50 833 69 814 69 786 c 0
 69 758 50 739 22 739 c 0
 -6 739 -25 758 -25 786 c 0
 -25 814 -6 833 22 833 c 0
149 666 m 1
 149 0 l 1
 75 0 l 1
 75 666 l 1
 149 666 l 1
EndSplineSet
EndChar

StartChar: Eth
Encoding: 208 208 144
Width: 629
GlyphClass: 2
Flags: MW
HStem: 0 70<263.5 313 263.5 318> 313 62<55 125 55 125 199 328> 596 70<263.5 313>
VStem: 125 74<155 313 375 511> 491 74<287.5 378.5>
LayerCount: 2
Fore
SplineSet
282 596 m 0
 245 596 228 596 216 587 c 0
 199 574 199 552 199 511 c 2
 199 375 l 1
 328 375 l 1
 328 313 l 1
 199 313 l 1
 199 155 l 2
 199 114 199 92 216 79 c 0
 228 70 245 70 282 70 c 0
 344 70 416 70 457 130 c 0
 491 179 491 242 491 333 c 0
 491 424 491 487 457 536 c 0
 416 596 344 596 282 596 c 0
282 666 m 0
 354 666 455 666 519 574 c 0
 565 508 565 435 565 333 c 0
 565 231 565 158 519 92 c 0
 455 0 354 0 282 0 c 0
 238 0 198 0 165 28 c 0
 125 63 125 107 125 155 c 2
 125 313 l 1
 55 313 l 1
 55 375 l 1
 125 375 l 1
 125 511 l 2
 125 559 125 603 165 638 c 0
 198 666 238 666 282 666 c 0
EndSplineSet
EndChar

StartChar: Ntilde
Encoding: 209 209 145
Width: 554
GlyphClass: 2
Flags: MW
HStem: 0 21G<70 144 70 70 410 484 410 410> 602 70<257.5 296.5> 740 52<323 341 323 356.5> 778 52<203 221>
VStem: 70 74<0 387 0 432> 124 56<746 755.5 746 770> 364 56<814.5 824> 410 74<0 387 0 427.5>
LayerCount: 2
Fore
SplineSet
332 740 m 0x26
 303 740 278 752 259 762 c 0
 244 769 230 778 212 778 c 0
 194 778 180 765 180 746 c 1
 124 746 l 1
 124 794 163 830 212 830 c 0x16
 242 830 266 818 285 808 c 0
 300 801 314 792 332 792 c 0
 350 792 364 805 364 824 c 1
 420 824 l 1
 420 776 381 740 332 740 c 0x26
277 672 m 0xc9
 339 672 396 649 432 608 c 0
 484 549 484 477 484 387 c 2
 484 0 l 1
 410 0 l 1
 410 387 l 2
 410 468 410 524 376 562 c 0
 352 589 316 602 277 602 c 0
 238 602 202 589 178 562 c 0
 144 524 144 468 144 387 c 2
 144 0 l 1
 70 0 l 1
 70 387 l 2
 70 477 70 549 122 608 c 0
 158 649 215 672 277 672 c 0xc9
EndSplineSet
EndChar

StartChar: Ograve
Encoding: 210 210 146
Width: 584
GlyphClass: 2
Flags: MW
HStem: -6 70<264 320 264 334> 602 70<264 320> 735 120<193 346 193 280>
VStem: 65 74<282 384 282 392> 193 153<735 855> 445 74<282 384>
LayerCount: 2
Fore
SplineSet
193 855 m 1
 271 855 l 1
 346 735 l 1
 280 735 l 1
 193 855 l 1
139 333 m 0
 139 231 139 171 165 128 c 0
 189 88 236 64 292 64 c 0
 348 64 395 88 419 128 c 0
 445 171 445 231 445 333 c 0
 445 435 445 495 419 538 c 0
 395 578 348 602 292 602 c 0
 236 602 189 578 165 538 c 0
 139 495 139 435 139 333 c 0
65 333 m 0
 65 451 65 514 101 573 c 0
 138 634 208 672 292 672 c 0
 376 672 446 634 483 573 c 0
 519 514 519 451 519 333 c 0
 519 215 519 152 483 93 c 0
 446 32 376 -6 292 -6 c 0
 208 -6 138 32 101 93 c 0
 65 152 65 215 65 333 c 0
EndSplineSet
EndChar

StartChar: Oacute
Encoding: 211 211 147
Width: 584
GlyphClass: 2
Flags: MW
HStem: -6 70<264 320 264 334> 602 70<264 320> 735 120<254 407 254 407>
VStem: 65 74<282 384 282 392> 254 153<735 855> 445 74<282 384>
LayerCount: 2
Fore
SplineSet
407 855 m 1
 320 735 l 1
 254 735 l 1
 329 855 l 1
 407 855 l 1
139 333 m 0
 139 231 139 171 165 128 c 0
 189 88 236 64 292 64 c 0
 348 64 395 88 419 128 c 0
 445 171 445 231 445 333 c 0
 445 435 445 495 419 538 c 0
 395 578 348 602 292 602 c 0
 236 602 189 578 165 538 c 0
 139 495 139 435 139 333 c 0
65 333 m 0
 65 451 65 514 101 573 c 0
 138 634 208 672 292 672 c 0
 376 672 446 634 483 573 c 0
 519 514 519 451 519 333 c 0
 519 215 519 152 483 93 c 0
 446 32 376 -6 292 -6 c 0
 208 -6 138 32 101 93 c 0
 65 152 65 215 65 333 c 0
EndSplineSet
EndChar

StartChar: Ocircumflex
Encoding: 212 212 148
Width: 584
GlyphClass: 2
Flags: MW
HStem: -6 70<264 320 264 334> 602 70<264 320> 735 120<166 339 166 339 261 434 261 368>
VStem: 65 74<282 384 282 392> 166 268<735 735> 445 74<282 384>
LayerCount: 2
Fore
SplineSet
261 855 m 1
 339 855 l 1
 434 735 l 1
 368 735 l 1
 300 811 l 1
 232 735 l 1
 166 735 l 1
 261 855 l 1
139 333 m 0
 139 231 139 171 165 128 c 0
 189 88 236 64 292 64 c 0
 348 64 395 88 419 128 c 0
 445 171 445 231 445 333 c 0
 445 435 445 495 419 538 c 0
 395 578 348 602 292 602 c 0
 236 602 189 578 165 538 c 0
 139 495 139 435 139 333 c 0
65 333 m 0
 65 451 65 514 101 573 c 0
 138 634 208 672 292 672 c 0
 376 672 446 634 483 573 c 0
 519 514 519 451 519 333 c 0
 519 215 519 152 483 93 c 0
 446 32 376 -6 292 -6 c 0
 208 -6 138 32 101 93 c 0
 65 152 65 215 65 333 c 0
EndSplineSet
EndChar

StartChar: Otilde
Encoding: 213 213 149
Width: 584
GlyphClass: 2
Flags: MW
HStem: -6 70<264 320 264 334> 602 70<264 320> 739 52<351 369 351 384.5> 777 52<231 249>
VStem: 65 74<282 384 282 392> 152 56<745 754.5 745 769> 392 56<813.5 823> 445 74<282 384>
LayerCount: 2
Fore
SplineSet
360 739 m 0x26
 331 739 306 751 287 761 c 0
 272 768 258 777 240 777 c 0
 222 777 208 764 208 745 c 1
 152 745 l 1
 152 793 191 829 240 829 c 0x16
 270 829 294 817 313 807 c 0
 328 800 342 791 360 791 c 0
 378 791 392 804 392 823 c 1
 448 823 l 1
 448 775 409 739 360 739 c 0x26
139 333 m 0xc9
 139 231 139 171 165 128 c 0
 189 88 236 64 292 64 c 0
 348 64 395 88 419 128 c 0
 445 171 445 231 445 333 c 0
 445 435 445 495 419 538 c 0
 395 578 348 602 292 602 c 0
 236 602 189 578 165 538 c 0
 139 495 139 435 139 333 c 0xc9
65 333 m 0
 65 451 65 514 101 573 c 0
 138 634 208 672 292 672 c 0
 376 672 446 634 483 573 c 0
 519 514 519 451 519 333 c 0
 519 215 519 152 483 93 c 0
 446 32 376 -6 292 -6 c 0
 208 -6 138 32 101 93 c 0
 65 152 65 215 65 333 c 0
EndSplineSet
EndChar

StartChar: Odieresis
Encoding: 214 214 150
Width: 584
GlyphClass: 2
Flags: MW
HStem: -6 70<264 320 264 334> 602 70<264 320> 739 94<196 224 376 404>
VStem: 65 74<282 384 282 392> 163 94<772 800> 343 94<772 800> 445 74<282 384>
LayerCount: 2
Fore
SplineSet
390 833 m 0
 418 833 437 814 437 786 c 0
 437 758 418 739 390 739 c 0
 362 739 343 758 343 786 c 0
 343 814 362 833 390 833 c 0
210 833 m 0
 238 833 257 814 257 786 c 0
 257 758 238 739 210 739 c 0
 182 739 163 758 163 786 c 0
 163 814 182 833 210 833 c 0
139 333 m 0
 139 231 139 171 165 128 c 0
 189 88 236 64 292 64 c 0
 348 64 395 88 419 128 c 0
 445 171 445 231 445 333 c 0
 445 435 445 495 419 538 c 0
 395 578 348 602 292 602 c 0
 236 602 189 578 165 538 c 0
 139 495 139 435 139 333 c 0
65 333 m 0
 65 451 65 514 101 573 c 0
 138 634 208 672 292 672 c 0
 376 672 446 634 483 573 c 0
 519 514 519 451 519 333 c 0
 519 215 519 152 483 93 c 0
 446 32 376 -6 292 -6 c 0
 208 -6 138 32 101 93 c 0
 65 152 65 215 65 333 c 0
EndSplineSet
EndChar

StartChar: multiply
Encoding: 215 215 151
Width: 520
GlyphClass: 2
Flags: MW
HStem: 94 312<146 146 146 374>
VStem: 104 312<136 136 136 364>
LayerCount: 2
Fore
SplineSet
146 94 m 1
 104 136 l 1
 219 250 l 1
 104 364 l 1
 146 406 l 1
 260 291 l 1
 374 406 l 1
 416 364 l 1
 301 250 l 1
 416 136 l 1
 374 94 l 1
 260 209 l 1
 146 94 l 1
EndSplineSet
EndChar

StartChar: Oslash
Encoding: 216 216 152
Width: 600
GlyphClass: 2
Flags: MW
HStem: -20 21G<60 123 60 60> -6 70<279.5 324.5 279.5 335> 602 70<275.5 320.5>
VStem: 65 74<302 364 269.5 408> 461 74<302 364 258 398>
LayerCount: 2
Fore
SplineSet
300 602 m 0x38
 251 602 206 584 178 551 c 0
 139 505 139 446 139 364 c 2
 139 302 l 2
 139 237 139 186 157 145 c 1
 407 567 l 1
 379 591 341 602 300 602 c 0x38
300 672 m 0
 352 672 402 658 443 629 c 1
 477 686 l 1
 540 686 l 1
 483 590 l 1
 535 526 535 451 535 364 c 2
 535 302 l 2
 535 214 535 139 482 74 c 0
 438 20 370 -6 300 -6 c 0x78
 248 -6 198 8 157 37 c 1
 123 -20 l 1
 60 -20 l 1xb8
 117 76 l 1
 65 140 65 215 65 302 c 2
 65 364 l 2
 65 452 65 527 118 592 c 0
 162 646 230 672 300 672 c 0
192 99 m 1
 219 75 259 64 300 64 c 0
 349 64 394 82 422 115 c 0
 461 161 461 220 461 302 c 2
 461 364 l 2
 461 432 461 480 442 521 c 1
 192 99 l 1
EndSplineSet
EndChar

StartChar: Ugrave
Encoding: 217 217 153
Width: 554
GlyphClass: 2
Flags: MW
HStem: -6 70<257.5 296.5 257.5 308> 646 20G<70 144 144 144 410 484 484 484> 735 120<178 331 178 265>
VStem: 70 74<279 666> 178 153<735 855> 426 74
LayerCount: 2
Fore
SplineSet
178 855 m 1
 256 855 l 1
 331 735 l 1
 265 735 l 1
 178 855 l 1
70 666 m 1
 144 666 l 1
 144 279 l 2
 144 198 144 142 178 104 c 0
 202 77 238 64 277 64 c 0
 316 64 352 77 376 104 c 0
 410 142 410 198 410 279 c 2
 410 666 l 1
 484 666 l 1
 484 279 l 2
 484 189 484 117 432 58 c 0
 396 17 339 -6 277 -6 c 0
 215 -6 158 17 122 58 c 0
 70 117 70 189 70 279 c 2
 70 666 l 1
EndSplineSet
EndChar

StartChar: Uacute
Encoding: 218 218 154
Width: 554
GlyphClass: 2
Flags: MW
HStem: -6 70<257.5 296.5 257.5 308> 646 20G<70 144 144 144 410 484 484 484> 735 120<239 392 239 392>
VStem: 70 74<279 666> 239 153<735 855> 426 74
LayerCount: 2
Fore
SplineSet
392 855 m 1
 305 735 l 1
 239 735 l 1
 314 855 l 1
 392 855 l 1
70 666 m 1
 144 666 l 1
 144 279 l 2
 144 198 144 142 178 104 c 0
 202 77 238 64 277 64 c 0
 316 64 352 77 376 104 c 0
 410 142 410 198 410 279 c 2
 410 666 l 1
 484 666 l 1
 484 279 l 2
 484 189 484 117 432 58 c 0
 396 17 339 -6 277 -6 c 0
 215 -6 158 17 122 58 c 0
 70 117 70 189 70 279 c 2
 70 666 l 1
EndSplineSet
EndChar

StartChar: Ucircumflex
Encoding: 219 219 155
Width: 554
GlyphClass: 2
Flags: MW
HStem: -6 70<257.5 296.5 257.5 308> 646 20G<70 144 144 144 410 484 484 484> 735 120<151 324 151 324 246 419 246 353>
VStem: 70 74<279 666> 151 268<735 735> 426 74
CounterMasks: 1 1c
LayerCount: 2
Fore
SplineSet
246 855 m 1
 324 855 l 1
 419 735 l 1
 353 735 l 1
 285 811 l 1
 217 735 l 1
 151 735 l 1
 246 855 l 1
70 666 m 1
 144 666 l 1
 144 279 l 2
 144 198 144 142 178 104 c 0
 202 77 238 64 277 64 c 0
 316 64 352 77 376 104 c 0
 410 142 410 198 410 279 c 2
 410 666 l 1
 484 666 l 1
 484 279 l 2
 484 189 484 117 432 58 c 0
 396 17 339 -6 277 -6 c 0
 215 -6 158 17 122 58 c 0
 70 117 70 189 70 279 c 2
 70 666 l 1
EndSplineSet
EndChar

StartChar: Udieresis
Encoding: 220 220 156
Width: 554
GlyphClass: 2
Flags: MW
HStem: -6 70<257.5 296.5 257.5 308> 646 20G<70 144 144 144 410 484 484 484> 739 94<181 209 361 389>
VStem: 70 74<279 666> 148 94<772 800> 328 94<772 800> 426 74
LayerCount: 2
Fore
SplineSet
375 833 m 0
 403 833 422 814 422 786 c 0
 422 758 403 739 375 739 c 0
 347 739 328 758 328 786 c 0
 328 814 347 833 375 833 c 0
195 833 m 0
 223 833 242 814 242 786 c 0
 242 758 223 739 195 739 c 0
 167 739 148 758 148 786 c 0
 148 814 167 833 195 833 c 0
70 666 m 1
 144 666 l 1
 144 279 l 2
 144 198 144 142 178 104 c 0
 202 77 238 64 277 64 c 0
 316 64 352 77 376 104 c 0
 410 142 410 198 410 279 c 2
 410 666 l 1
 484 666 l 1
 484 279 l 2
 484 189 484 117 432 58 c 0
 396 17 339 -6 277 -6 c 0
 215 -6 158 17 122 58 c 0
 70 117 70 189 70 279 c 2
 70 666 l 1
EndSplineSet
EndChar

StartChar: Yacute
Encoding: 221 221 157
Width: 510
GlyphClass: 2
Flags: MW
HStem: 0 21G<218 292 218 218> 646 20G<20 101 101 101 409 490 490 490> 736 120<232.28 385.28 232.28 385.28>
VStem: 218 74<0 309 0 309> 232.28 153
LayerCount: 2
Fore
SplineSet
385.280273438 856 m 1x28
 298.280273438 736 l 1
 232.280273438 736 l 1
 307.280273438 856 l 1
 385.280273438 856 l 1x28
255 374 m 0xd0
 260 374 265 375 271 381 c 0
 278 388 285 399 311 452 c 2
 409 666 l 1
 490 666 l 1
 375 423 l 2
 339 351 328 326 292 309 c 1
 292 0 l 1
 218 0 l 1
 218 309 l 1
 182 326 171 351 135 423 c 2
 20 666 l 1
 101 666 l 1
 199 452 l 2
 225 399 232 388 239 381 c 0
 245 375 250 374 255 374 c 0xd0
EndSplineSet
EndChar

StartChar: Thorn
Encoding: 222 222 158
Width: 520
GlyphClass: 2
Flags: MW
HStem: 0 21G<75 149 75 75> 126 70<149 184 149 184> 486 70<149 184 149 184> 646 20G<75 149 149 149>
VStem: 75 74<0 126 0 196 196 486 556 666> 391 74<317 365>
LayerCount: 2
Fore
SplineSet
184 556 m 2
 263 556 337 556 398 501 c 0
 447 457 465 394 465 341 c 0
 465 288 447 225 398 181 c 0
 337 126 263 126 184 126 c 2
 149 126 l 1
 149 0 l 1
 75 0 l 1
 75 666 l 1
 149 666 l 1
 149 556 l 1
 184 556 l 2
149 486 m 1
 149 196 l 1
 184 196 l 2
 258 196 307 196 346 231 c 0
 373 255 391 293 391 341 c 0
 391 389 373 427 346 451 c 0
 307 486 258 486 184 486 c 2
 149 486 l 1
EndSplineSet
EndChar

StartChar: germandbls
Encoding: 223 223 159
Width: 505
GlyphClass: 2
Flags: MW
HStem: -6 66<260 288 260 301> 339 66<224 252.5> 607 66<219.5 241.5>
VStem: 65 70<0 465 0 493.5> 327 70<489.5 530.5> 385 70<180 220>
LayerCount: 2
Fore
SplineSet
230 673 m 0xf8
 259 673 296 667 332 642 c 0
 368 617 397 571 397 514 c 0xf8
 397 465 376 420 347 391 c 1
 377 379 406 361 427 328 c 0
 455 284 455 240 455 200 c 0
 455 158 455 103 414 55 c 0
 383 19 333 -6 269 -6 c 0
 243 -6 220 -2 198 4 c 1
 216 68 l 1
 233 63 251 60 269 60 c 0
 307 60 339 73 358 95 c 0
 385 126 385 160 385 200 c 0xf4
 385 240 385 272 361 302 c 0
 332 339 281 339 224 339 c 1
 224 405 l 1
 282 405 327 455 327 514 c 0
 327 547 312 573 292 588 c 0
 275 600 253 607 230 607 c 0
 209 607 177 601 156 576 c 0
 135 551 135 521 135 465 c 2
 135 0 l 1
 65 0 l 1
 65 465 l 2
 65 522 65 577 104 620 c 0
 132.063476562 650.942382812 176 673 230 673 c 0xf8
EndSplineSet
EndChar

StartChar: agrave
Encoding: 224 224 160
Width: 438
GlyphClass: 2
Flags: MW
HStem: -6 66<200 234.5 200 246> 229 62<219 318 236 318> 418 66<191 232> 546 120<111 264 111 198>
VStem: 35 70<128 157.5 128 168.5> 111 153<546 666> 318 70<200 229 229 229>
LayerCount: 2
Fore
SplineSet
111 666 m 1
 189 666 l 1
 264 546 l 1
 198 546 l 1
 111 666 l 1
388 200 m 2
 388 133 388 87 353 46 c 0
 323 11 276 -6 216 -6 c 0
 168 -6 127 4 95 27 c 0
 62 50 35 90 35 142 c 0
 35 195 62 234 94 257 c 0
 141 291 197 291 236 291 c 2
 318 291 l 1
 318 322 318 362 294 389 c 0
 277 408 251 418 213 418 c 0
 169 418 125 408 83 392 c 1
 61 455 l 1
 108 472 159 484 213 484 c 0
 273 484 318 465 348 431 c 0
 388 386 388 327 388 274 c 2
 388 200 l 2
318 200 m 2
 318 229 l 1
 236 229 l 2
 202 229 166 229 138 209 c 0
 120 196 105 173 105 142 c 0
 105 114 119 92 137 79 c 0
 156 66 184 60 216 60 c 0
 253 60 282 68 299 88 c 0
 318 110 318 141 318 200 c 2
EndSplineSet
EndChar

StartChar: aacute
Encoding: 225 225 161
Width: 438
GlyphClass: 2
Flags: MW
HStem: -6 66<200 234.5 200 246> 229 62<219 318 236 318> 418 66<191 232> 546 120<172 325 172 325>
VStem: 35 70<128 157.5 128 168.5> 172 153<546 666> 318 70<200 229 229 229>
LayerCount: 2
Fore
SplineSet
325 666 m 1x14
 238 546 l 1
 172 546 l 1
 247 666 l 1
 325 666 l 1x14
388 200 m 2xea
 388 133 388 87 353 46 c 0
 323 11 276 -6 216 -6 c 0
 168 -6 127 4 95 27 c 0
 62 50 35 90 35 142 c 0
 35 195 62 234 94 257 c 0
 141 291 197 291 236 291 c 2
 318 291 l 1
 318 322 318 362 294 389 c 0
 277 408 251 418 213 418 c 0
 169 418 125 408 83 392 c 1
 61 455 l 1
 108 472 159 484 213 484 c 0
 273 484 318 465 348 431 c 0
 388 386 388 327 388 274 c 2
 388 200 l 2xea
318 200 m 2
 318 229 l 1
 236 229 l 2
 202 229 166 229 138 209 c 0
 120 196 105 173 105 142 c 0
 105 114 119 92 137 79 c 0
 156 66 184 60 216 60 c 0
 253 60 282 68 299 88 c 0
 318 110 318 141 318 200 c 2
EndSplineSet
EndChar

StartChar: acircumflex
Encoding: 226 226 162
Width: 438
GlyphClass: 2
Flags: MW
HStem: -6 66<200 234.5 200 246> 229 62<219 318 236 318> 418 66<191 232> 546 120<84 257 84 257 179 352 179 286>
VStem: 35 70<128 157.5 128 168.5> 84 268<546 546> 318 70<200 229 229 229>
LayerCount: 2
Fore
SplineSet
179 666 m 1x14
 257 666 l 1
 352 546 l 1
 286 546 l 1
 218 622 l 1
 150 546 l 1
 84 546 l 1
 179 666 l 1x14
388 200 m 2xea
 388 133 388 87 353 46 c 0
 323 11 276 -6 216 -6 c 0
 168 -6 127 4 95 27 c 0
 62 50 35 90 35 142 c 0
 35 195 62 234 94 257 c 0
 141 291 197 291 236 291 c 2
 318 291 l 1
 318 322 318 362 294 389 c 0
 277 408 251 418 213 418 c 0
 169 418 125 408 83 392 c 1
 61 455 l 1
 108 472 159 484 213 484 c 0
 273 484 318 465 348 431 c 0
 388 386 388 327 388 274 c 2
 388 200 l 2xea
318 200 m 2
 318 229 l 1
 236 229 l 2
 202 229 166 229 138 209 c 0
 120 196 105 173 105 142 c 0
 105 114 119 92 137 79 c 0
 156 66 184 60 216 60 c 0
 253 60 282 68 299 88 c 0
 318 110 318 141 318 200 c 2
EndSplineSet
EndChar

StartChar: atilde
Encoding: 227 227 163
Width: 438
GlyphClass: 2
Flags: MW
HStem: -6 66<200 234.5 200 246> 229 62<219 318 236 318> 418 66<191 232> 550 52<269 287 269 302.5> 588 52<149 167>
VStem: 35 70<128 157.5 128 168.5> 70 56<556 565.5 556 580> 310 56<624.5 634> 318 70<200 229 229 229>
LayerCount: 2
Fore
SplineSet
278 550 m 0x13
 249 550 224 562 205 572 c 0
 190 579 176 588 158 588 c 0
 140 588 126 575 126 556 c 1
 70 556 l 1
 70 604 109 640 158 640 c 0x0b
 188 640 212 628 231 618 c 0
 246 611 260 602 278 602 c 0
 296 602 310 615 310 634 c 1
 366 634 l 1
 366 586 327 550 278 550 c 0x13
388 200 m 2xe480
 388 133 388 87 353 46 c 0
 323 11 276 -6 216 -6 c 0
 168 -6 127 4 95 27 c 0
 62 50 35 90 35 142 c 0
 35 195 62 234 94 257 c 0
 141 291 197 291 236 291 c 2
 318 291 l 1
 318 322 318 362 294 389 c 0
 277 408 251 418 213 418 c 0
 169 418 125 408 83 392 c 1
 61 455 l 1
 108 472 159 484 213 484 c 0
 273 484 318 465 348 431 c 0
 388 386 388 327 388 274 c 2
 388 200 l 2xe480
318 200 m 2
 318 229 l 1
 236 229 l 2
 202 229 166 229 138 209 c 0
 120 196 105 173 105 142 c 0
 105 114 119 92 137 79 c 0
 156 66 184 60 216 60 c 0
 253 60 282 68 299 88 c 0
 318 110 318 141 318 200 c 2
EndSplineSet
EndChar

StartChar: adieresis
Encoding: 228 228 164
Width: 438
GlyphClass: 2
Flags: MW
HStem: -6 66<200 234.5 200 246> 229 62<219 318 236 318> 418 66<191 232> 550 94<114 142 294 322>
VStem: 35 70<128 157.5 128 168.5> 81 94<583 611> 261 94<583 611> 318 70<200 229 229 229>
LayerCount: 2
Fore
SplineSet
308 644 m 0x16
 336 644 355 625 355 597 c 0
 355 569 336 550 308 550 c 0
 280 550 261 569 261 597 c 0
 261 625 280 644 308 644 c 0x16
128 644 m 0
 156 644 175 625 175 597 c 0
 175 569 156 550 128 550 c 0
 100 550 81 569 81 597 c 0
 81 625 100 644 128 644 c 0
388 200 m 2xe9
 388 133 388 87 353 46 c 0
 323 11 276 -6 216 -6 c 0
 168 -6 127 4 95 27 c 0
 62 50 35 90 35 142 c 0
 35 195 62 234 94 257 c 0
 141 291 197 291 236 291 c 2
 318 291 l 1
 318 322 318 362 294 389 c 0
 277 408 251 418 213 418 c 0
 169 418 125 408 83 392 c 1
 61 455 l 1
 108 472 159 484 213 484 c 0
 273 484 318 465 348 431 c 0
 388 386 388 327 388 274 c 2
 388 200 l 2xe9
318 200 m 2
 318 229 l 1
 236 229 l 2
 202 229 166 229 138 209 c 0
 120 196 105 173 105 142 c 0
 105 114 119 92 137 79 c 0
 156 66 184 60 216 60 c 0
 253 60 282 68 299 88 c 0
 318 110 318 141 318 200 c 2
EndSplineSet
EndChar

StartChar: aring
Encoding: 229 229 165
Width: 438
GlyphClass: 2
Flags: MW
HStem: -6 66<200 234.5 200 246> 229 62<219 318 236 318> 418 66<191 232> 519 41<204.5 231.5 204.5 244> 653 40<204.5 231.5>
VStem: 35 70<128 157.5 128 168.5> 131 43<592.5 619.5 592.5 632.5> 263 42<592.5 619.5> 318 70<200 229 229 229>
LayerCount: 2
Fore
SplineSet
218 693 m 0
 270 693 305 659 305 606 c 0
 305 554 270 519 218 519 c 0
 167 519 131 554 131 606 c 0
 131 659 167 693 218 693 c 0
218 653 m 0
 191 653 174 633 174 606 c 0
 174 579 191 560 218 560 c 0
 245 560 263 579 263 606 c 0
 263 633 245 653 218 653 c 0
388 200 m 2
 388 133 388 87 353 46 c 0
 323 11 276 -6 216 -6 c 0
 168 -6 127 4 95 27 c 0
 62 50 35 90 35 142 c 0
 35 195 62 234 94 257 c 0
 141 291 197 291 236 291 c 2
 318 291 l 1
 318 322 318 362 294 389 c 0
 277 408 251 418 213 418 c 0
 169 418 125 408 83 392 c 1
 61 455 l 1
 108 472 159 484 213 484 c 0
 273 484 318 465 348 431 c 0
 388 386 388 327 388 274 c 2
 388 200 l 2
318 200 m 2
 318 229 l 1
 236 229 l 2
 202 229 166 229 138 209 c 0
 120 196 105 173 105 142 c 0
 105 114 119 92 137 79 c 0
 156 66 184 60 216 60 c 0
 253 60 282 68 299 88 c 0
 318 110 318 141 318 200 c 2
EndSplineSet
EndChar

StartChar: ae
Encoding: 230 230 166
Width: 668
GlyphClass: 2
Flags: MW
HStem: -6 66<178.5 208 178.5 222.5 456.5 484> 224 62<206.5 293 222 293 363 457> 417 66<180.5 215 462 480.5>
VStem: 40 70<132 158.5 132 169.5> 293 70<178 183 183 224 166.5 224 286 297> 553 70<342.5 361>
LayerCount: 2
Fore
SplineSet
553 355 m 0
 553 367 549 388 530 402 c 0
 510 417 484 417 477 417 c 0
 447 417 416 408 394 389 c 0
 363 362 363 327 363 297 c 2
 363 286 l 1
 457 286 l 2
 482 286 504 286 525 300 c 0
 540 310 553 330 553 355 c 0
222 224 m 2
 191 224 162 224 139 209 c 0
 120 196 110 173 110 144 c 0
 110 120 117 99 129 86 c 0
 143 70 164 60 193 60 c 0
 223 60 253 72 270 92 c 0
 293 119 293 150 293 178 c 2
 293 224 l 1
 222 224 l 2
198 483 m 0
 257 483 304 461 331 419 c 1
 362 458 412 483 477 483 c 0
 506 483 542 477 572 455 c 0
 600 435 623 398 623 355 c 0
 623 308 598 272 568 251 c 0
 529 224 485 224 457 224 c 2
 363 224 l 1
 363 183 l 2
 363 150 363 109 398 81 c 0
 419 64 446 60 467 60 c 0
 501 60 539 72 570 90 c 1
 603 32 l 1
 561 9 515 -6 467 -6 c 0
 400 -6 358 19 329 60 c 1
 300 18 252 -6 193 -6 c 0
 149 -6 113 9 88 31 c 0
 60 55 40 94 40 144 c 0
 40 195 62 233 92 255 c 0
 134 286 183 286 222 286 c 2
 293 286 l 1
 293 307 l 2
 293 333 293 362 274 386 c 0
 258 406 232 417 198 417 c 0
 163 417 127 407 91 390 c 1
 62 450 l 1
 105 470 151 483 198 483 c 0
EndSplineSet
EndChar

StartChar: ccedilla
Encoding: 231 231 167
Width: 419
GlyphClass: 2
Flags: MW
HStem: -189 52 418 66
VStem: 45 70<217.499 264.999 217.499 268.999> 269 56<-106.501 -95.001>
LayerCount: 2
Fore
SplineSet
172 -128 m 1
 186 -134 201 -137.000976562 213 -137.000976562 c 0
 222 -137.000976562 235 -137.000976562 249 -130.000976562 c 0
 261 -123.000976562 269 -113.000976562 269 -100.000976562 c 0
 269 -90.0009765625 264 -80.0009765625 253 -74.0009765625 c 0
 245 -70.0009765625 237 -70.0009765625 228 -70.0009765625 c 2
 191 -70.0009765625 l 1
 211.470703125 -4.8671875 l 1
 159.349609375 0.275390625 120.123046875 22.4853515625 93 52.9990234375 c 0
 45 106.999023438 45 183.999023438 45 242.999023438 c 0
 45 294.999023438 45 369.999023438 92 423.999023438 c 0
 123 459.999023438 171 483.999023438 235 483.999023438 c 0
 283 483.999023438 331 470.999023438 372 444.999023438 c 1
 338 387.999023438 l 1
 308 406.999023438 271 417.999023438 235 417.999023438 c 0
 204 417.999023438 170 409.999023438 146 381.999023438 c 0
 115 345.999023438 115 286.999023438 115 242.999023438 c 0
 115 191.999023438 115 131.999023438 147 94.9990234375 c 0
 166.015625 73.0126953125 196 59.9990234375 235 59.9990234375 c 0
 273 59.9990234375 311 70.9990234375 343 92.9990234375 c 1
 379 36.9990234375 l 1
 342.62109375 12.74609375 299.489257812 -1.7529296875 255.454101562 -5.19921875 c 1
 246 -37 l 1
 267 -37 283 -37 302 -50 c 0
 317 -61 325 -79 325 -99 c 0
 325 -127 310 -149 294 -163 c 0
 276 -178 247 -189 213 -189 c 0
 195 -189 175 -186 156 -178 c 1
 172 -128 l 1
EndSplineSet
EndChar

StartChar: egrave
Encoding: 232 232 168
Width: 454
GlyphClass: 2
Flags: MW
HStem: -6 66<215 260.5 215 265> 218 62<116 208 116 208> 418 66<221.5 259.5> 546 120<137 290 137 224>
VStem: 45 71<206.5 218 205 278> 137 153<546 666> 344 70<334.5 346>
LayerCount: 2
Fore
SplineSet
137 666 m 1
 215 666 l 1
 290 546 l 1
 224 546 l 1
 137 666 l 1
139 102 m 0
 159 75 191 60 239 60 c 0
 282 60 325 70 361 89 c 1
 390 29 l 1
 343 5 291 -6 239 -6 c 0
 170 -6 115 19 83 62 c 0
 45 114 45 174 45 239 c 0
 45 317 45 363 81 413 c 0
 113 458 173 484 244 484 c 0
 294 484 334 471 364 447 c 0
 394 422 413 385 414 346 c 0
 414 302 392 268 364 248 c 0
 322 218 279 218 208 218 c 2
 116 218 l 1
 116 192 116 133 139 102 c 0
344 346 m 0
 343 365 333 385 318 397 c 0
 301 411 275 418 244 418 c 0
 199 418 163 405 141 379 c 0
 116 350 116 300 116 280 c 1
 208 280 l 2
 271 280 299 280 320 296 c 0
 333 306 344 323 344 346 c 0
EndSplineSet
EndChar

StartChar: eacute
Encoding: 233 233 169
Width: 454
GlyphClass: 2
Flags: MW
HStem: -6 66<215 260.5 215 265> 218 62<116 208 116 208> 418 66<221.5 259.5> 546 120<198 351 198 351>
VStem: 45 71<206.5 218 205 278> 198 153<546 666> 344 70<334.5 346>
LayerCount: 2
Fore
SplineSet
351 666 m 1x14
 264 546 l 1
 198 546 l 1
 273 666 l 1
 351 666 l 1x14
139 102 m 0xea
 159 75 191 60 239 60 c 0
 282 60 325 70 361 89 c 1
 390 29 l 1
 343 5 291 -6 239 -6 c 0
 170 -6 115 19 83 62 c 0
 45 114 45 174 45 239 c 0
 45 317 45 363 81 413 c 0
 113 458 173 484 244 484 c 0
 294 484 334 471 364 447 c 0
 394 422 413 385 414 346 c 0
 414 302 392 268 364 248 c 0
 322 218 279 218 208 218 c 2
 116 218 l 1
 116 192 116 133 139 102 c 0xea
344 346 m 0
 343 365 333 385 318 397 c 0
 301 411 275 418 244 418 c 0
 199 418 163 405 141 379 c 0
 116 350 116 300 116 280 c 1
 208 280 l 2
 271 280 299 280 320 296 c 0
 333 306 344 323 344 346 c 0
EndSplineSet
EndChar

StartChar: ecircumflex
Encoding: 234 234 170
Width: 454
GlyphClass: 2
Flags: MW
HStem: -6 66<215 260.5 215 265> 218 62<116 208 116 208> 418 66<221.5 259.5> 546 120<110 283 110 283 205 378 205 312>
VStem: 45 71<206.5 218 205 278> 110 268<546 546> 344 70<334.5 346>
LayerCount: 2
Fore
SplineSet
205 666 m 1x14
 283 666 l 1
 378 546 l 1
 312 546 l 1
 244 622 l 1
 176 546 l 1
 110 546 l 1
 205 666 l 1x14
139 102 m 0xea
 159 75 191 60 239 60 c 0
 282 60 325 70 361 89 c 1
 390 29 l 1
 343 5 291 -6 239 -6 c 0
 170 -6 115 19 83 62 c 0
 45 114 45 174 45 239 c 0
 45 317 45 363 81 413 c 0
 113 458 173 484 244 484 c 0
 294 484 334 471 364 447 c 0
 394 422 413 385 414 346 c 0
 414 302 392 268 364 248 c 0
 322 218 279 218 208 218 c 2
 116 218 l 1
 116 192 116 133 139 102 c 0xea
344 346 m 0
 343 365 333 385 318 397 c 0
 301 411 275 418 244 418 c 0
 199 418 163 405 141 379 c 0
 116 350 116 300 116 280 c 1
 208 280 l 2
 271 280 299 280 320 296 c 0
 333 306 344 323 344 346 c 0
EndSplineSet
EndChar

StartChar: edieresis
Encoding: 235 235 171
Width: 454
GlyphClass: 2
Flags: MW
HStem: -6 66<215 260.5 215 265> 218 62<116 208 116 208> 418 66<221.5 259.5> 550 94<140 168 320 348>
VStem: 45 71<206.5 218 205 278> 107 94<583 611> 287 94<583 611> 344 70<334.5 346>
LayerCount: 2
Fore
SplineSet
334 644 m 0x16
 362 644 381 625 381 597 c 0
 381 569 362 550 334 550 c 0
 306 550 287 569 287 597 c 0
 287 625 306 644 334 644 c 0x16
154 644 m 0
 182 644 201 625 201 597 c 0
 201 569 182 550 154 550 c 0
 126 550 107 569 107 597 c 0
 107 625 126 644 154 644 c 0
139 102 m 0xe9
 159 75 191 60 239 60 c 0
 282 60 325 70 361 89 c 1
 390 29 l 1
 343 5 291 -6 239 -6 c 0
 170 -6 115 19 83 62 c 0
 45 114 45 174 45 239 c 0
 45 317 45 363 81 413 c 0
 113 458 173 484 244 484 c 0
 294 484 334 471 364 447 c 0
 394 422 413 385 414 346 c 0
 414 302 392 268 364 248 c 0
 322 218 279 218 208 218 c 2
 116 218 l 1
 116 192 116 133 139 102 c 0xe9
344 346 m 0
 343 365 333 385 318 397 c 0
 301 411 275 418 244 418 c 0
 199 418 163 405 141 379 c 0
 116 350 116 300 116 280 c 1
 208 280 l 2
 271 280 299 280 320 296 c 0
 333 306 344 323 344 346 c 0
EndSplineSet
EndChar

StartChar: igrave
Encoding: 236 236 172
Width: 214
GlyphClass: 2
Flags: MW
HStem: 0 21G<72 142 72 72> 546 120<0 153 0 87>
VStem: 0 153<546 666> 72 70<0 477 0 477>
LayerCount: 2
Fore
SplineSet
0 666 m 1x60
 78 666 l 1
 153 546 l 1
 87 546 l 1
 0 666 l 1x60
72 477 m 1x90
 142 477 l 1
 142 0 l 1
 72 0 l 1
 72 477 l 1x90
EndSplineSet
EndChar

StartChar: iacute
Encoding: 237 237 173
Width: 214
GlyphClass: 2
Flags: MW
HStem: 0 21G<72 142 72 72> 546 120<61 214 61 214>
VStem: 61 153<546 666> 72 70<0 477 0 477>
LayerCount: 2
Fore
SplineSet
214 666 m 1x60
 127 546 l 1
 61 546 l 1
 136 666 l 1
 214 666 l 1x60
72 477 m 1x90
 142 477 l 1
 142 0 l 1
 72 0 l 1
 72 477 l 1x90
EndSplineSet
EndChar

StartChar: icircumflex
Encoding: 238 238 174
Width: 214
GlyphClass: 2
Flags: MW
HStem: 0 21G<72 142 72 72> 546 120<-27 146 -27 146 68 241 68 175>
VStem: -27 268<546 546> 72 70<0 477 0 477>
LayerCount: 2
Fore
SplineSet
68 666 m 1x60
 146 666 l 1
 241 546 l 1
 175 546 l 1
 107 622 l 1
 39 546 l 1
 -27 546 l 1
 68 666 l 1x60
72 477 m 1x90
 142 477 l 1
 142 0 l 1
 72 0 l 1
 72 477 l 1x90
EndSplineSet
EndChar

StartChar: idieresis
Encoding: 239 239 175
Width: 214
GlyphClass: 2
Flags: MW
HStem: 0 21G<72 142 72 72> 550 94<3 31 183 211>
VStem: -30 94<583 611> 72 70<0 477 0 477> 150 94<583 611>
CounterMasks: 1 38
LayerCount: 2
Fore
SplineSet
197 644 m 0
 225 644 244 625 244 597 c 0
 244 569 225 550 197 550 c 0
 169 550 150 569 150 597 c 0
 150 625 169 644 197 644 c 0
17 644 m 0
 45 644 64 625 64 597 c 0
 64 569 45 550 17 550 c 0
 -11 550 -30 569 -30 597 c 0
 -30 625 -11 644 17 644 c 0
72 477 m 1
 142 477 l 1
 142 0 l 1
 72 0 l 1
 72 477 l 1
EndSplineSet
EndChar

StartChar: eth
Encoding: 240 240 176
Width: 485
GlyphClass: 2
Flags: MW
HStem: -6 66<228.5 251.5 228.5 270> 418 66<228.5 251.5>
VStem: 55 70<211.5 267 211 274.5> 355 70<211.5 267>
LayerCount: 2
Fore
SplineSet
240 418 m 0
 217 418 181 412 157 385 c 0
 125 349 125 295 125 239 c 0
 125 183 125 129 157 93 c 0
 181 66 217 60 240 60 c 0
 263 60 299 66 323 93 c 0
 355 129 355 183 355 239 c 0
 355 295 355 349 323 385 c 0
 299 412 263 418 240 418 c 0
235 484 m 0
 277 484 314 469 344 439 c 1
 332 498 307 549 276 589 c 1
 189 541 l 1
 163 587 l 1
 238 628 l 1
 214 648 187 664 159 674 c 1
 177 723 l 1
 220 709 259 687 292 658 c 1
 381 707 l 1
 407 661 l 1
 331 620 l 1
 395 535 425 420 425 239 c 0
 425 184 425 120 390 68 c 0
 357 19 300 -6 240 -6 c 0
 180 -6 123 19 90 68 c 0
 55 120 55 184 55 239 c 0
 55 310 55 372 102 427 c 0
 131 461 178 484 235 484 c 0
EndSplineSet
EndChar

StartChar: ntilde
Encoding: 241 241 177
Width: 460
GlyphClass: 2
Flags: MW
HStem: 0 21G<55 125 55 55 335 405 335 335> 418 66<213.5 246.5> 550 52<288 306 288 321.5> 588 52<168 186>
VStem: 55 70<0 256 0 291> 89 56<556 565.5 556 580> 329 56<624.5 634> 335 70<0 256 0 287>
LayerCount: 2
Fore
SplineSet
297 550 m 0x26
 268 550 243 562 224 572 c 0
 209 579 195 588 177 588 c 0
 159 588 145 575 145 556 c 1
 89 556 l 1
 89 604 128 640 177 640 c 0x16
 207 640 231 628 250 618 c 0
 265 611 279 602 297 602 c 0
 315 602 329 615 329 634 c 1
 385 634 l 1
 385 586 346 550 297 550 c 0x26
230 484 m 0xc9
 291 484 334 458 358 433 c 0
 405 384 405 326 405 256 c 2
 405 0 l 1
 335 0 l 1
 335 256 l 2
 335 318 335 360 306 389 c 0
 289 406 263 418 230 418 c 0
 197 418 171 406 154 389 c 0
 125 360 125 318 125 256 c 2
 125 0 l 1
 55 0 l 1
 55 256 l 2
 55 326 55 384 102 433 c 0
 126 458 169 484 230 484 c 0xc9
EndSplineSet
EndChar

StartChar: ograve
Encoding: 242 242 178
Width: 470
GlyphClass: 2
Flags: MW
HStem: -6 66<213 257 213 270.5> 418 66<213 257> 546 120<138 291 138 225>
VStem: 45 70<213.5 264.5 213.5 267.5> 138 153<546 666> 355 70<213.5 264.5>
LayerCount: 2
Fore
SplineSet
138 666 m 1
 216 666 l 1
 291 546 l 1
 225 546 l 1
 138 666 l 1
235 418 m 0
 191 418 157 400 137 370 c 0
 115 337 115 290 115 239 c 0
 115 188 115 141 137 108 c 0
 157 78 191 60 235 60 c 0
 279 60 313 78 333 108 c 0
 355 141 355 188 355 239 c 0
 355 290 355 337 333 370 c 0
 313 400 279 418 235 418 c 0
235 484 m 0
 306 484 364 452 396 399 c 0
 425 351 425 296 425 239 c 0
 425 182 425 127 396 79 c 0
 364 26 306 -6 235 -6 c 0
 164 -6 106 26 74 79 c 0
 45 127 45 182 45 239 c 0
 45 296 45 351 74 399 c 0
 106 452 164 484 235 484 c 0
EndSplineSet
EndChar

StartChar: oacute
Encoding: 243 243 179
Width: 470
GlyphClass: 2
Flags: MW
HStem: -6 66<213 257 213 270.5> 418 66<213 257> 546 120<199 352 199 352>
VStem: 45 70<213.5 264.5 213.5 267.5> 199 153<546 666> 355 70<213.5 264.5>
LayerCount: 2
Fore
SplineSet
352 666 m 1
 265 546 l 1
 199 546 l 1
 274 666 l 1
 352 666 l 1
235 418 m 0
 191 418 157 400 137 370 c 0
 115 337 115 290 115 239 c 0
 115 188 115 141 137 108 c 0
 157 78 191 60 235 60 c 0
 279 60 313 78 333 108 c 0
 355 141 355 188 355 239 c 0
 355 290 355 337 333 370 c 0
 313 400 279 418 235 418 c 0
235 484 m 0
 306 484 364 452 396 399 c 0
 425 351 425 296 425 239 c 0
 425 182 425 127 396 79 c 0
 364 26 306 -6 235 -6 c 0
 164 -6 106 26 74 79 c 0
 45 127 45 182 45 239 c 0
 45 296 45 351 74 399 c 0
 106 452 164 484 235 484 c 0
EndSplineSet
EndChar

StartChar: ocircumflex
Encoding: 244 244 180
Width: 470
GlyphClass: 2
Flags: MW
HStem: -6 66<213 257 213 270.5> 418 66<213 257> 546 120<111 284 111 284 206 379 206 313>
VStem: 45 70<213.5 264.5 213.5 267.5> 111 268<546 546> 355 70<213.5 264.5>
LayerCount: 2
Fore
SplineSet
206 666 m 1x28
 284 666 l 1
 379 546 l 1
 313 546 l 1
 245 622 l 1
 177 546 l 1
 111 546 l 1
 206 666 l 1x28
235 418 m 0xd4
 191 418 157 400 137 370 c 0
 115 337 115 290 115 239 c 0
 115 188 115 141 137 108 c 0
 157 78 191 60 235 60 c 0
 279 60 313 78 333 108 c 0
 355 141 355 188 355 239 c 0
 355 290 355 337 333 370 c 0
 313 400 279 418 235 418 c 0xd4
235 484 m 0
 306 484 364 452 396 399 c 0
 425 351 425 296 425 239 c 0
 425 182 425 127 396 79 c 0
 364 26 306 -6 235 -6 c 0
 164 -6 106 26 74 79 c 0
 45 127 45 182 45 239 c 0
 45 296 45 351 74 399 c 0
 106 452 164 484 235 484 c 0
EndSplineSet
EndChar

StartChar: otilde
Encoding: 245 245 181
Width: 470
GlyphClass: 2
Flags: MW
HStem: -6 66<213 257 213 270.5> 418 66<213 257> 550 52<296 314 296 329.5> 588 52<176 194>
VStem: 45 70<213.5 264.5 213.5 267.5> 97 56<556 565.5 556 580> 337 56<624.5 634> 355 70<213.5 264.5>
LayerCount: 2
Fore
SplineSet
305 550 m 0x26
 276 550 251 562 232 572 c 0
 217 579 203 588 185 588 c 0
 167 588 153 575 153 556 c 1
 97 556 l 1
 97 604 136 640 185 640 c 0x16
 215 640 239 628 258 618 c 0
 273 611 287 602 305 602 c 0
 323 602 337 615 337 634 c 1
 393 634 l 1
 393 586 354 550 305 550 c 0x26
235 418 m 0xc9
 191 418 157 400 137 370 c 0
 115 337 115 290 115 239 c 0
 115 188 115 141 137 108 c 0
 157 78 191 60 235 60 c 0
 279 60 313 78 333 108 c 0
 355 141 355 188 355 239 c 0
 355 290 355 337 333 370 c 0
 313 400 279 418 235 418 c 0xc9
235 484 m 0
 306 484 364 452 396 399 c 0
 425 351 425 296 425 239 c 0
 425 182 425 127 396 79 c 0
 364 26 306 -6 235 -6 c 0
 164 -6 106 26 74 79 c 0
 45 127 45 182 45 239 c 0
 45 296 45 351 74 399 c 0
 106 452 164 484 235 484 c 0
EndSplineSet
EndChar

StartChar: odieresis
Encoding: 246 246 182
Width: 470
GlyphClass: 2
Flags: MW
HStem: -6 66<213 257 213 270.5> 418 66<213 257> 550 94<141 169 321 349>
VStem: 45 70<213.5 264.5 213.5 267.5> 108 94<583 611> 288 94<583 611> 355 70<213.5 264.5>
LayerCount: 2
Fore
SplineSet
335 644 m 0x2c
 363 644 382 625 382 597 c 0
 382 569 363 550 335 550 c 0
 307 550 288 569 288 597 c 0
 288 625 307 644 335 644 c 0x2c
155 644 m 0
 183 644 202 625 202 597 c 0
 202 569 183 550 155 550 c 0
 127 550 108 569 108 597 c 0
 108 625 127 644 155 644 c 0
235 418 m 0xd2
 191 418 157 400 137 370 c 0
 115 337 115 290 115 239 c 0
 115 188 115 141 137 108 c 0
 157 78 191 60 235 60 c 0
 279 60 313 78 333 108 c 0
 355 141 355 188 355 239 c 0
 355 290 355 337 333 370 c 0
 313 400 279 418 235 418 c 0xd2
235 484 m 0
 306 484 364 452 396 399 c 0
 425 351 425 296 425 239 c 0
 425 182 425 127 396 79 c 0
 364 26 306 -6 235 -6 c 0
 164 -6 106 26 74 79 c 0
 45 127 45 182 45 239 c 0
 45 296 45 351 74 399 c 0
 106 452 164 484 235 484 c 0
EndSplineSet
EndChar

StartChar: divide
Encoding: 247 247 183
Width: 520
GlyphClass: 2
Flags: MW
HStem: 58 91<247.5 274.5> 222 58<80 440 80 440> 348 91<247.5 274.5>
VStem: 215 92<90 116.5 380.5 407>
LayerCount: 2
Fore
SplineSet
80 280 m 1
 440 280 l 1
 440 222 l 1
 80 222 l 1
 80 280 l 1
261 439 m 0
 288 439 307 420 307 394 c 0
 307 367 288 348 261 348 c 0
 234 348 215 367 215 394 c 0
 215 420 234 439 261 439 c 0
261 149 m 0
 288 149 307 130 307 103 c 0
 307 77 288 58 261 58 c 0
 234 58 215 77 215 103 c 0
 215 130 234 149 261 149 c 0
EndSplineSet
EndChar

StartChar: oslash
Encoding: 248 248 184
Width: 490
GlyphClass: 2
Flags: MW
HStem: -20 21G<45 103 45 45> -6 66<230.5 265 230.5 275.5> 418 66<225 259.5>
VStem: 55 70<216.5 266 216.5 268> 365 70<212 261.5>
LayerCount: 2
Fore
SplineSet
245 418 m 0x38
 205 418 170 403 150 375 c 0
 125 340 125 293 125 239 c 0
 125 194 125 155 139 122 c 1
 319 396 l 1
 300 410 274 418 245 418 c 0x38
245 484 m 0
 285 484 324 474 357 452 c 1
 387 498 l 1
 445 498 l 1
 393 419 l 1
 435 367 435 300 435 239 c 0
 435 181 435 120 400 69 c 0
 365 18 306 -6 245 -6 c 0x78
 205 -6 166 4 133 26 c 1
 103 -20 l 1
 45 -20 l 1xb8
 97 59 l 1
 55 112 55 177 55 239 c 0
 55 297 55 358 90 409 c 0
 125 460 184 484 245 484 c 0
245 60 m 0
 285 60 320 75 340 103 c 0
 365 138 365 185 365 239 c 0
 365 284 365 323 351 356 c 1
 171 82 l 1
 190 68 216 60 245 60 c 0
EndSplineSet
EndChar

StartChar: ugrave
Encoding: 249 249 185
Width: 460
GlyphClass: 2
Flags: MW
HStem: -6 66<213.5 246.5 213.5 260.5> 545 120<130 283 130 217>
VStem: 55 70<222 478> 130 153<545 665> 335 70<222 478>
LayerCount: 2
Fore
SplineSet
130 665 m 1
 208 665 l 1
 283 545 l 1
 217 545 l 1
 130 665 l 1
55 478 m 1
 125 478 l 1
 125 222 l 2
 125 160 125 118 154 89 c 0
 171 72 197 60 230 60 c 0
 263 60 289 72 306 89 c 0
 335 118 335 160 335 222 c 2
 335 478 l 1
 405 478 l 1
 405 222 l 2
 405 152 405 94 358 45 c 0
 334 20 291 -6 230 -6 c 0
 169 -6 126 20 102 45 c 0
 55 94 55 152 55 222 c 2
 55 478 l 1
EndSplineSet
EndChar

StartChar: uacute
Encoding: 250 250 186
Width: 460
GlyphClass: 2
Flags: MW
HStem: -6 66<213.5 246.5 213.5 260.5> 545 120<191 344 191 344>
VStem: 55 70<222 478> 191 153<545 665> 335 70<222 478>
LayerCount: 2
Fore
SplineSet
344 665 m 1x50
 257 545 l 1
 191 545 l 1
 266 665 l 1
 344 665 l 1x50
55 478 m 1xa8
 125 478 l 1
 125 222 l 2
 125 160 125 118 154 89 c 0
 171 72 197 60 230 60 c 0
 263 60 289 72 306 89 c 0
 335 118 335 160 335 222 c 2
 335 478 l 1
 405 478 l 1
 405 222 l 2
 405 152 405 94 358 45 c 0
 334 20 291 -6 230 -6 c 0
 169 -6 126 20 102 45 c 0
 55 94 55 152 55 222 c 2
 55 478 l 1xa8
EndSplineSet
EndChar

StartChar: ucircumflex
Encoding: 251 251 187
Width: 460
GlyphClass: 2
Flags: MW
HStem: -6 66<213.5 246.5 213.5 260.5> 545 120<103 276 103 276 198 371 198 305>
VStem: 55 70<222 478> 103 268<545 545> 335 70<222 478>
LayerCount: 2
Fore
SplineSet
198 665 m 1x50
 276 665 l 1
 371 545 l 1
 305 545 l 1
 237 621 l 1
 169 545 l 1
 103 545 l 1
 198 665 l 1x50
55 478 m 1xa8
 125 478 l 1
 125 222 l 2
 125 160 125 118 154 89 c 0
 171 72 197 60 230 60 c 0
 263 60 289 72 306 89 c 0
 335 118 335 160 335 222 c 2
 335 478 l 1
 405 478 l 1
 405 222 l 2
 405 152 405 94 358 45 c 0
 334 20 291 -6 230 -6 c 0
 169 -6 126 20 102 45 c 0
 55 94 55 152 55 222 c 2
 55 478 l 1xa8
EndSplineSet
EndChar

StartChar: udieresis
Encoding: 252 252 188
Width: 460
GlyphClass: 2
Flags: MW
HStem: -6 66<213.5 246.5 213.5 260.5> 549 94<133 161 313 341>
VStem: 55 70<222 478> 100 94<582 610> 280 94<582 610> 335 70<222 478>
LayerCount: 2
Fore
SplineSet
327 643 m 0x58
 355 643 374 624 374 596 c 0
 374 568 355 549 327 549 c 0
 299 549 280 568 280 596 c 0
 280 624 299 643 327 643 c 0x58
147 643 m 0
 175 643 194 624 194 596 c 0
 194 568 175 549 147 549 c 0
 119 549 100 568 100 596 c 0
 100 624 119 643 147 643 c 0
55 478 m 1xa4
 125 478 l 1
 125 222 l 2
 125 160 125 118 154 89 c 0
 171 72 197 60 230 60 c 0
 263 60 289 72 306 89 c 0
 335 118 335 160 335 222 c 2
 335 478 l 1
 405 478 l 1
 405 222 l 2
 405 152 405 94 358 45 c 0
 334 20 291 -6 230 -6 c 0
 169 -6 126 20 102 45 c 0
 55 94 55 152 55 222 c 2
 55 478 l 1xa4
EndSplineSet
EndChar

StartChar: yacute
Encoding: 253 253 189
Width: 418
GlyphClass: 2
Flags: MW
HStem: -189 66<137.5 154.5 137.5 166> 546 120<160 313 160 313>
VStem: 160 153<546 666>
LayerCount: 2
Fore
SplineSet
313 666 m 1
 226 546 l 1
 160 546 l 1
 235 666 l 1
 313 666 l 1
15 478 m 1
 88 478 l 1
 182 156 l 2
 197 104 204 82 210 73 c 0
 216 64 226 62 236 61 c 1
 326 478 l 1
 398 478 l 1
 283 -41 l 2
 272 -90 264 -121 242 -146 c 0
 221 -170 187 -189 145 -189 c 0
 123 -189 100 -184 78 -176 c 1
 99 -114 l 1
 115 -120 130 -123 145 -123 c 0
 164 -123 177 -117 188 -106 c 0
 202 -92 208 -69 222 -4 c 1
 194 0 171 13 157 31 c 0
 142 51 138 69 116 141 c 2
 15 478 l 1
EndSplineSet
EndChar

StartChar: thorn
Encoding: 254 254 190
Width: 490
GlyphClass: 2
Flags: MW
HStem: -6 66<238.5 261.5 238.5 284> 418 66<238.5 261.5> 646 20G<65 135 135 135>
VStem: 65 70<-183 51 211 267 427 666> 365 70<211.5 266.5 211.5 267>
LayerCount: 2
Fore
SplineSet
255 484 m 0
 313 484 368.97265625 458.982421875 401 410 c 0
 435 358 435 294 435 239 c 0
 435 184 434.971679688 120.018554688 401 68 c 0
 369 19 313 -6 255 -6 c 0
 216 -6 168 6 135 51 c 1
 135 -183 l 1
 65 -183 l 1
 65 666 l 1
 135 666 l 1
 135 427 l 1
 168 472 216 484 255 484 c 0
250 418 m 0
 227 418 191 412 167 385 c 0
 135 349 135 295 135 239 c 0
 135 183 135 129 167 93 c 0
 191 66 227 60 250 60 c 0
 273 60 309 66 333 93 c 0
 365 129 365 183 365 239 c 0
 365 295 365 349 333 385 c 0
 309 412 273 418 250 418 c 0
EndSplineSet
EndChar

StartChar: ydieresis
Encoding: 255 255 191
Width: 418
GlyphClass: 2
Flags: MW
HStem: -189 66<137.5 154.5 137.5 166> 551 94<102 130 282 310>
VStem: 69 94<584 612> 249 94<584 612>
LayerCount: 2
Fore
SplineSet
296 645 m 0
 324 645 343 626 343 598 c 0
 343 570 324 551 296 551 c 0
 268 551 249 570 249 598 c 0
 249 626 268 645 296 645 c 0
116 645 m 0
 144 645 163 626 163 598 c 0
 163 570 144 551 116 551 c 0
 88 551 69 570 69 598 c 0
 69 626 88 645 116 645 c 0
15 478 m 1
 88 478 l 1
 182 156 l 2
 197 104 204 82 210 73 c 0
 216 64 226 62 236 61 c 1
 326 478 l 1
 398 478 l 1
 283 -41 l 2
 272 -90 264 -121 242 -146 c 0
 221 -170 187 -189 145 -189 c 0
 123 -189 100 -184 78 -176 c 1
 99 -114 l 1
 115 -120 130 -123 145 -123 c 0
 164 -123 177 -117 188 -106 c 0
 202 -92 208 -69 222 -4 c 1
 194 0 171 13 157 31 c 0
 142 51 138 69 116 141 c 2
 15 478 l 1
EndSplineSet
EndChar

StartChar: Amacron
Encoding: 256 256 192
Width: 594
GlyphClass: 2
Flags: MW
HStem: 0 21G<35 111 35 35 483 559 483 483> 195 70<182 412 182 431 163 412> 602 70<293 301> 746 56<159 409 159 409>
VStem: 159 250<746 802 746 802>
LayerCount: 2
Fore
SplineSet
159 802 m 1
 409 802 l 1
 409 746 l 1
 159 746 l 1
 159 802 l 1
297 672 m 0
 323 672 350 663 370 644 c 0
 387 628 395 614 416 534 c 2
 559 0 l 1
 483 0 l 1
 431 195 l 1
 163 195 l 1
 111 0 l 1
 35 0 l 1
 178 534 l 2
 199 614 207 628 224 644 c 0
 244 663 271 672 297 672 c 0
182 265 m 1
 412 265 l 1
 344 518 l 2
 330 572 325 587 318 594 c 0
 313 599 305 602 297 602 c 0
 289 602 281 599 276 594 c 0
 269 587 264 572 250 518 c 2
 182 265 l 1
EndSplineSet
EndChar

StartChar: amacron
Encoding: 257 257 193
Width: 438
GlyphClass: 2
Flags: MW
HStem: -6 66<200 234.5 200 246> 229 62<219 318 236 318> 418 66<191 232> 556 56<92 342 92 342>
VStem: 35 70<128 157.5 128 168.5> 92 250<556 612 556 612> 318 70<200 229 229 229>
LayerCount: 2
Fore
SplineSet
92 612 m 1x14
 342 612 l 1
 342 556 l 1
 92 556 l 1
 92 612 l 1x14
388 200 m 2xea
 388 133 388 87 353 46 c 0
 323 11 276 -6 216 -6 c 0
 168 -6 127 4 95 27 c 0
 62 50 35 90 35 142 c 0
 35 195 62 234 94 257 c 0
 141 291 197 291 236 291 c 2
 318 291 l 1
 318 322 318 362 294 389 c 0
 277 408 251 418 213 418 c 0
 169 418 125 408 83 392 c 1
 61 455 l 1
 108 472 159 484 213 484 c 0
 273 484 318 465 348 431 c 0
 388 386 388 327 388 274 c 2
 388 200 l 2xea
318 200 m 2
 318 229 l 1
 236 229 l 2
 202 229 166 229 138 209 c 0
 120 196 105 173 105 142 c 0
 105 114 119 92 137 79 c 0
 156 66 184 60 216 60 c 0
 253 60 282 68 299 88 c 0
 318 110 318 141 318 200 c 2
EndSplineSet
EndChar

StartChar: Abreve
Encoding: 258 258 194
Width: 594
GlyphClass: 2
Flags: MW
HStem: 0 21G<35 111 35 35 483 559 483 483> 195 70<182 412 182 431 163 412> 602 70<293 301> 730 52<261.998 309.998 261.998 325.498> 836 20G<161.998 217.998 217.998 217.998 353.998 409.998 409.998 409.998>
VStem: 161.998 56 353.998 56
LayerCount: 2
Fore
SplineSet
161.998046875 856 m 1
 217.998046875 856 l 1
 217.998046875 807.51953125 237.998046875 782 285.998046875 782 c 0
 333.998046875 782 353.998046875 807.51953125 353.998046875 856 c 1
 409.998046875 856 l 1
 409.998046875 778.53515625 364.998046875 730 285.998046875 730 c 0
 206.998046875 730 161.998046875 778.53515625 161.998046875 856 c 1
297 672 m 0
 323 672 350 663 370 644 c 0
 387 628 395 614 416 534 c 2
 559 0 l 1
 483 0 l 1
 431 195 l 1
 163 195 l 1
 111 0 l 1
 35 0 l 1
 178 534 l 2
 199 614 207 628 224 644 c 0
 244 663 271 672 297 672 c 0
182 265 m 1
 412 265 l 1
 344 518 l 2
 330 572 325 587 318 594 c 0
 313 599 305 602 297 602 c 0
 289 602 281 599 276 594 c 0
 269 587 264 572 250 518 c 2
 182 265 l 1
EndSplineSet
EndChar

StartChar: abreve
Encoding: 259 259 195
Width: 438
GlyphClass: 2
Flags: MW
HStem: -6 66<200 234.5 200 246> 229 62<219 318 236 318> 418 66<191 232> 540 52<194.998 242.998 194.998 258.498> 646 20G<94.998 150.998 150.998 150.998 286.998 342.998 342.998 342.998>
VStem: 35 70<128 157.5 128 168.5> 94.998 56 286.998 56 318 70<200 229 229 229>
LayerCount: 2
Fore
SplineSet
94.998046875 666 m 1x19
 150.998046875 666 l 1
 150.998046875 617.51953125 170.998046875 592 218.998046875 592 c 0
 266.998046875 592 286.998046875 617.51953125 286.998046875 666 c 1
 342.998046875 666 l 1
 342.998046875 588.53515625 297.998046875 540 218.998046875 540 c 0
 139.998046875 540 94.998046875 588.53515625 94.998046875 666 c 1x19
388 200 m 2xe480
 388 133 388 87 353 46 c 0
 323 11 276 -6 216 -6 c 0
 168 -6 127 4 95 27 c 0
 62 50 35 90 35 142 c 0
 35 195 62 234 94 257 c 0
 141 291 197 291 236 291 c 2
 318 291 l 1
 318 322 318 362 294 389 c 0
 277 408 251 418 213 418 c 0
 169 418 125 408 83 392 c 1
 61 455 l 1
 108 472 159 484 213 484 c 0
 273 484 318 465 348 431 c 0
 388 386 388 327 388 274 c 2
 388 200 l 2xe480
318 200 m 2
 318 229 l 1
 236 229 l 2
 202 229 166 229 138 209 c 0
 120 196 105 173 105 142 c 0
 105 114 119 92 137 79 c 0
 156 66 184 60 216 60 c 0
 253 60 282 68 299 88 c 0
 318 110 318 141 318 200 c 2
EndSplineSet
EndChar

StartChar: Aogonek
Encoding: 260 260 196
Width: 594
GlyphClass: 2
Flags: MW
HStem: -189 56<479.5 496 479.5 503.5> 0 21G<35 111 35 35 483 483 559 559> 195 70<182 412 182 431 163 412> 602 70<293 301>
VStem: 398 56<-106.5 -72.5>
LayerCount: 2
Fore
SplineSet
297 672 m 0
 323 672 350 663 370 644 c 0
 387 628 395 614 416 534 c 2
 559 0 l 1
 513 -12 454 -39 454 -96 c 0
 454 -117 469 -133 490 -133 c 0
 502 -133 515 -128 529 -119 c 1
 559 -167 l 1
 540 -178 517 -189 490 -189 c 0
 438 -189 398 -148 398 -96 c 0
 398 -49 439 -19 483 0 c 1
 431 195 l 1
 163 195 l 1
 111 0 l 1
 35 0 l 1
 178 534 l 2
 199 614 207 628 224 644 c 0
 244 663 271 672 297 672 c 0
182 265 m 1
 412 265 l 1
 344 518 l 2
 330 572 325 587 318 594 c 0
 313 599 305 602 297 602 c 0
 289 602 281 599 276 594 c 0
 269 587 264 572 250 518 c 2
 182 265 l 1
EndSplineSet
EndChar

StartChar: aogonek
Encoding: 261 261 197
Width: 438
GlyphClass: 2
Flags: MW
HStem: -168 56<275.5 292 275.5 299.5> -6 66<200 220> 229 62<219 318 236 318> 418 66<191 232>
VStem: 35 70<128 157.5 128 168.5> 194 56<-85.5 -60.5> 318 70<200 229 229 229>
LayerCount: 2
Fore
SplineSet
318 200 m 2
 318 229 l 1
 236 229 l 2
 202 229 166 229 138 209 c 0
 120 196 105 173 105 142 c 0
 105 114 119 92 137 79 c 0
 156 66 184 60 216 60 c 0
 253 60 282 68 299 88 c 0
 318 110 318 141 318 200 c 2
388 200 m 2
 388 134 388 85 353 46 c 0
 320 9 250 -22 250 -75 c 0
 250 -96 265 -112 286 -112 c 0
 298 -112 311 -107 325 -98 c 1
 355 -146 l 1
 336 -157 313 -168 286 -168 c 0
 234 -168 194 -127 194 -75 c 0
 194 -46 218 -18 239 -4 c 1
 231 -6 224 -6 216 -6 c 0
 168 -6 127 4 95 27 c 0
 62 50 35 90 35 142 c 0
 35 195 62 234 94 257 c 0
 141 291 197 291 236 291 c 2
 318 291 l 1
 318 322 318 362 294 389 c 0
 277 408 251 418 213 418 c 0
 169 418 125 408 83 392 c 1
 61 455 l 1
 108 472 159 484 213 484 c 0
 273 484 318 465 348 431 c 0
 388 386 388 327 388 274 c 2
 388 200 l 2
EndSplineSet
EndChar

StartChar: Cacute
Encoding: 262 262 198
Width: 536
GlyphClass: 2
Flags: MW
HStem: -6 70<264.278 316 264.278 324.5> 602 70<264.278 314> 735 120<244 397 244 397>
VStem: 65 74<270.5 395.5 270.5 397.5> 244 153<735 855>
LayerCount: 2
Fore
SplineSet
397 855 m 1
 310 735 l 1
 244 735 l 1
 319 855 l 1
 397 855 l 1
290 672 m 0
 352 672 416 651 465 611 c 1
 422 555 l 1
 386 585 338 602 290 602 c 0
 238.556640625 602 198.372070312 582.874023438 174 552 c 0
 139 506 139 458 139 333 c 0
 139 208 139 160 174 114 c 0
 198.372070312 83.1259765625 238.556640625 64 290 64 c 0
 342 64 394 83 431 117 c 1
 476 62 l 1
 426 18 359 -6 290 -6 c 0
 206.528320312 -6 148.19921875 29 113 74 c 0
 65 137 65 204 65 333 c 0
 65 462 65 529 113 592 c 0
 148.19921875 637 206.528320312 672 290 672 c 0
EndSplineSet
EndChar

StartChar: cacute
Encoding: 263 263 199
Width: 419
GlyphClass: 2
Flags: MW
HStem: -6 66<215.5 254 215.5 260.5> 418 66<219.5 253> 547 120<189 342 189 342>
VStem: 45 70<217.5 265 217.5 269> 189 153<547 667>
LayerCount: 2
Fore
SplineSet
342 667 m 1
 255 547 l 1
 189 547 l 1
 264 667 l 1
 342 667 l 1
343 93 m 1
 379 37 l 1
 337 9 286 -6 235 -6 c 0
 171 -6 124.0625 18.0546875 93 53 c 0
 45 107 45 184 45 243 c 0
 45 295 45 370 92 424 c 0
 123 460 171 484 235 484 c 0
 283 484 331 471 372 445 c 1
 338 388 l 1
 308 407 271 418 235 418 c 0
 204 418 170 410 146 382 c 0
 115 346 115 287 115 243 c 0
 115 192 115 132 147 95 c 0
 166.015625 73.013671875 196 60 235 60 c 0
 273 60 311 71 343 93 c 1
EndSplineSet
EndChar

StartChar: Ccircumflex
Encoding: 264 264 200
Width: 536
GlyphClass: 2
Flags: MW
HStem: -6 70<264.278 316 264.278 324.5> 602 70<264.278 314> 735 120<156 329 156 329 251 424 251 358>
VStem: 65 74<270.5 395.5 270.5 397.5> 156 268<735 735>
LayerCount: 2
Fore
SplineSet
251 855 m 1
 329 855 l 1
 424 735 l 1
 358 735 l 1
 290 811 l 1
 222 735 l 1
 156 735 l 1
 251 855 l 1
290 672 m 0
 352 672 416 651 465 611 c 1
 422 555 l 1
 386 585 338 602 290 602 c 0
 238.556640625 602 198.372070312 582.874023438 174 552 c 0
 139 506 139 458 139 333 c 0
 139 208 139 160 174 114 c 0
 198.372070312 83.1259765625 238.556640625 64 290 64 c 0
 342 64 394 83 431 117 c 1
 476 62 l 1
 426 18 359 -6 290 -6 c 0
 206.528320312 -6 148.19921875 29 113 74 c 0
 65 137 65 204 65 333 c 0
 65 462 65 529 113 592 c 0
 148.19921875 637 206.528320312 672 290 672 c 0
EndSplineSet
EndChar

StartChar: ccircumflex
Encoding: 265 265 201
Width: 419
GlyphClass: 2
Flags: MW
HStem: -6 66<215.5 254 215.5 260.5> 418 66<219.5 253> 547 120<101 274 101 274 196 369 196 303>
VStem: 45 70<217.5 265 217.5 269> 101 268<547 547>
LayerCount: 2
Fore
SplineSet
196 667 m 1x28
 274 667 l 1
 369 547 l 1
 303 547 l 1
 235 623 l 1
 167 547 l 1
 101 547 l 1
 196 667 l 1x28
343 93 m 1xd0
 379 37 l 1
 337 9 286 -6 235 -6 c 0
 171 -6 124.0625 18.0546875 93 53 c 0
 45 107 45 184 45 243 c 0
 45 295 45 370 92 424 c 0
 123 460 171 484 235 484 c 0
 283 484 331 471 372 445 c 1
 338 388 l 1
 308 407 271 418 235 418 c 0
 204 418 170 410 146 382 c 0
 115 346 115 287 115 243 c 0
 115 192 115 132 147 95 c 0
 166.015625 73.013671875 196 60 235 60 c 0
 273 60 311 71 343 93 c 1xd0
EndSplineSet
EndChar

StartChar: Cdotaccent
Encoding: 266 266 202
Width: 536
GlyphClass: 2
Flags: MW
HStem: -6 70<264.278 316 264.278 324.5> 602 70<264.278 314> 739 94<276.5 303.5>
VStem: 65 74<270.5 395.5 270.5 397.5> 243 94<772 800>
LayerCount: 2
Fore
SplineSet
290 833 m 0
 317 833 337 814 337 786 c 0
 337 758 317 739 290 739 c 0
 263 739 243 758 243 786 c 0
 243 814 263 833 290 833 c 0
290 672 m 0
 352 672 416 651 465 611 c 1
 422 555 l 1
 386 585 338 602 290 602 c 0
 238.556640625 602 198.372070312 582.874023438 174 552 c 0
 139 506 139 458 139 333 c 0
 139 208 139 160 174 114 c 0
 198.372070312 83.1259765625 238.556640625 64 290 64 c 0
 342 64 394 83 431 117 c 1
 476 62 l 1
 426 18 359 -6 290 -6 c 0
 206.528320312 -6 148.19921875 29 113 74 c 0
 65 137 65 204 65 333 c 0
 65 462 65 529 113 592 c 0
 148.19921875 637 206.528320312 672 290 672 c 0
EndSplineSet
EndChar

StartChar: cdotaccent
Encoding: 267 267 203
Width: 419
GlyphClass: 2
Flags: MW
HStem: -6 66<215.5 254 215.5 260.5> 418 66<219.5 253> 551 94<221.5 248.5>
VStem: 45 70<217.5 265 217.5 269> 188 94<584 612>
LayerCount: 2
Fore
SplineSet
235 645 m 0
 262 645 282 626 282 598 c 0
 282 570 262 551 235 551 c 0
 208 551 188 570 188 598 c 0
 188 626 208 645 235 645 c 0
343 93 m 1
 379 37 l 1
 337 9 286 -6 235 -6 c 0
 171 -6 124.0625 18.0546875 93 53 c 0
 45 107 45 184 45 243 c 0
 45 295 45 370 92 424 c 0
 123 460 171 484 235 484 c 0
 283 484 331 471 372 445 c 1
 338 388 l 1
 308 407 271 418 235 418 c 0
 204 418 170 410 146 382 c 0
 115 346 115 287 115 243 c 0
 115 192 115 132 147 95 c 0
 166.015625 73.013671875 196 60 235 60 c 0
 273 60 311 71 343 93 c 1
EndSplineSet
EndChar

StartChar: Ccaron
Encoding: 268 268 204
Width: 536
GlyphClass: 2
Flags: MW
HStem: -6 70<264.278 316 264.278 324.5> 602 70<264.278 314> 735 120<156 251 156 329>
VStem: 65 74<270.5 395.5 270.5 397.5> 156 268<855 855>
LayerCount: 2
Fore
SplineSet
251 735 m 1
 156 855 l 1
 222 855 l 1
 290 779 l 1
 358 855 l 1
 424 855 l 1
 329 735 l 1
 251 735 l 1
290 672 m 0
 352 672 416 651 465 611 c 1
 422 555 l 1
 386 585 338 602 290 602 c 0
 238.556640625 602 198.372070312 582.874023438 174 552 c 0
 139 506 139 458 139 333 c 0
 139 208 139 160 174 114 c 0
 198.372070312 83.1259765625 238.556640625 64 290 64 c 0
 342 64 394 83 431 117 c 1
 476 62 l 1
 426 18 359 -6 290 -6 c 0
 206.528320312 -6 148.19921875 29 113 74 c 0
 65 137 65 204 65 333 c 0
 65 462 65 529 113 592 c 0
 148.19921875 637 206.528320312 672 290 672 c 0
EndSplineSet
EndChar

StartChar: ccaron
Encoding: 269 269 205
Width: 419
GlyphClass: 2
Flags: MW
HStem: -6 66<215.5 254 215.5 260.5> 418 66<219.5 253> 547 120<101 196 101 274>
VStem: 45 70<217.5 265 217.5 269> 101 268<667 667>
LayerCount: 2
Fore
SplineSet
196 547 m 1x28
 101 667 l 1
 167 667 l 1
 235 591 l 1
 303 667 l 1
 369 667 l 1
 274 547 l 1
 196 547 l 1x28
343 93 m 1xd0
 379 37 l 1
 337 9 286 -6 235 -6 c 0
 171 -6 124.0625 18.0546875 93 53 c 0
 45 107 45 184 45 243 c 0
 45 295 45 370 92 424 c 0
 123 460 171 484 235 484 c 0
 283 484 331 471 372 445 c 1
 338 388 l 1
 308 407 271 418 235 418 c 0
 204 418 170 410 146 382 c 0
 115 346 115 287 115 243 c 0
 115 192 115 132 147 95 c 0
 166.015625 73.013671875 196 60 235 60 c 0
 273 60 311 71 343 93 c 1xd0
EndSplineSet
EndChar

StartChar: Dcaron
Encoding: 270 270 206
Width: 570
GlyphClass: 2
Flags: MW
HStem: 0 70<203.5 240 203.5 244.5> 596 70<203.5 240> 736 120<146 241 146 319>
VStem: 75 74<155 511> 146 268<856 856> 441 74<285 381>
LayerCount: 2
Fore
SplineSet
241 736 m 1x28
 146 856 l 1
 212 856 l 1
 280 780 l 1
 348 856 l 1
 414 856 l 1
 319 736 l 1
 241 736 l 1x28
212 666 m 0xd4
 277 666 378 666 447 597 c 0
 515 529 515 435 515 333 c 0
 515 231 515 137 447 69 c 0
 378 0 277 0 212 0 c 0
 188 0 148 0 115 28 c 0
 75 63 75 107 75 155 c 2
 75 511 l 2
 75 559 75 603 115 638 c 0
 148 666 188 666 212 666 c 0xd4
212 596 m 0
 195 596 178 596 166 587 c 0
 149 574 149 552 149 511 c 2
 149 155 l 2
 149 114 149 92 166 79 c 0
 178 70 195 70 212 70 c 0
 268 70 346 70 393 117 c 0
 441 165 441 237 441 333 c 0
 441 429 441 501 393 549 c 0
 346 596 268 596 212 596 c 0
EndSplineSet
EndChar

StartChar: dcaron
Encoding: 271 271 207
Width: 648
GlyphClass: 2
Flags: MW
HStem: -6 66<223 255.5 223 271.5> 418 66<211 249> 456 216<552 564 519 582> 646 20G<345 415 415 415>
VStem: 45 70<211.5 265 211.5 271> 345 70<194.5 232 232 256 423 666> 516 102<614.5 636.5 614.5 636.5>
LayerCount: 2
Fore
SplineSet
516 621 m 0x22
 516 652 537 672 567 672 c 0
 597 672 618 652 618 621 c 0
 618 608 614 596 610 584 c 2
 564 456 l 1
 519 456 l 1
 548 573 l 1
 529 579 516 598 516 621 c 0x22
225 484 m 0xdc
 274 484 318 461 345 423 c 1
 345 666 l 1
 415 666 l 1
 415 232 l 2
 415 157 415 107 381 60 c 0
 353 21 303 -6 240 -6 c 0
 180 -6 132 18 101 49 c 0
 45 106 45 176 45 237 c 0
 45 305 45 371 90 425 c 0
 119 460 166 484 225 484 c 0xdc
345 219 m 0
 345 293 345 348 315 383 c 0
 297 404 268 418 230 418 c 0
 192 418 163 404 145 383 c 0
 115 348 115 293 115 237 c 0
 115 186 115 134 150 96 c 0
 172 72 206 60 240 60 c 0
 271 60 301 70 321 94 c 0
 345 123 345 166 345 219 c 0
EndSplineSet
EndChar

StartChar: Dcroat
Encoding: 272 272 208
Width: 629
GlyphClass: 2
Flags: MW
HStem: 0 70<263.5 313 263.5 318> 313 62<55 125 55 125 199 328> 596 70<263.5 313>
VStem: 125 74<155 313 375 511> 491 74<287.5 378.5>
LayerCount: 2
Fore
SplineSet
282 596 m 0
 245 596 228 596 216 587 c 0
 199 574 199 552 199 511 c 2
 199 375 l 1
 328 375 l 1
 328 313 l 1
 199 313 l 1
 199 155 l 2
 199 114 199 92 216 79 c 0
 228 70 245 70 282 70 c 0
 344 70 416 70 457 130 c 0
 491 179 491 242 491 333 c 0
 491 424 491 487 457 536 c 0
 416 596 344 596 282 596 c 0
282 666 m 0
 354 666 455 666 519 574 c 0
 565 508 565 435 565 333 c 0
 565 231 565 158 519 92 c 0
 455 0 354 0 282 0 c 0
 238 0 198 0 165 28 c 0
 125 63 125 107 125 155 c 2
 125 313 l 1
 55 313 l 1
 55 375 l 1
 125 375 l 1
 125 511 l 2
 125 559 125 603 165 638 c 0
 198 666 238 666 282 666 c 0
EndSplineSet
EndChar

StartChar: dcroat
Encoding: 273 273 209
Width: 517
GlyphClass: 2
Flags: MW
HStem: -6 66<232 270 232 285.5> 418 66<228.5 251.5> 546 62<239 355 239 355 425 487> 646 20G<355 425 425 425>
VStem: 55 70<210.5 266.5> 355 70<192 239 239 267 427 546 608 666>
LayerCount: 2
Fore
SplineSet
235 484 m 0
 274 484 322 472 355 427 c 1
 355 546 l 1
 239 546 l 1
 239 608 l 1
 355 608 l 1
 355 666 l 1
 425 666 l 1
 425 608 l 1
 487 608 l 1
 487 546 l 1
 425 546 l 1
 425 239 l 2
 425 130 425 103 402 65 c 0
 374 19 321 -6 250 -6 c 0
 191 -6 132 10 93 62 c 0
 55 113 55 174 55 239 c 0
 55 294 55 358 89 410 c 0
 121 459 177 484 235 484 c 0
240 418 m 0
 217 418 181 412 157 385 c 0
 125 349 125 295 125 239 c 0
 125 182 125 130 153 96 c 0
 176 68 214 60 250 60 c 0
 290 60 324 70 342 99 c 0
 355 120 355 145 355 239 c 0
 355 295 355 349 323 385 c 0
 299 412 263 418 240 418 c 0
EndSplineSet
EndChar

StartChar: Emacron
Encoding: 274 274 210
Width: 510
GlyphClass: 2
Flags: MW
HStem: 0 70<210 445 232 445> 308 70<149 149> 596 70<213.5 445 232 445> 746 56<129 379 129 379>
VStem: 75 74<155 308 378 511> 129 250<746 802 746 802>
LayerCount: 2
Fore
SplineSet
129 802 m 1x14
 379 802 l 1
 379 746 l 1
 129 746 l 1
 129 802 l 1x14
149 378 m 1xe8
 385 379 l 1
 385 309 l 1
 149 308 l 1
 149 155 l 2
 149 114 149 92 166 79 c 0
 178 70 195 70 232 70 c 2
 445 70 l 1
 445 0 l 1
 232 0 l 2
 188 0 148 0 115 28 c 0
 75 63 75 107 75 155 c 2
 75 511 l 2
 75 559 75 603 115 638 c 0
 148 666 188 666 232 666 c 2
 445 666 l 1
 445 596 l 1
 232 596 l 2
 195 596 178 596 166 587 c 0
 149 574 149 552 149 511 c 2
 149 378 l 1xe8
EndSplineSet
EndChar

StartChar: emacron
Encoding: 275 275 211
Width: 454
GlyphClass: 2
Flags: MW
HStem: -6 66<215 260.5 215 265> 218 62<116 208 116 208> 418 66<221.5 259.5> 556 56<118 368 118 368>
VStem: 45 71<206.5 218 205 278> 118 250<556 612 556 612> 344 70<334.5 346>
LayerCount: 2
Fore
SplineSet
118 612 m 1x14
 368 612 l 1
 368 556 l 1
 118 556 l 1
 118 612 l 1x14
139 102 m 0xea
 159 75 191 60 239 60 c 0
 282 60 325 70 361 89 c 1
 390 29 l 1
 343 5 291 -6 239 -6 c 0
 170 -6 115 19 83 62 c 0
 45 114 45 174 45 239 c 0
 45 317 45 363 81 413 c 0
 113 458 173 484 244 484 c 0
 294 484 334 471 364 447 c 0
 394 422 413 385 414 346 c 0
 414 302 392 268 364 248 c 0
 322 218 279 218 208 218 c 2
 116 218 l 1
 116 192 116 133 139 102 c 0xea
344 346 m 0
 343 365 333 385 318 397 c 0
 301 411 275 418 244 418 c 0
 199 418 163 405 141 379 c 0
 116 350 116 300 116 280 c 1
 208 280 l 2
 271 280 299 280 320 296 c 0
 333 306 344 323 344 346 c 0
EndSplineSet
EndChar

StartChar: Ebreve
Encoding: 276 276 212
Width: 510
GlyphClass: 2
Flags: MW
HStem: 0 70<210 445 232 445> 308 70<149 149> 596 70<213.5 445 232 445> 730 52<231.998 279.998 231.998 295.498> 836 20G<131.998 187.998 187.998 187.998 323.998 379.998 379.998 379.998>
VStem: 75 74<155 308 378 511> 131.998 56 323.998 56
LayerCount: 2
Fore
SplineSet
131.998046875 856 m 1x1b
 187.998046875 856 l 1
 187.998046875 807.51953125 207.998046875 782 255.998046875 782 c 0
 303.998046875 782 323.998046875 807.51953125 323.998046875 856 c 1
 379.998046875 856 l 1
 379.998046875 778.53515625 334.998046875 730 255.998046875 730 c 0
 176.998046875 730 131.998046875 778.53515625 131.998046875 856 c 1x1b
149 378 m 1xe4
 385 379 l 1
 385 309 l 1
 149 308 l 1
 149 155 l 2
 149 114 149 92 166 79 c 0
 178 70 195 70 232 70 c 2
 445 70 l 1
 445 0 l 1
 232 0 l 2
 188 0 148 0 115 28 c 0
 75 63 75 107 75 155 c 2
 75 511 l 2
 75 559 75 603 115 638 c 0
 148 666 188 666 232 666 c 2
 445 666 l 1
 445 596 l 1
 232 596 l 2
 195 596 178 596 166 587 c 0
 149 574 149 552 149 511 c 2
 149 378 l 1xe4
EndSplineSet
EndChar

StartChar: ebreve
Encoding: 277 277 213
Width: 454
GlyphClass: 2
Flags: MW
HStem: -6 66<215 260.5 215 265> 218 62<116 208 116 208> 418 66<221.5 259.5> 540 52<220.998 268.998 220.998 284.498> 646 20G<120.998 176.998 176.998 176.998 312.998 368.998 368.998 368.998>
VStem: 45 71<206.5 218 205 278> 120.998 56 312.998 56 344 70<334.5 346>
LayerCount: 2
Fore
SplineSet
120.998046875 666 m 1x1b
 176.998046875 666 l 1
 176.998046875 617.51953125 196.998046875 592 244.998046875 592 c 0
 292.998046875 592 312.998046875 617.51953125 312.998046875 666 c 1
 368.998046875 666 l 1
 368.998046875 588.53515625 323.998046875 540 244.998046875 540 c 0
 165.998046875 540 120.998046875 588.53515625 120.998046875 666 c 1x1b
139 102 m 0xe480
 159 75 191 60 239 60 c 0
 282 60 325 70 361 89 c 1
 390 29 l 1
 343 5 291 -6 239 -6 c 0
 170 -6 115 19 83 62 c 0
 45 114 45 174 45 239 c 0
 45 317 45 363 81 413 c 0
 113 458 173 484 244 484 c 0
 294 484 334 471 364 447 c 0
 394 422 413 385 414 346 c 0
 414 302 392 268 364 248 c 0
 322 218 279 218 208 218 c 2
 116 218 l 1
 116 192 116 133 139 102 c 0xe480
344 346 m 0
 343 365 333 385 318 397 c 0
 301 411 275 418 244 418 c 0
 199 418 163 405 141 379 c 0
 116 350 116 300 116 280 c 1
 208 280 l 2
 271 280 299 280 320 296 c 0
 333 306 344 323 344 346 c 0
EndSplineSet
EndChar

StartChar: Edotaccent
Encoding: 278 278 214
Width: 510
GlyphClass: 2
Flags: MW
HStem: 0 70<210 445 232 445> 308 70<149 149> 596 70<213.5 445 232 445> 740 94<241.5 268.5>
VStem: 75 74<155 308 378 511> 208 94<773 801>
LayerCount: 2
Fore
SplineSet
255 834 m 0
 282 834 302 815 302 787 c 0
 302 759 282 740 255 740 c 0
 228 740 208 759 208 787 c 0
 208 815 228 834 255 834 c 0
149 378 m 1
 385 379 l 1
 385 309 l 1
 149 308 l 1
 149 155 l 2
 149 114 149 92 166 79 c 0
 178 70 195 70 232 70 c 2
 445 70 l 1
 445 0 l 1
 232 0 l 2
 188 0 148 0 115 28 c 0
 75 63 75 107 75 155 c 2
 75 511 l 2
 75 559 75 603 115 638 c 0
 148 666 188 666 232 666 c 2
 445 666 l 1
 445 596 l 1
 232 596 l 2
 195 596 178 596 166 587 c 0
 149 574 149 552 149 511 c 2
 149 378 l 1
EndSplineSet
EndChar

StartChar: edotaccent
Encoding: 279 279 215
Width: 454
GlyphClass: 2
Flags: MW
HStem: -6 66<215 260.5 215 265> 218 62<116 208 116 208> 418 66<221.5 259.5> 550 94<230.5 257.5>
VStem: 45 71<206.5 218 205 278> 197 94<583 611> 344 70<334.5 346>
LayerCount: 2
Fore
SplineSet
244 644 m 0
 271 644 291 625 291 597 c 0
 291 569 271 550 244 550 c 0
 217 550 197 569 197 597 c 0
 197 625 217 644 244 644 c 0
139 102 m 0
 159 75 191 60 239 60 c 0
 282 60 325 70 361 89 c 1
 390 29 l 1
 343 5 291 -6 239 -6 c 0
 170 -6 115 19 83 62 c 0
 45 114 45 174 45 239 c 0
 45 317 45 363 81 413 c 0
 113 458 173 484 244 484 c 0
 294 484 334 471 364 447 c 0
 394 422 413 385 414 346 c 0
 414 302 392 268 364 248 c 0
 322 218 279 218 208 218 c 2
 116 218 l 1
 116 192 116 133 139 102 c 0
344 346 m 0
 343 365 333 385 318 397 c 0
 301 411 275 418 244 418 c 0
 199 418 163 405 141 379 c 0
 116 350 116 300 116 280 c 1
 208 280 l 2
 271 280 299 280 320 296 c 0
 333 306 344 323 344 346 c 0
EndSplineSet
EndChar

StartChar: Eogonek
Encoding: 280 280 216
Width: 500
GlyphClass: 2
Flags: MW
HStem: -193 56<354.5 371 354.5 378.5> 0 70<210 435 232 360 232 435> 308 70<149 149> 596 70<213.5 435 232 435>
VStem: 75 74<155 308 378 511> 273 56<-110.5 -75>
LayerCount: 2
Fore
SplineSet
149 378 m 1
 385 379 l 1
 385 309 l 1
 149 308 l 1
 149 155 l 2
 149 114 149 92 166 79 c 0
 178 70 195 70 232 70 c 2
 435 70 l 1
 435 0 l 1
 389 -13 329 -41 329 -100 c 0
 329 -121 344 -137 365 -137 c 0
 377 -137 390 -132 404 -123 c 1
 434 -171 l 1
 415 -182 392 -193 365 -193 c 0
 313 -193 273 -152 273 -100 c 0
 273 -50 315 -19 360 0 c 1
 232 0 l 2
 188 0 148 0 115 28 c 0
 75 63 75 107 75 155 c 2
 75 511 l 2
 75 559 75 604 115 638 c 0
 148 666 188 666 232 666 c 2
 435 666 l 1
 435 596 l 1
 232 596 l 2
 195 596 178 596 166 587 c 0
 149 574 149 552 149 511 c 2
 149 378 l 1
EndSplineSet
EndChar

StartChar: eogonek
Encoding: 281 281 217
Width: 454
GlyphClass: 2
Flags: MW
HStem: -164 56<310.5 327 310.5 334.5> -6 66<215 241> 218 62<116 208 116 208> 418 66<221.5 259.5>
VStem: 45 71<206.5 218 205 278> 229 56<-81.5 -57.5> 344 70<343 346 346 346>
LayerCount: 2
Fore
SplineSet
139 102 m 0
 159 75 191 60 239 60 c 0
 282 60 325 70 361 89 c 1
 390 29 l 1
 343 5 285 -22 285 -71 c 0
 285 -92 300 -108 321 -108 c 0
 333 -108 346 -103 360 -94 c 1
 390 -142 l 1
 371 -153 348 -164 321 -164 c 0
 269 -164 229 -123 229 -71 c 0
 229 -44 247 -22 272 -4 c 1
 261 -6 243 -6 239 -6 c 0
 170 -6 115 19 83 62 c 0
 45 114 45 174 45 239 c 0
 45 317 45 363 81 413 c 0
 113 458 173 484 244 484 c 0
 294 484 334 472 364 447 c 0
 394 422 414 385 414 346 c 0
 414 302 392 268 364 248 c 0
 322 218 279 218 208 218 c 2
 116 218 l 1
 116 192 116 133 139 102 c 0
344 346 m 2
 343 365 333 385 318 397 c 0
 301 411 275 418 244 418 c 0
 199 418 163 405 141 379 c 0
 116 350 116 300 116 280 c 1
 208 280 l 2
 271 280 299 280 320 296 c 0
 332 306 344 322 344 343 c 2
 344 346 l 2
EndSplineSet
EndChar

StartChar: Ecaron
Encoding: 282 282 218
Width: 510
GlyphClass: 2
Flags: MW
HStem: 0 70<210 445 232 445> 308 70<149 149> 596 70<213.5 445 232 445> 736 120<121 216 121 294>
VStem: 75 74<155 308 378 511> 121 268<856 856>
LayerCount: 2
Fore
SplineSet
216 736 m 1x14
 121 856 l 1
 187 856 l 1
 255 780 l 1
 323 856 l 1
 389 856 l 1
 294 736 l 1
 216 736 l 1x14
149 378 m 1xe8
 385 379 l 1
 385 309 l 1
 149 308 l 1
 149 155 l 2
 149 114 149 92 166 79 c 0
 178 70 195 70 232 70 c 2
 445 70 l 1
 445 0 l 1
 232 0 l 2
 188 0 148 0 115 28 c 0
 75 63 75 107 75 155 c 2
 75 511 l 2
 75 559 75 603 115 638 c 0
 148 666 188 666 232 666 c 2
 445 666 l 1
 445 596 l 1
 232 596 l 2
 195 596 178 596 166 587 c 0
 149 574 149 552 149 511 c 2
 149 378 l 1xe8
EndSplineSet
EndChar

StartChar: ecaron
Encoding: 283 283 219
Width: 454
GlyphClass: 2
Flags: MW
HStem: -6 66<215 260.5 215 265> 218 62<116 208 116 208> 418 66<221.5 259.5> 546 120<110 205 110 283>
VStem: 45 71<206.5 218 205 278> 110 268<666 666> 344 70<334.5 346>
LayerCount: 2
Fore
SplineSet
205 546 m 1x14
 110 666 l 1
 176 666 l 1
 244 590 l 1
 312 666 l 1
 378 666 l 1
 283 546 l 1
 205 546 l 1x14
139 102 m 0xea
 159 75 191 60 239 60 c 0
 282 60 325 70 361 89 c 1
 390 29 l 1
 343 5 291 -6 239 -6 c 0
 170 -6 115 19 83 62 c 0
 45 114 45 174 45 239 c 0
 45 317 45 363 81 413 c 0
 113 458 173 484 244 484 c 0
 294 484 334 471 364 447 c 0
 394 422 413 385 414 346 c 0
 414 302 392 268 364 248 c 0
 322 218 279 218 208 218 c 2
 116 218 l 1
 116 192 116 133 139 102 c 0xea
344 346 m 0
 343 365 333 385 318 397 c 0
 301 411 275 418 244 418 c 0
 199 418 163 405 141 379 c 0
 116 350 116 300 116 280 c 1
 208 280 l 2
 271 280 299 280 320 296 c 0
 333 306 344 323 344 346 c 0
EndSplineSet
EndChar

StartChar: Gcircumflex
Encoding: 284 284 220
Width: 580
GlyphClass: 2
Flags: MW
HStem: -6 70<264.278 315.722 264.278 331.736> 287 70<303 440.917 303 515> 602 70<264.278 314> 732 120<156 329 156 329 251 424 251 358>
VStem: 65 74<270.5 395.5 270.5 397.5> 156 268<732 732> 440.917 74.0825
LayerCount: 2
Fore
SplineSet
251 852 m 1
 329 852 l 1
 424 732 l 1
 358 732 l 1
 290 808 l 1
 222 732 l 1
 156 732 l 1
 251 852 l 1
290 672 m 0
 352 672 416 651 465 611 c 1
 422 555 l 1
 386 585 338 602 290 602 c 0
 238.556640625 602 198.372070312 582.874023438 174 552 c 0
 139 506 139 458 139 333 c 0
 139 208 139 160 174 114 c 0
 198.372070312 83.1259765625 238.556640625 64 290 64 c 0
 341.443359375 64 381.627929688 83.1259765625 406 114 c 0
 436.340820312 153.876953125 440.379882812 195.256835938 440.916992188 287 c 1
 303 287 l 1
 303 357 l 1
 515 357 l 1
 515 333 l 2
 515 204 515 137 467 74 c 0
 431.80078125 29 373.471679688 -6 290 -6 c 0
 206.528320312 -6 148.19921875 29 113 74 c 0
 65 137 65 204 65 333 c 0
 65 462 65 529 113 592 c 0
 148.19921875 637 206.528320312 672 290 672 c 0
EndSplineSet
EndChar

StartChar: gcircumflex
Encoding: 285 285 221
Width: 470
GlyphClass: 2
Flags: MW
HStem: -189 66<199 244.5 199 253> -6 66<211 249 211 249.5> 418 66<213.5 250> 546 120<96 269 96 269 191 364 191 298>
VStem: 45 70<213 269.5 213 272> 96 268<546 546> 345 70<45 55 55 55 222 249>
LayerCount: 2
Fore
SplineSet
191 666 m 1x14
 269 666 l 1
 364 546 l 1
 298 546 l 1
 230 622 l 1
 162 546 l 1
 96 546 l 1
 191 666 l 1x14
232 418 m 0xea
 195 418 165 405 147 385 c 0
 115 349 115 298 115 241 c 0
 115 185 115 130 145 95 c 0
 163 74 192 60 230 60 c 0
 268 60 297 74 315 95 c 0
 345 130 345 185 345 259 c 0
 345 312 345 354 321 382 c 0
 302 405 268 418 232 418 c 0xea
232 484 m 0
 278 484 336 470 375 424 c 0
 415 377 415 330 415 249 c 2
 415 45 l 2
 415 -26 415 -81 369 -131 c 0
 337 -166 286 -189 220 -189 c 0
 171 -189 118 -177 74 -153 c 1
 103 -93 l 1
 136 -111 178 -123 220 -123 c 0
 269 -123 302 -106 321 -82 c 0
 345 -52 345 -16 345 45 c 2
 345 55 l 1
 318 17 274 -6 225 -6 c 0
 166 -6 119 18 90 53 c 0
 45 107 45 173 45 241 c 0
 45 303 45 373 93 427 c 0
 124 461 172 484 232 484 c 0
EndSplineSet
EndChar

StartChar: Gbreve
Encoding: 286 286 222
Width: 580
GlyphClass: 2
Flags: MW
HStem: -6 70<264.278 315.722 264.278 331.736> 287 70<303 440.917 303 515> 602 70<264.278 314> 732 52<266 314 266 329.5> 838 20G<166 222 222 222 358 414 414 414>
VStem: 65 74<270.5 395.5 270.5 397.5> 166 56<833.76 858 833.76 858> 358 56<833.76 858> 440.917 74.0825
LayerCount: 2
Fore
SplineSet
166 858 m 1
 222 858 l 1
 222 809.51953125 242 784 290 784 c 0
 338 784 358 809.51953125 358 858 c 1
 414 858 l 1
 414 780.53515625 369 732 290 732 c 0
 211 732 166 780.53515625 166 858 c 1
290 672 m 0
 352 672 416 651 465 611 c 1
 422 555 l 1
 386 585 338 602 290 602 c 0
 238.556640625 602 198.372070312 582.874023438 174 552 c 0
 139 506 139 458 139 333 c 0
 139 208 139 160 174 114 c 0
 198.372070312 83.1259765625 238.556640625 64 290 64 c 0
 341.443359375 64 381.627929688 83.1259765625 406 114 c 0
 436.340820312 153.876953125 440.379882812 195.256835938 440.916992188 287 c 1
 303 287 l 1
 303 357 l 1
 515 357 l 1
 515 333 l 2
 515 204 515 137 467 74 c 0
 431.80078125 29 373.471679688 -6 290 -6 c 0
 206.528320312 -6 148.19921875 29 113 74 c 0
 65 137 65 204 65 333 c 0
 65 462 65 529 113 592 c 0
 148.19921875 637 206.528320312 672 290 672 c 0
EndSplineSet
EndChar

StartChar: gbreve
Encoding: 287 287 223
Width: 470
GlyphClass: 2
Flags: MW
HStem: -189 66<199 244.5 199 253> -6 66<211 249 211 249.5> 418 66<213.5 250> 540 52<206.998 254.998 206.998 270.498> 646 20G<106.998 162.998 162.998 162.998 298.998 354.998 354.998 354.998>
VStem: 45 70<213 269.5 213 272> 106.998 56 298.998 56 345 70<45 55 55 55 222 249>
LayerCount: 2
Fore
SplineSet
106.998046875 666 m 1x19
 162.998046875 666 l 1
 162.998046875 617.51953125 182.998046875 592 230.998046875 592 c 0
 278.998046875 592 298.998046875 617.51953125 298.998046875 666 c 1
 354.998046875 666 l 1
 354.998046875 588.53515625 309.998046875 540 230.998046875 540 c 0
 151.998046875 540 106.998046875 588.53515625 106.998046875 666 c 1x19
232 418 m 0xe480
 195 418 165 405 147 385 c 0
 115 349 115 298 115 241 c 0
 115 185 115 130 145 95 c 0
 163 74 192 60 230 60 c 0
 268 60 297 74 315 95 c 0
 345 130 345 185 345 259 c 0
 345 312 345 354 321 382 c 0
 302 405 268 418 232 418 c 0xe480
232 484 m 0
 278 484 336 470 375 424 c 0
 415 377 415 330 415 249 c 2
 415 45 l 2
 415 -26 415 -81 369 -131 c 0
 337 -166 286 -189 220 -189 c 0
 171 -189 118 -177 74 -153 c 1
 103 -93 l 1
 136 -111 178 -123 220 -123 c 0
 269 -123 302 -106 321 -82 c 0
 345 -52 345 -16 345 45 c 2
 345 55 l 1
 318 17 274 -6 225 -6 c 0
 166 -6 119 18 90 53 c 0
 45 107 45 173 45 241 c 0
 45 303 45 373 93 427 c 0
 124 461 172 484 232 484 c 0
EndSplineSet
EndChar

StartChar: Gdotaccent
Encoding: 288 288 224
Width: 580
GlyphClass: 2
Flags: MW
HStem: -6 70<264.278 315.722 264.278 331.736> 287 70<303 440.917 303 515> 602 70<264.278 314> 732 94<276.5 303.5>
VStem: 65 74<270.5 395.5 270.5 397.5> 243 94<765 793> 440.917 74.0825
LayerCount: 2
Fore
SplineSet
290 826 m 0
 317 826 337 807 337 779 c 0
 337 751 317 732 290 732 c 0
 263 732 243 751 243 779 c 0
 243 807 263 826 290 826 c 0
290 672 m 0
 352 672 416 651 465 611 c 1
 422 555 l 1
 386 585 338 602 290 602 c 0
 238.556640625 602 198.372070312 582.874023438 174 552 c 0
 139 506 139 458 139 333 c 0
 139 208 139 160 174 114 c 0
 198.372070312 83.1259765625 238.556640625 64 290 64 c 0
 341.443359375 64 381.627929688 83.1259765625 406 114 c 0
 436.340820312 153.876953125 440.379882812 195.256835938 440.916992188 287 c 1
 303 287 l 1
 303 357 l 1
 515 357 l 1
 515 333 l 2
 515 204 515 137 467 74 c 0
 431.80078125 29 373.471679688 -6 290 -6 c 0
 206.528320312 -6 148.19921875 29 113 74 c 0
 65 137 65 204 65 333 c 0
 65 462 65 529 113 592 c 0
 148.19921875 637 206.528320312 672 290 672 c 0
EndSplineSet
EndChar

StartChar: gdotaccent
Encoding: 289 289 225
Width: 470
GlyphClass: 2
Flags: MW
HStem: -189 66<199 244.5 199 253> -6 66<211 249 211 249.5> 418 66<213.5 250> 550 94<216.5 243.5>
VStem: 45 70<213 269.5 213 272> 183 94<583 611> 345 70<45 55 55 55 222 249>
CounterMasks: 1 0e
LayerCount: 2
Fore
SplineSet
230 644 m 0
 257 644 277 625 277 597 c 0
 277 569 257 550 230 550 c 0
 203 550 183 569 183 597 c 0
 183 625 203 644 230 644 c 0
232 418 m 0
 195 418 165 405 147 385 c 0
 115 349 115 298 115 241 c 0
 115 185 115 130 145 95 c 0
 163 74 192 60 230 60 c 0
 268 60 297 74 315 95 c 0
 345 130 345 185 345 259 c 0
 345 312 345 354 321 382 c 0
 302 405 268 418 232 418 c 0
232 484 m 0
 278 484 336 470 375 424 c 0
 415 377 415 330 415 249 c 2
 415 45 l 2
 415 -26 415 -81 369 -131 c 0
 337 -166 286 -189 220 -189 c 0
 171 -189 118 -177 74 -153 c 1
 103 -93 l 1
 136 -111 178 -123 220 -123 c 0
 269 -123 302 -106 321 -82 c 0
 345 -52 345 -16 345 45 c 2
 345 55 l 1
 318 17 274 -6 225 -6 c 0
 166 -6 119 18 90 53 c 0
 45 107 45 173 45 241 c 0
 45 303 45 373 93 427 c 0
 124 461 172 484 232 484 c 0
EndSplineSet
EndChar

StartChar: uni0122
Encoding: 290 290 226
Width: 580
GlyphClass: 2
Flags: MW
HStem: -232 166<277 290 245 303> -6 70<264.278 315.722 264.278 331.736> 287 70<303 440.917 303 515> 602 70<264.278 314>
VStem: 65 74<270.5 395.5 270.5 397.5> 243 94<-119 -98.5 -119 -98.5> 440.917 74.0825
LayerCount: 2
Fore
SplineSet
337 -112 m 0
 337 -126 331 -139 326 -151 c 2
 290 -232 l 1
 245 -232 l 1
 271 -154 l 1
 255 -148 243 -133 243 -112 c 0
 243 -85 264 -66 290 -66 c 0
 316 -66 337 -85 337 -112 c 0
290 672 m 0
 352 672 416 651 465 611 c 1
 422 555 l 1
 386 585 338 602 290 602 c 0
 238.556640625 602 198.372070312 582.874023438 174 552 c 0
 139 506 139 458 139 333 c 0
 139 208 139 160 174 114 c 0
 198.372070312 83.1259765625 238.556640625 64 290 64 c 0
 341.443359375 64 381.627929688 83.1259765625 406 114 c 0
 436.340820312 153.876953125 440.379882812 195.256835938 440.916992188 287 c 1
 303 287 l 1
 303 357 l 1
 515 357 l 1
 515 333 l 2
 515 204 515 137 467 74 c 0
 431.80078125 29 373.471679688 -6 290 -6 c 0
 206.528320312 -6 148.19921875 29 113 74 c 0
 65 137 65 204 65 333 c 0
 65 462 65 529 113 592 c 0
 148.19921875 637 206.528320312 672 290 672 c 0
EndSplineSet
EndChar

StartChar: uni0123
Encoding: 291 291 227
Width: 470
GlyphClass: 2
Flags: MW
HStem: -189 66<199 244.5 199 253> -6 66<211 249 211 249.5> 418 66<213.5 250> 552 166<230 243>
VStem: 45 70<213 269.5 213 272> 183 94<584.5 605> 345 70<45 55 55 55 222 249>
CounterMasks: 1 0e
LayerCount: 2
Fore
SplineSet
183 598 m 0
 183 612 189 625 194 637 c 2
 230 718 l 1
 275 718 l 1
 249 640 l 1
 265 634 277 619 277 598 c 0
 277 571 256 552 230 552 c 0
 204 552 183 571 183 598 c 0
232 418 m 0
 195 418 165 405 147 385 c 0
 115 349 115 298 115 241 c 0
 115 185 115 130 145 95 c 0
 163 74 192 60 230 60 c 0
 268 60 297 74 315 95 c 0
 345 130 345 185 345 259 c 0
 345 312 345 354 321 382 c 0
 302 405 268 418 232 418 c 0
232 484 m 0
 278 484 336 470 375 424 c 0
 415 377 415 330 415 249 c 2
 415 45 l 2
 415 -26 415 -81 369 -131 c 0
 337 -166 286 -189 220 -189 c 0
 171 -189 118 -177 74 -153 c 1
 103 -93 l 1
 136 -111 178 -123 220 -123 c 0
 269 -123 302 -106 321 -82 c 0
 345 -52 345 -16 345 45 c 2
 345 55 l 1
 318 17 274 -6 225 -6 c 0
 166 -6 119 18 90 53 c 0
 45 107 45 173 45 241 c 0
 45 303 45 373 93 427 c 0
 124 461 172 484 232 484 c 0
EndSplineSet
EndChar

StartChar: Hcircumflex
Encoding: 292 292 228
Width: 590
GlyphClass: 2
Flags: MW
HStem: 0 21G<75 149 75 75 441 515 441 441> 308 70<149 441 149 441> 646 20G<75 149 149 149 441 515 515 515> 735 120<161 334 161 334 256 429 256 363>
VStem: 75 74<0 308 378 666> 161 268<735 735> 441 74<0 308 308 308 378 666 0 666>
CounterMasks: 1 0e
LayerCount: 2
Fore
SplineSet
256 855 m 1
 334 855 l 1
 429 735 l 1
 363 735 l 1
 295 811 l 1
 227 735 l 1
 161 735 l 1
 256 855 l 1
75 666 m 1
 149 666 l 1
 149 378 l 1
 441 378 l 1
 441 666 l 1
 515 666 l 1
 515 0 l 1
 441 0 l 1
 441 308 l 1
 149 308 l 1
 149 0 l 1
 75 0 l 1
 75 666 l 1
EndSplineSet
EndChar

StartChar: hcircumflex
Encoding: 293 293 229
Width: 470
GlyphClass: 2
Flags: MW
HStem: 0 21G<65 135 65 65 345 415 345 345> 418 66<223.5 256.5> 646 20G<65 135 135 135> 735 120<-34 139 -34 139 61 234 61 168>
VStem: -34 268<735 735> 65 70<0 256 428 666> 345 70<0 256 0 287>
LayerCount: 2
Fore
SplineSet
61 855 m 1x18
 139 855 l 1
 234 735 l 1
 168 735 l 1
 100 811 l 1
 32 735 l 1
 -34 735 l 1
 61 855 l 1x18
65 666 m 1xe6
 135 666 l 1
 135 428 l 1
 158 461 198 484 245 484 c 0
 304 484 346 458 369 433 c 0
 415 384 415 326 415 256 c 2
 415 0 l 1
 345 0 l 1
 345 256 l 2
 345 318 345 360 316 389 c 0
 299 406 273 418 240 418 c 0
 207 418 181 406 164 389 c 0
 135 360 135 318 135 256 c 2
 135 0 l 1
 65 0 l 1
 65 666 l 1xe6
EndSplineSet
EndChar

StartChar: Hbar
Encoding: 294 294 230
Width: 710
GlyphClass: 2
Flags: MW
HStem: 0 21G<134 205 134 134 503 574 503 503> 310 66<205 503 205 503> 544 62<75 134 75 134 205 503 574 635> 646 20G<134 205 205 205 503 574 574 574>
VStem: 134 71<0 310 0 376 376 544 606 666> 503 71<0 310 310 310 376 544 0 544 606 666>
LayerCount: 2
Fore
SplineSet
134 666 m 1
 205 666 l 1
 205 606 l 1
 503 606 l 1
 503 666 l 1
 574 666 l 1
 574 606 l 1
 635 606 l 1
 635 544 l 1
 574 544 l 1
 574 0 l 1
 503 0 l 1
 503 310 l 1
 205 310 l 1
 205 0 l 1
 134 0 l 1
 134 544 l 1
 75 544 l 1
 75 606 l 1
 134 606 l 1
 134 666 l 1
205 544 m 1
 205 376 l 1
 503 376 l 1
 503 544 l 1
 205 544 l 1
EndSplineSet
EndChar

StartChar: hbar
Encoding: 295 295 231
Width: 530
GlyphClass: 2
Flags: MW
HStem: 0 21G<110 180 110 110 400 470 400 400> 418 66<276.5 305.5> 546 62<30 110 30 110 180 290> 646 20G<110 180 180 180>
VStem: 110 70<0 239 429 546 608 666> 400 70<0 239 0 269.5>
LayerCount: 2
Fore
SplineSet
110 666 m 1
 180 666 l 1
 180 608 l 1
 290 608 l 1
 290 546 l 1
 180 546 l 1
 180 429 l 1
 212 472 258 484 295 484 c 0
 351 484 404 461 436 414 c 0
 470 364 470 310 470 239 c 2
 470 0 l 1
 400 0 l 1
 400 239 l 2
 400 300 400 344 377 377 c 0
 356 407 321 418 290 418 c 0
 259 418 224 407 203 377 c 0
 180 344 180 300 180 239 c 2
 180 0 l 1
 110 0 l 1
 110 546 l 1
 30 546 l 1
 30 608 l 1
 110 608 l 1
 110 666 l 1
EndSplineSet
EndChar

StartChar: Itilde
Encoding: 296 296 232
Width: 224
GlyphClass: 2
Flags: MW
HStem: 0 21G<75 149 75 75> 646 20G<75 149 149 149> 739 52<163 181 163 196.5> 777 52<43 61>
VStem: -36 56<745 754.5 745 769> 75 74<0 666 0 666> 204 56<813.5 823>
CounterMasks: 1 0e
LayerCount: 2
Fore
SplineSet
172 739 m 0x2a
 143 739 118 751 99 761 c 0
 84 768 70 777 52 777 c 0
 34 777 20 764 20 745 c 1
 -36 745 l 1
 -36 793 3 829 52 829 c 0x1a
 82 829 106 817 125 807 c 0
 140 800 154 791 172 791 c 0
 190 791 204 804 204 823 c 1
 260 823 l 1
 260 775 221 739 172 739 c 0x2a
149 666 m 1xc4
 149 0 l 1
 75 0 l 1
 75 666 l 1
 149 666 l 1xc4
EndSplineSet
EndChar

StartChar: itilde
Encoding: 297 297 233
Width: 214
GlyphClass: 2
Flags: MW
HStem: 0 21G<72 142 72 72> 550 52<158 176 158 191.5> 588 52<38 56>
VStem: -41 56<556 565.5 556 580> 72 70<0 477 0 477> 199 56<624.5 634>
CounterMasks: 1 1c
LayerCount: 2
Fore
SplineSet
167 550 m 0x54
 138 550 113 562 94 572 c 0
 79 579 65 588 47 588 c 0
 29 588 15 575 15 556 c 1
 -41 556 l 1
 -41 604 -2 640 47 640 c 0x34
 77 640 101 628 120 618 c 0
 135 611 149 602 167 602 c 0
 185 602 199 615 199 634 c 1
 255 634 l 1
 255 586 216 550 167 550 c 0x54
72 477 m 1x88
 142 477 l 1
 142 0 l 1
 72 0 l 1
 72 477 l 1x88
EndSplineSet
EndChar

StartChar: Imacron
Encoding: 298 298 234
Width: 224
GlyphClass: 2
Flags: MW
HStem: 0 21G<75 149 75 75> 646 20G<75 149 149 149> 745 56<-14 236 -14 236>
VStem: -14 250<745 801 745 801> 75 74<0 666 0 666>
LayerCount: 2
Fore
SplineSet
-14 801 m 1x30
 236 801 l 1
 236 745 l 1
 -14 745 l 1
 -14 801 l 1x30
149 666 m 1xc8
 149 0 l 1
 75 0 l 1
 75 666 l 1
 149 666 l 1xc8
EndSplineSet
EndChar

StartChar: imacron
Encoding: 299 299 235
Width: 214
GlyphClass: 2
Flags: MW
HStem: 0 21G<72 142 72 72> 556 56<-19 231 -19 231>
VStem: -19 250<556 612 556 612> 72 70<0 477 0 477>
LayerCount: 2
Fore
SplineSet
-19 612 m 1x60
 231 612 l 1
 231 556 l 1
 -19 556 l 1
 -19 612 l 1x60
72 477 m 1x90
 142 477 l 1
 142 0 l 1
 72 0 l 1
 72 477 l 1x90
EndSplineSet
EndChar

StartChar: Ibreve
Encoding: 300 300 236
Width: 224
GlyphClass: 2
Flags: MW
HStem: 0 21G<75 149 75 75> 646 20G<75 149 149 149> 729 52<88.998 136.998 88.998 152.498> 835 20G<-11.002 44.998 44.998 44.998 180.998 236.998 236.998 236.998>
VStem: -11.002 56 75 74<0 666 0 666> 180.998 56
LayerCount: 2
Fore
SplineSet
-11.001953125 855 m 1
 44.998046875 855 l 1
 44.998046875 806.51953125 64.998046875 781 112.998046875 781 c 0
 160.998046875 781 180.998046875 806.51953125 180.998046875 855 c 1
 236.998046875 855 l 1
 236.998046875 777.53515625 191.998046875 729 112.998046875 729 c 0
 33.998046875 729 -11.001953125 777.53515625 -11.001953125 855 c 1
149 666 m 1
 149 0 l 1
 75 0 l 1
 75 666 l 1
 149 666 l 1
EndSplineSet
EndChar

StartChar: ibreve
Encoding: 301 301 237
Width: 214
GlyphClass: 2
Flags: MW
HStem: 0 21G<72 142 72 72> 540 52<83.998 131.998 83.998 147.498> 646 20G<-16.002 39.998 39.998 39.998 175.998 231.998 231.998 231.998>
VStem: -16.002 56 72 70<0 477 0 477> 175.998 56
LayerCount: 2
Fore
SplineSet
-16.001953125 666 m 1
 39.998046875 666 l 1
 39.998046875 617.51953125 59.998046875 592 107.998046875 592 c 0
 155.998046875 592 175.998046875 617.51953125 175.998046875 666 c 1
 231.998046875 666 l 1
 231.998046875 588.53515625 186.998046875 540 107.998046875 540 c 0
 28.998046875 540 -16.001953125 588.53515625 -16.001953125 666 c 1
72 477 m 1
 142 477 l 1
 142 0 l 1
 72 0 l 1
 72 477 l 1
EndSplineSet
EndChar

StartChar: Iogonek
Encoding: 302 302 238
Width: 224
GlyphClass: 2
Flags: MW
HStem: -189 56<75.5 92 75.5 99.5> 646 20G<75 149 149 149>
VStem: -6 56<-106.5 -72> 75 74<0 666 0 666>
LayerCount: 2
Fore
SplineSet
75 0 m 1
 75 666 l 1
 149 666 l 1
 149 0 l 1
 106 -12 50 -39 50 -96 c 0
 50 -117 65 -133 86 -133 c 0
 98 -133 111 -128 125 -119 c 1
 155 -167 l 1
 136 -178 113 -189 86 -189 c 0
 34 -189 -6 -148 -6 -96 c 0
 -6 -48 33 -18 75 0 c 1
EndSplineSet
EndChar

StartChar: iogonek
Encoding: 303 303 239
Width: 210
GlyphClass: 2
Flags: MW
HStem: -189 56<70.5 87 70.5 94.5> 550 94<91.5 118.5>
VStem: -11 56<-106.5 -72> 58 94<583 611> 70 70<0 478>
LayerCount: 2
Fore
SplineSet
140 0 m 1xe8
 98 -12 45 -39 45 -96 c 0
 45 -117 60 -133 81 -133 c 0
 93 -133 106 -128 120 -119 c 1
 150 -167 l 1
 131 -178 108 -189 81 -189 c 0
 29 -189 -11 -148 -11 -96 c 0
 -11 -48 28 -18 70 0 c 1
 70 478 l 1
 140 478 l 1
 140 0 l 1xe8
105 644 m 0
 132 644 152 625 152 597 c 0
 152 569 132 550 105 550 c 0
 78 550 58 569 58 597 c 0xf0
 58 625 78 644 105 644 c 0
EndSplineSet
EndChar

StartChar: Idotaccent
Encoding: 304 304 240
Width: 224
GlyphClass: 2
Flags: MW
HStem: 0 21G<75 149 75 75> 646 20G<75 149 149 149> 740 94<98.5 125.5>
VStem: 65 94<773 801> 75 74<0 666 0 666>
LayerCount: 2
Fore
SplineSet
112 834 m 0x30
 139 834 159 815 159 787 c 0
 159 759 139 740 112 740 c 0
 85 740 65 759 65 787 c 0
 65 815 85 834 112 834 c 0x30
149 666 m 1xc8
 149 0 l 1
 75 0 l 1
 75 666 l 1
 149 666 l 1xc8
EndSplineSet
EndChar

StartChar: dotlessi
Encoding: 305 305 241
Width: 214
GlyphClass: 2
Flags: MW
HStem: 0 21G<72 142 72 72>
VStem: 72 70<0 477 0 477>
LayerCount: 2
Fore
SplineSet
72 477 m 1
 142 477 l 1
 142 0 l 1
 72 0 l 1
 72 477 l 1
EndSplineSet
EndChar

StartChar: IJ
Encoding: 306 306 242
Width: 636
GlyphClass: 2
Flags: MW
HStem: -6 70<352 390.5 352 397> 646 20G<85 159 159 159 492 566 566 566>
VStem: 85 74<0 666 0 666> 492 74<251 666>
LayerCount: 2
Fore
SplineSet
492 666 m 1
 566 666 l 1
 566 251 l 2
 566 171 566 107 517 53 c 0
 479 11 423 -6 371 -6 c 0
 318 -6 268 9 225 42 c 1
 270 98 l 1
 296 76 333 64 371 64 c 0
 410 64 441 77 461 99 c 0
 492 133 492 179 492 251 c 2
 492 666 l 1
85 666 m 1
 159 666 l 1
 159 0 l 1
 85 0 l 1
 85 666 l 1
EndSplineSet
EndChar

StartChar: ij
Encoding: 307 307 243
Width: 394
GlyphClass: 2
Flags: MW
HStem: -189 66<185 203 185 215> 0 21G<70 140 70 70> 550 94<91.5 119 275.5 302.5>
VStem: 58 94<583 611> 70 70<0 477> 242 94<583 611> 254 70<-21 478>
LayerCount: 2
Fore
SplineSet
254 478 m 1xea
 324 478 l 1
 324 -21 l 2
 324 -83 324 -116 291 -151 c 0
 270 -173 237 -189 193 -189 c 0
 167 -189 141 -183 114 -172 c 1
 140 -111 l 1
 158 -119 177 -123 193 -123 c 0
 213 -123 232 -117 243 -102 c 0
 254 -87 254 -69 254 -21 c 2
 254 478 l 1xea
289 644 m 0
 316 644 336 625 336 597 c 0
 336 569 316 550 289 550 c 0
 262 550 242 569 242 597 c 0xe4
 242 625 262 644 289 644 c 0
105 644 m 0
 133 644 152 625 152 597 c 0
 152 569 133 550 105 550 c 0
 78 550 58 569 58 597 c 0xf0
 58 625 78 644 105 644 c 0
70 477 m 1xe8
 140 477 l 1
 140 0 l 1
 70 0 l 1
 70 477 l 1xe8
EndSplineSet
EndChar

StartChar: Jcircumflex
Encoding: 308 308 244
Width: 446
GlyphClass: 2
Flags: MW
HStem: -6 70<163 201 163 210.5> 646 20G<302 376 376 376> 735 120<205 378 205 378 300 473 300 407>
VStem: 205 268<735 735> 302 74<261 666>
LayerCount: 2
Fore
SplineSet
300 855 m 1x30
 378 855 l 1
 473 735 l 1
 407 735 l 1
 339 811 l 1
 271 735 l 1
 205 735 l 1
 300 855 l 1x30
302 666 m 1xc8
 376 666 l 1
 376 261 l 2
 376 179 376 117 335 64 c 0
 297 15 240 -6 181 -6 c 0
 129 -6 78 10 35 43 c 1
 80 99 l 1
 107 76 145 64 181 64 c 0
 221 64 250 78 269 98 c 0
 302 133 302 184 302 261 c 2
 302 666 l 1xc8
EndSplineSet
EndChar

StartChar: jcircumflex
Encoding: 309 309 245
Width: 210
GlyphClass: 2
Flags: MW
HStem: -189 66<1 19 1 31> 544 120<-28 145 -28 145 67 240 67 174>
VStem: -28 268<544 544> 70 70<-21 478>
LayerCount: 2
Fore
SplineSet
67 664 m 1x60
 145 664 l 1
 240 544 l 1
 174 544 l 1
 106 620 l 1
 38 544 l 1
 -28 544 l 1
 67 664 l 1x60
70 478 m 1x90
 140 478 l 1
 140 -21 l 2
 140 -83 140 -116 107 -151 c 0
 86 -173 53 -189 9 -189 c 0
 -17 -189 -43 -183 -70 -172 c 1
 -44 -111 l 1
 -26 -119 -7 -123 9 -123 c 0
 29 -123 48 -117 59 -102 c 0
 70 -87 70 -69 70 -21 c 2
 70 478 l 1x90
EndSplineSet
EndChar

StartChar: uni0136
Encoding: 310 310 246
Width: 561
GlyphClass: 2
Flags: MW
HStem: -229 166<272 285 240 298> 0 21G<75 149 75 75 431 521 431 431> 288 70<149 155 149 155.5> 646 20G<75 149 149 149 416 506 506 506>
VStem: 75 74<0 288 358 666> 238 94<-116 -95.5 -116 -95.5>
LayerCount: 2
Fore
SplineSet
332 -109 m 0
 332 -123 326 -136 321 -148 c 2
 285 -229 l 1
 240 -229 l 1
 266 -151 l 1
 250 -145 238 -130 238 -109 c 0
 238 -82 259 -63 285 -63 c 0
 311 -63 332 -82 332 -109 c 0
75 666 m 1
 149 666 l 1
 149 358 l 1
 161 358 173 358 185 364 c 0
 199 371 210 386 231 415 c 2
 416 666 l 1
 506 666 l 1
 301 388 l 2
 292 375 279 356 268 343 c 1
 521 0 l 1
 431 0 l 1
 211 298 l 1
 186 288 162 288 149 288 c 1
 149 0 l 1
 75 0 l 1
 75 666 l 1
EndSplineSet
EndChar

StartChar: uni0137
Encoding: 311 311 247
Width: 458
GlyphClass: 2
Flags: MW
HStem: -229 166<216 229 184 242> 0 21G<65 135 65 65 338 423 338 338> 218 66<135 142 135 143.5> 647 20G<65 135 135 135>
VStem: 65 70<0 218 284 667> 182 94<-116 -95.5 -116 -95.5>
LayerCount: 2
Fore
SplineSet
276 -109 m 0
 276 -123 270 -136 265 -148 c 2
 229 -229 l 1
 184 -229 l 1
 210 -151 l 1
 194 -145 182 -130 182 -109 c 0
 182 -82 203 -63 229 -63 c 0
 255 -63 276 -82 276 -109 c 0
65 667 m 1
 135 667 l 1
 135 284 l 1
 149 284 162 284 175 294 c 0
 185 302 193 312 208 331 c 2
 322 477 l 1
 408 477 l 1
 266 294 l 2
 253 277 248 270 238 260 c 1
 423 0 l 1
 338 0 l 1
 180 223 l 1
 166 219 152 218 135 218 c 1
 135 0 l 1
 65 0 l 1
 65 667 l 1
EndSplineSet
EndChar

StartChar: kgreenlandic
Encoding: 312 312 248
Width: 457
GlyphClass: 2
Flags: MW
HStem: 0 21G<65 135 65 65 338 423 338 338> 218 66<135 142 135 143.5>
VStem: 65 70<0 218 284 477>
LayerCount: 2
Fore
SplineSet
65 477 m 1
 135 477 l 1
 135 284 l 1
 149 284 162 284 175 294 c 0
 185 302 193 312 208 331 c 2
 322 477 l 1
 408 477 l 1
 266 294 l 2
 253 277 248 270 238 260 c 1
 423 0 l 1
 338 0 l 1
 180 223 l 1
 166 219 152 218 135 218 c 1
 135 0 l 1
 65 0 l 1
 65 477 l 1
EndSplineSet
EndChar

StartChar: Lacute
Encoding: 313 313 249
Width: 480
GlyphClass: 2
Flags: MW
HStem: 0 70<210 425 232 425> 646 20G<75 149 149 149> 736 120<67 220 67 220>
VStem: 67 153<736 856> 75 74<155 666>
LayerCount: 2
Fore
SplineSet
220 856 m 1x30
 133 736 l 1
 67 736 l 1
 142 856 l 1
 220 856 l 1x30
75 666 m 1xc8
 149 666 l 1
 149 155 l 2
 149 114 149 92 166 79 c 0
 178 70 195 70 232 70 c 2
 425 70 l 1
 425 0 l 1
 232 0 l 2
 188 0 148 0 115 28 c 0
 75 63 75 107 75 155 c 2
 75 666 l 1xc8
EndSplineSet
EndChar

StartChar: lacute
Encoding: 314 314 250
Width: 200
GlyphClass: 2
Flags: MW
HStem: 0 21G<65 135 65 65> 647 20G<65 135 135 135> 736 120<54 207 54 207>
VStem: 54 153<736 856> 65 70<0 667 0 667>
LayerCount: 2
Fore
SplineSet
207 856 m 1x30
 120 736 l 1
 54 736 l 1
 129 856 l 1
 207 856 l 1x30
65 667 m 1xc8
 135 667 l 1
 135 0 l 1
 65 0 l 1
 65 667 l 1xc8
EndSplineSet
EndChar

StartChar: uni013B
Encoding: 315 315 251
Width: 480
GlyphClass: 2
Flags: MW
HStem: -229 166<252 265 220 278> 0 70<210 425 232 425> 646 20G<75 149 149 149>
VStem: 75 74<155 666> 218 94<-116 -95.5 -116 -95.5>
LayerCount: 2
Fore
SplineSet
312 -109 m 0
 312 -123 306 -136 301 -148 c 2
 265 -229 l 1
 220 -229 l 1
 246 -151 l 1
 230 -145 218 -130 218 -109 c 0
 218 -82 239 -63 265 -63 c 0
 291 -63 312 -82 312 -109 c 0
75 666 m 1
 149 666 l 1
 149 155 l 2
 149 114 149 92 166 79 c 0
 178 70 195 70 232 70 c 2
 425 70 l 1
 425 0 l 1
 232 0 l 2
 188 0 148 0 115 28 c 0
 75 63 75 107 75 155 c 2
 75 666 l 1
EndSplineSet
EndChar

StartChar: uni013C
Encoding: 316 316 252
Width: 200
GlyphClass: 2
Flags: MW
HStem: -229 166<87 100 55 113> 0 21G<65 135 65 65> 647 20G<65 135 135 135>
VStem: 53 94<-116 -95.5 -116 -95.5> 65 70<0 667 0 667>
LayerCount: 2
Fore
SplineSet
147 -109 m 0x90
 147 -123 141 -136 136 -148 c 2
 100 -229 l 1
 55 -229 l 1
 81 -151 l 1
 65 -145 53 -130 53 -109 c 0
 53 -82 74 -63 100 -63 c 0
 126 -63 147 -82 147 -109 c 0x90
65 667 m 1x68
 135 667 l 1
 135 0 l 1
 65 0 l 1
 65 667 l 1x68
EndSplineSet
EndChar

StartChar: Lcaron
Encoding: 317 317 253
Width: 480
GlyphClass: 2
Flags: MW
HStem: 0 70<210 425 232 425> 456 216<276 288 243 306> 646 20G<75 149 149 149>
VStem: 75 74<155 666> 240 102<614.5 636.5 614.5 636.5>
LayerCount: 2
Fore
SplineSet
240 621 m 0x48
 240 652 261 672 291 672 c 0
 321 672 342 652 342 621 c 0
 342 608 338 596 334 584 c 2
 288 456 l 1
 243 456 l 1
 272 573 l 1
 253 579 240 598 240 621 c 0x48
75 666 m 1xb0
 149 666 l 1
 149 155 l 2
 149 114 149 92 166 79 c 0
 178 70 195 70 232 70 c 2
 425 70 l 1
 425 0 l 1
 232 0 l 2
 188 0 148 0 115 28 c 0
 75 63 75 107 75 155 c 2
 75 666 l 1xb0
EndSplineSet
EndChar

StartChar: lcaron
Encoding: 318 318 254
Width: 359
GlyphClass: 2
Flags: MW
HStem: 0 21G<65 135 65 65> 456 216<263 275 230 293> 647 20G<65 135 135 135>
VStem: 65 70<0 667 0 667> 227 102<614.5 636.5 614.5 636.5>
LayerCount: 2
Fore
SplineSet
227 621 m 0x48
 227 652 248 672 278 672 c 0
 308 672 329 652 329 621 c 0
 329 608 325 596 321 584 c 2
 275 456 l 1
 230 456 l 1
 259 573 l 1
 240 579 227 598 227 621 c 0x48
65 667 m 1xb0
 135 667 l 1
 135 0 l 1
 65 0 l 1
 65 667 l 1xb0
EndSplineSet
EndChar

StartChar: Ldot
Encoding: 319 319 255
Width: 480
GlyphClass: 2
Flags: MW
HStem: 0 70<210 425 232 425> 283 102<274 304> 646 20G<75 149 149 149>
VStem: 75 74<155 666> 238 102<319 349>
LayerCount: 2
Fore
SplineSet
289 385 m 0
 319 385 340 364 340 334 c 0
 340 304 319 283 289 283 c 0
 259 283 238 304 238 334 c 0
 238 364 259 385 289 385 c 0
75 666 m 1
 149 666 l 1
 149 155 l 2
 149 114 149 92 166 79 c 0
 178 70 195 70 232 70 c 2
 425 70 l 1
 425 0 l 1
 232 0 l 2
 188 0 148 0 115 28 c 0
 75 63 75 107 75 155 c 2
 75 666 l 1
EndSplineSet
EndChar

StartChar: ldot
Encoding: 320 320 256
Width: 354
GlyphClass: 2
Flags: MW
HStem: 0 21G<65 135 65 65> 283 102<238 268> 647 20G<65 135 135 135>
VStem: 65 70<0 667 0 667> 202 102<319 349>
LayerCount: 2
Fore
SplineSet
65 667 m 1
 135 667 l 1
 135 0 l 1
 65 0 l 1
 65 667 l 1
253 385 m 0
 283 385 304 364 304 334 c 0
 304 304 283 283 253 283 c 0
 223 283 202 304 202 334 c 0
 202 364 223 385 253 385 c 0
EndSplineSet
EndChar

StartChar: Lslash
Encoding: 321 321 257
Width: 550
GlyphClass: 2
Flags: MW
HStem: 0 70<250 495 272 495> 646 20G<115 189 189 189>
VStem: 115 74<155 234 234 234 362 666>
LayerCount: 2
Fore
SplineSet
115 666 m 1
 189 666 l 1
 189 362 l 1
 266 416 l 1
 302 366 l 1
 189 286 l 1
 189 155 l 2
 189 114 189 92 206 79 c 0
 218 70 235 70 272 70 c 2
 495 70 l 1
 495 0 l 1
 272 0 l 2
 228 0 188 0 155 28 c 0
 115 63 115 107 115 155 c 2
 115 234 l 1
 58 196 l 1
 22 246 l 1
 115 311 l 1
 115 666 l 1
EndSplineSet
EndChar

StartChar: lslash
Encoding: 322 322 258
Width: 320
GlyphClass: 2
Flags: MW
HStem: 0 21G<115 185 115 115> 647 20G<115 185 185 185>
VStem: 115 70<0 236 236 236 362 667>
LayerCount: 2
Fore
SplineSet
185 0 m 1
 115 0 l 1
 115 236 l 1
 58 196 l 1
 22 246 l 1
 115 312 l 1
 115 667 l 1
 185 667 l 1
 185 362 l 1
 262 416 l 1
 298 366 l 1
 185 286 l 1
 185 0 l 1
EndSplineSet
EndChar

StartChar: Nacute
Encoding: 323 323 259
Width: 554
GlyphClass: 2
Flags: MW
HStem: 0 21G<70 144 70 70 410 484 410 410> 602 70<257.5 296.5> 736 120<226 379 226 379>
VStem: 70 74<0 387 0 432> 226 153<736 856> 410 74<0 387 0 427.5>
LayerCount: 2
Fore
SplineSet
379 856 m 1
 292 736 l 1
 226 736 l 1
 301 856 l 1
 379 856 l 1
277 672 m 0
 339 672 396 649 432 608 c 0
 484 549 484 477 484 387 c 2
 484 0 l 1
 410 0 l 1
 410 387 l 2
 410 468 410 524 376 562 c 0
 352 589 316 602 277 602 c 0
 238 602 202 589 178 562 c 0
 144 524 144 468 144 387 c 2
 144 0 l 1
 70 0 l 1
 70 387 l 2
 70 477 70 549 122 608 c 0
 158 649 215 672 277 672 c 0
EndSplineSet
EndChar

StartChar: nacute
Encoding: 324 324 260
Width: 460
GlyphClass: 2
Flags: MW
HStem: 0 21G<55 125 55 55 335 405 335 335> 418 66<213.5 246.5> 546 120<191 344 191 344>
VStem: 55 70<0 256 0 291> 191 153<546 666> 335 70<0 256 0 287>
LayerCount: 2
Fore
SplineSet
344 666 m 1x28
 257 546 l 1
 191 546 l 1
 266 666 l 1
 344 666 l 1x28
230 484 m 0xd4
 291 484 334 458 358 433 c 0
 405 384 405 326 405 256 c 2
 405 0 l 1
 335 0 l 1
 335 256 l 2
 335 318 335 360 306 389 c 0
 289 406 263 418 230 418 c 0
 197 418 171 406 154 389 c 0
 125 360 125 318 125 256 c 2
 125 0 l 1
 55 0 l 1
 55 256 l 2
 55 326 55 384 102 433 c 0
 126 458 169 484 230 484 c 0xd4
EndSplineSet
EndChar

StartChar: uni0145
Encoding: 325 325 261
Width: 554
GlyphClass: 2
Flags: MW
HStem: -229 166<259 272 227 285> 0 21G<70 144 70 70 410 484 410 410> 602 70<257.5 296.5>
VStem: 70 74<0 387 0 432> 225 94<-116 -95.5 -116 -95.5> 410 74<0 387 0 427.5>
LayerCount: 2
Fore
SplineSet
319 -109 m 0
 319 -123 313 -136 308 -148 c 2
 272 -229 l 1
 227 -229 l 1
 253 -151 l 1
 237 -145 225 -130 225 -109 c 0
 225 -82 246 -63 272 -63 c 0
 298 -63 319 -82 319 -109 c 0
277 672 m 0
 339 672 396 649 432 608 c 0
 484 549 484 477 484 387 c 2
 484 0 l 1
 410 0 l 1
 410 387 l 2
 410 468 410 524 376 562 c 0
 352 589 316 602 277 602 c 0
 238 602 202 589 178 562 c 0
 144 524 144 468 144 387 c 2
 144 0 l 1
 70 0 l 1
 70 387 l 2
 70 477 70 549 122 608 c 0
 158 649 215 672 277 672 c 0
EndSplineSet
EndChar

StartChar: uni0146
Encoding: 326 326 262
Width: 460
GlyphClass: 2
Flags: MW
HStem: -229 166<224 237 192 250> 0 21G<55 125 55 55 335 405 335 335> 418 66<213.5 246.5>
VStem: 55 70<0 256 0 291> 190 94<-116 -95.5 -116 -95.5> 335 70<0 256 0 287>
LayerCount: 2
Fore
SplineSet
284 -109 m 0
 284 -123 278 -136 273 -148 c 2
 237 -229 l 1
 192 -229 l 1
 218 -151 l 1
 202 -145 190 -130 190 -109 c 0
 190 -82 211 -63 237 -63 c 0
 263 -63 284 -82 284 -109 c 0
230 484 m 0
 291 484 334 458 358 433 c 0
 405 384 405 326 405 256 c 2
 405 0 l 1
 335 0 l 1
 335 256 l 2
 335 318 335 360 306 389 c 0
 289 406 263 418 230 418 c 0
 197 418 171 406 154 389 c 0
 125 360 125 318 125 256 c 2
 125 0 l 1
 55 0 l 1
 55 256 l 2
 55 326 55 384 102 433 c 0
 126 458 169 484 230 484 c 0
EndSplineSet
EndChar

StartChar: Ncaron
Encoding: 327 327 263
Width: 554
GlyphClass: 2
Flags: MW
HStem: 0 21G<70 144 70 70 410 484 410 410> 602 70<257.5 296.5> 736 120<138 233 138 311>
VStem: 70 74<0 387 0 432> 138 268<856 856> 410 74<0 387 0 427.5>
LayerCount: 2
Fore
SplineSet
233 736 m 1x28
 138 856 l 1
 204 856 l 1
 272 780 l 1
 340 856 l 1
 406 856 l 1
 311 736 l 1
 233 736 l 1x28
277 672 m 0xd4
 339 672 396 649 432 608 c 0
 484 549 484 477 484 387 c 2
 484 0 l 1
 410 0 l 1
 410 387 l 2
 410 468 410 524 376 562 c 0
 352 589 316 602 277 602 c 0
 238 602 202 589 178 562 c 0
 144 524 144 468 144 387 c 2
 144 0 l 1
 70 0 l 1
 70 387 l 2
 70 477 70 549 122 608 c 0
 158 649 215 672 277 672 c 0xd4
EndSplineSet
EndChar

StartChar: ncaron
Encoding: 328 328 264
Width: 460
GlyphClass: 2
Flags: MW
HStem: 0 21G<55 125 55 55 335 405 335 335> 418 66<213.5 246.5> 546 120<103 198 103 276>
VStem: 55 70<0 256 0 291> 103 268<666 666> 335 70<0 256 0 287>
LayerCount: 2
Fore
SplineSet
198 546 m 1x28
 103 666 l 1
 169 666 l 1
 237 590 l 1
 305 666 l 1
 371 666 l 1
 276 546 l 1
 198 546 l 1x28
230 484 m 0xd4
 291 484 334 458 358 433 c 0
 405 384 405 326 405 256 c 2
 405 0 l 1
 335 0 l 1
 335 256 l 2
 335 318 335 360 306 389 c 0
 289 406 263 418 230 418 c 0
 197 418 171 406 154 389 c 0
 125 360 125 318 125 256 c 2
 125 0 l 1
 55 0 l 1
 55 256 l 2
 55 326 55 384 102 433 c 0
 126 458 169 484 230 484 c 0xd4
EndSplineSet
EndChar

StartChar: napostrophe
Encoding: 329 329 265
Width: 542
GlyphClass: 2
Flags: MW
HStem: 0 21G<117 187 117 117 397 467 397 397> 418 66<275.5 308.5> 456 216<86 98 53 116>
VStem: 50 102<614.5 636.5 614.5 636.5> 117 70<0 256 0 291> 397 70<0 256 0 287>
LayerCount: 2
Fore
SplineSet
292 484 m 0xcc
 353 484 396 458 420 433 c 0
 467 384 467 326 467 256 c 2
 467 0 l 1
 397 0 l 1
 397 256 l 2
 397 318 397 360 368 389 c 0
 351 406 325 418 292 418 c 0
 259 418 233 406 216 389 c 0
 187 360 187 318 187 256 c 2
 187 0 l 1
 117 0 l 1
 117 256 l 2
 117 326 117 384 164 433 c 0
 188 458 231 484 292 484 c 0xcc
50 621 m 0x30
 50 652 71 672 101 672 c 0
 131 672 152 652 152 621 c 0
 152 608 148 596 144 584 c 2
 98 456 l 1
 53 456 l 1
 82 573 l 1
 63 579 50 598 50 621 c 0x30
EndSplineSet
EndChar

StartChar: Eng
Encoding: 330 330 266
Width: 570
GlyphClass: 2
Flags: MW
HStem: -189 70<358.5 381 358.5 392> 0 21G<70 144 70 70> 602 70<263 307>
VStem: 70 74<0 397 0 438.5> 426 74<-49 397>
LayerCount: 2
Fore
SplineSet
426 -49 m 2
 426 397 l 2
 426 476 426 527 388 565 c 0
 365 588 329 602 285 602 c 0
 241 602 205 588 182 565 c 0
 144 527 144 476 144 397 c 2
 144 0 l 1
 70 0 l 1
 70 397 l 2
 70 480 70 555 128 613 c 0
 165 650 219 672 285 672 c 0
 351 672 405 650 442 613 c 0
 500 555 500 480 500 397 c 2
 500 -49 l 2
 500 -76 498 -103 482 -130 c 0
 459 -167 417 -189 367 -189 c 0
 337 -189 309 -182 283 -171 c 1
 315 -107 l 1
 332 -115 350 -119 367 -119 c 0
 395 -119 410 -109 418 -96 c 0
 424 -85 426 -74 426 -49 c 2
EndSplineSet
EndChar

StartChar: eng
Encoding: 331 331 267
Width: 480
GlyphClass: 2
Flags: MW
HStem: -189 66<281 299 281 311> 0 21G<60 130 60 60> 418 66<224.5 255.5>
VStem: 60 70<0 239 0 274.5> 350 70<-21 239>
LayerCount: 2
Fore
SplineSet
350 -21 m 2
 350 239 l 2
 350 300 350 344 327 377 c 0
 306 407 271 418 240 418 c 0
 209 418 174 407 153 377 c 0
 130 344 130 300 130 239 c 2
 130 0 l 1
 60 0 l 1
 60 239 l 2
 60 310 60 364 95 414 c 0
 128 461 182 484 240 484 c 0
 298 484 352 461 385 414 c 0
 420 364 420 310 420 239 c 2
 420 -21 l 2
 420 -83 420 -116 387 -151 c 0
 366 -173 333 -189 289 -189 c 0
 263 -189 237 -183 210 -172 c 1
 236 -111 l 1
 254 -119 273 -123 289 -123 c 0
 309 -123 328 -117 339 -102 c 0
 350 -87 350 -69 350 -21 c 2
EndSplineSet
EndChar

StartChar: Omacron
Encoding: 332 332 268
Width: 584
GlyphClass: 2
Flags: MW
HStem: -6 70<264 320 264 334> 602 70<264 320> 745 56<174 424 174 424>
VStem: 65 74<282 384 282 392> 174 250<745 801 745 801> 445 74<282 384>
LayerCount: 2
Fore
SplineSet
174 801 m 1
 424 801 l 1
 424 745 l 1
 174 745 l 1
 174 801 l 1
139 333 m 0
 139 231 139 171 165 128 c 0
 189 88 236 64 292 64 c 0
 348 64 395 88 419 128 c 0
 445 171 445 231 445 333 c 0
 445 435 445 495 419 538 c 0
 395 578 348 602 292 602 c 0
 236 602 189 578 165 538 c 0
 139 495 139 435 139 333 c 0
65 333 m 0
 65 451 65 514 101 573 c 0
 138 634 208 672 292 672 c 0
 376 672 446 634 483 573 c 0
 519 514 519 451 519 333 c 0
 519 215 519 152 483 93 c 0
 446 32 376 -6 292 -6 c 0
 208 -6 138 32 101 93 c 0
 65 152 65 215 65 333 c 0
EndSplineSet
EndChar

StartChar: omacron
Encoding: 333 333 269
Width: 470
GlyphClass: 2
Flags: MW
HStem: -6 66<213 257 213 270.5> 418 66<213 257> 556 56<119 369 119 369>
VStem: 45 70<213.5 264.5 213.5 267.5> 119 250<556 612 556 612> 355 70<213.5 264.5>
LayerCount: 2
Fore
SplineSet
119 612 m 1x28
 369 612 l 1
 369 556 l 1
 119 556 l 1
 119 612 l 1x28
235 418 m 0xd4
 191 418 157 400 137 370 c 0
 115 337 115 290 115 239 c 0
 115 188 115 141 137 108 c 0
 157 78 191 60 235 60 c 0
 279 60 313 78 333 108 c 0
 355 141 355 188 355 239 c 0
 355 290 355 337 333 370 c 0
 313 400 279 418 235 418 c 0xd4
235 484 m 0
 306 484 364 452 396 399 c 0
 425 351 425 296 425 239 c 0
 425 182 425 127 396 79 c 0
 364 26 306 -6 235 -6 c 0
 164 -6 106 26 74 79 c 0
 45 127 45 182 45 239 c 0
 45 296 45 351 74 399 c 0
 106 452 164 484 235 484 c 0
EndSplineSet
EndChar

StartChar: Obreve
Encoding: 334 334 270
Width: 584
GlyphClass: 2
Flags: MW
HStem: -6 70<264 320 264 334> 602 70<264 320> 729 52<276.998 324.998 276.998 340.498> 835 20G<176.998 232.998 232.998 232.998 368.998 424.998 424.998 424.998>
VStem: 65 74<282 384 282 392> 176.998 56 368.998 56 445 74<282 384>
LayerCount: 2
Fore
SplineSet
176.998046875 855 m 1
 232.998046875 855 l 1
 232.998046875 806.51953125 252.998046875 781 300.998046875 781 c 0
 348.998046875 781 368.998046875 806.51953125 368.998046875 855 c 1
 424.998046875 855 l 1
 424.998046875 777.53515625 379.998046875 729 300.998046875 729 c 0
 221.998046875 729 176.998046875 777.53515625 176.998046875 855 c 1
139 333 m 0
 139 231 139 171 165 128 c 0
 189 88 236 64 292 64 c 0
 348 64 395 88 419 128 c 0
 445 171 445 231 445 333 c 0
 445 435 445 495 419 538 c 0
 395 578 348 602 292 602 c 0
 236 602 189 578 165 538 c 0
 139 495 139 435 139 333 c 0
65 333 m 0
 65 451 65 514 101 573 c 0
 138 634 208 672 292 672 c 0
 376 672 446 634 483 573 c 0
 519 514 519 451 519 333 c 0
 519 215 519 152 483 93 c 0
 446 32 376 -6 292 -6 c 0
 208 -6 138 32 101 93 c 0
 65 152 65 215 65 333 c 0
EndSplineSet
EndChar

StartChar: obreve
Encoding: 335 335 271
Width: 470
GlyphClass: 2
Flags: MW
HStem: -6 66<213 257 213 270.5> 418 66<213 257> 540 52<221.998 269.998 221.998 285.498> 646 20G<121.998 177.998 177.998 177.998 313.998 369.998 369.998 369.998>
VStem: 45 70<213.5 264.5 213.5 267.5> 121.998 56 313.998 56 355 70<213.5 264.5>
LayerCount: 2
Fore
SplineSet
121.998046875 666 m 1x36
 177.998046875 666 l 1
 177.998046875 617.51953125 197.998046875 592 245.998046875 592 c 0
 293.998046875 592 313.998046875 617.51953125 313.998046875 666 c 1
 369.998046875 666 l 1
 369.998046875 588.53515625 324.998046875 540 245.998046875 540 c 0
 166.998046875 540 121.998046875 588.53515625 121.998046875 666 c 1x36
235 418 m 0xc9
 191 418 157 400 137 370 c 0
 115 337 115 290 115 239 c 0
 115 188 115 141 137 108 c 0
 157 78 191 60 235 60 c 0
 279 60 313 78 333 108 c 0
 355 141 355 188 355 239 c 0
 355 290 355 337 333 370 c 0
 313 400 279 418 235 418 c 0xc9
235 484 m 0
 306 484 364 452 396 399 c 0
 425 351 425 296 425 239 c 0
 425 182 425 127 396 79 c 0
 364 26 306 -6 235 -6 c 0
 164 -6 106 26 74 79 c 0
 45 127 45 182 45 239 c 0
 45 296 45 351 74 399 c 0
 106 452 164 484 235 484 c 0
EndSplineSet
EndChar

StartChar: Ohungarumlaut
Encoding: 336 336 272
Width: 584
GlyphClass: 2
Flags: MW
HStem: -6 70<264 320 264 334> 602 70<264 320> 735 120<177 322 177 322 315 315 315 322 252 377>
VStem: 65 74<282 384 282 392> 177 287<735 855> 445 74<282 384>
LayerCount: 2
Fore
SplineSet
322 855 m 1x28
 239 735 l 1
 177 735 l 1
 252 855 l 1
 322 855 l 1x28
464 855 m 1
 377 735 l 1
 315 735 l 1
 394 855 l 1
 464 855 l 1
139 333 m 0xd4
 139 231 139 171 165 128 c 0
 189 88 236 64 292 64 c 0
 348 64 395 88 419 128 c 0
 445 171 445 231 445 333 c 0
 445 435 445 495 419 538 c 0
 395 578 348 602 292 602 c 0
 236 602 189 578 165 538 c 0
 139 495 139 435 139 333 c 0xd4
65 333 m 0
 65 451 65 514 101 573 c 0
 138 634 208 672 292 672 c 0
 376 672 446 634 483 573 c 0
 519 514 519 451 519 333 c 0
 519 215 519 152 483 93 c 0
 446 32 376 -6 292 -6 c 0
 208 -6 138 32 101 93 c 0
 65 152 65 215 65 333 c 0
EndSplineSet
EndChar

StartChar: ohungarumlaut
Encoding: 337 337 273
Width: 470
GlyphClass: 2
Flags: MW
HStem: -6 66<213 257 213 270.5> 418 66<213 257> 546 120<122 267 122 267 260 260 260 267 197 322>
VStem: 45 70<213.5 264.5 213.5 267.5> 122 287<546 666> 355 70<213.5 264.5>
LayerCount: 2
Fore
SplineSet
267 666 m 1x28
 184 546 l 1
 122 546 l 1
 197 666 l 1
 267 666 l 1x28
409 666 m 1
 322 546 l 1
 260 546 l 1
 339 666 l 1
 409 666 l 1
235 418 m 0xd4
 191 418 157 400 137 370 c 0
 115 337 115 290 115 239 c 0
 115 188 115 141 137 108 c 0
 157 78 191 60 235 60 c 0
 279 60 313 78 333 108 c 0
 355 141 355 188 355 239 c 0
 355 290 355 337 333 370 c 0
 313 400 279 418 235 418 c 0xd4
235 484 m 0
 306 484 364 452 396 399 c 0
 425 351 425 296 425 239 c 0
 425 182 425 127 396 79 c 0
 364 26 306 -6 235 -6 c 0
 164 -6 106 26 74 79 c 0
 45 127 45 182 45 239 c 0
 45 296 45 351 74 399 c 0
 106 452 164 484 235 484 c 0
EndSplineSet
EndChar

StartChar: OE
Encoding: 338 338 274
Width: 806
GlyphClass: 2
Flags: MW
HStem: -6 70<258.5 301.5 258.5 307.5> 308 70<495 495> 602 70<258.5 301.5>
VStem: 65 74<309 357 260 411> 421 74<378 406>
LayerCount: 2
Fore
SplineSet
436 64 m 1
 397 12 335 -6 280 -6 c 0
 228 -6 167 13 128 55 c 0
 65 122 65 201 65 309 c 2
 65 357 l 2
 65 465 65 544 128 611 c 0
 167 653 228 672 280 672 c 0
 335 672 397 654 436 602 c 1
 442 615 450 627 461 638 c 0
 494 666 534 666 578 666 c 2
 741 666 l 1
 741 596 l 1
 578 596 l 2
 541 596 524 596 512 587 c 0
 495 574 495 552 495 511 c 2
 495 378 l 1
 701 379 l 1
 701 309 l 1
 495 308 l 1
 495 155 l 2
 495 114 495 92 512 79 c 0
 524 70 541 70 578 70 c 2
 741 70 l 1
 741 0 l 1
 578 0 l 2
 534 0 494 0 461 28 c 0
 450 39 442 51 436 64 c 1
280 602 m 0
 237 602 197 584 175 555 c 0
 139 508 139 455 139 357 c 2
 139 309 l 2
 139 211 139 158 175 111 c 0
 197 82 237 64 280 64 c 0
 323 64 363 82 385 111 c 0
 421 158 421 211 421 309 c 2
 421 357 l 2
 421 455 421 508 385 555 c 0
 363 584 323 602 280 602 c 0
EndSplineSet
EndChar

StartChar: oe
Encoding: 339 339 275
Width: 700
GlyphClass: 2
Flags: MW
HStem: -6 66<208 242 208 255 488.5 516> 224 62<395 489 395 489> 418 66<208 242 494 512.5>
VStem: 55 70<211 267 211 275> 325 70<211 224 181.5 267> 585 70<343.5 362>
LayerCount: 2
Fore
SplineSet
357 66 m 1
 329 28 285 -6 225 -6 c 0
 165 -6 118 25 91 63 c 0
 57 111 55 167 55 239 c 0
 55 311 58 366 91 415 c 0
 117 453 165 484 225 484 c 0
 285 484 332 452 358 412 c 1
 389 456 442 484 509 484 c 0
 538 484 574 478 604 456 c 0
 632 436 655 399 655 356 c 0
 655 309 630 272 600 251 c 0
 561 224 517 224 489 224 c 2
 395 224 l 1
 395 139 395 111 430 82 c 0
 451 64 478 60 499 60 c 0
 533 60 571 72 602 90 c 1
 635 32 l 1
 593 9 547 -6 499 -6 c 0
 432 -6 387 21 357 66 c 1
509 418 m 0
 479 418 447 410 426 390 c 0
 395 359 395 333 395 286 c 1
 489 286 l 2
 514 286 536 286 557 300 c 0
 572 310 585 331 585 356 c 0
 585 368 581 389 562 403 c 0
 542 418 516 418 509 418 c 0
225 60 m 0
 259 60 285 77 301 99 c 0
 325 132 325 183 325 239 c 0
 325 295 325 346 301 379 c 0
 285 401 259 418 225 418 c 0
 191 418 165 401 149 379 c 0
 126 346 125 295 125 239 c 0
 125 183 125 132 149 99 c 0
 165 77 191 60 225 60 c 0
EndSplineSet
EndChar

StartChar: Racute
Encoding: 340 340 276
Width: 550
GlyphClass: 2
Flags: MW
HStem: 0 21G<75 149 75 75 420 500 420 420> 256 70<149 218 149 218> 596 70<211 259.5> 736 120<209 362 209 362>
VStem: 75 74<0 256 326 511> 209 153<736 856> 416 74<442 480>
LayerCount: 2
Fore
SplineSet
362 856 m 1
 275 736 l 1
 209 736 l 1
 284 856 l 1
 362 856 l 1
227 596 m 0
 195 596 178 596 166 587 c 0
 149 574 149 552 149 511 c 2
 149 326 l 1
 218 326 l 2
 293 326 339 326 377 361 c 0
 403 385 416 423 416 461 c 0
 416 499 403 537 377 561 c 0
 339 596 292 596 227 596 c 0
227 666 m 0
 296 666 370 666 429 611 c 0
 466 576 490 524 490 461 c 0
 490 374 444 308 382 279 c 1
 500 0 l 1
 420 0 l 1
 312 259 l 1
 290 256 268 256 218 256 c 2
 149 256 l 1
 149 0 l 1
 75 0 l 1
 75 511 l 2
 75 559 75 603 115 638 c 0
 148 666 188 666 227 666 c 0
EndSplineSet
EndChar

StartChar: racute
Encoding: 341 341 277
Width: 338
GlyphClass: 2
Flags: MW
HStem: 0 21G<55 125 55 55> 418 66<220 246.5> 544 120<147.5 300.5 147.5 300.5>
VStem: 55 70<0 249 0 289.5> 147.5 153<544 664>
LayerCount: 2
Fore
SplineSet
300.5 664 m 1
 213.5 544 l 1
 147.5 544 l 1
 222.5 664 l 1
 300.5 664 l 1
238 484 m 0
 263 484 286 480 306 473 c 1
 285 410 l 1
 271 415 255 418 238 418 c 0
 202 418 168 405 149 382 c 0
 125 354 125 312 125 249 c 2
 125 0 l 1
 55 0 l 1
 55 249 l 2
 55 330 55 377 95 424 c 0
 134 470 192 484 238 484 c 0
EndSplineSet
EndChar

StartChar: uni0156
Encoding: 342 342 278
Width: 550
GlyphClass: 2
Flags: MW
HStem: -229 166<264 277 232 290> 0 21G<75 149 75 75 420 500 420 420> 256 70<149 218 149 218> 596 70<211 259.5>
VStem: 75 74<0 256 326 511> 230 94<-116 -95.5 -116 -95.5> 416 74<442 480>
LayerCount: 2
Fore
SplineSet
324 -109 m 0
 324 -123 318 -136 313 -148 c 2
 277 -229 l 1
 232 -229 l 1
 258 -151 l 1
 242 -145 230 -130 230 -109 c 0
 230 -82 251 -63 277 -63 c 0
 303 -63 324 -82 324 -109 c 0
227 596 m 0
 195 596 178 596 166 587 c 0
 149 574 149 552 149 511 c 2
 149 326 l 1
 218 326 l 2
 293 326 339 326 377 361 c 0
 403 385 416 423 416 461 c 0
 416 499 403 537 377 561 c 0
 339 596 292 596 227 596 c 0
227 666 m 0
 296 666 370 666 429 611 c 0
 466 576 490 524 490 461 c 0
 490 374 444 308 382 279 c 1
 500 0 l 1
 420 0 l 1
 312 259 l 1
 290 256 268 256 218 256 c 2
 149 256 l 1
 149 0 l 1
 75 0 l 1
 75 511 l 2
 75 559 75 603 115 638 c 0
 148 666 188 666 227 666 c 0
EndSplineSet
EndChar

StartChar: uni0157
Encoding: 343 343 279
Width: 338
GlyphClass: 2
Flags: MW
HStem: -226 166<77 90 45 103> 0 21G<55 125 55 55> 418 66<220 246.5>
VStem: 43 94<-113 -92.5 -113 -92.5> 55 70<0 249 0 289.5>
LayerCount: 2
Fore
SplineSet
137 -106 m 0x90
 137 -120 131 -133 126 -145 c 2
 90 -226 l 1
 45 -226 l 1
 71 -148 l 1
 55 -142 43 -127 43 -106 c 0
 43 -79 64 -60 90 -60 c 0
 116 -60 137 -79 137 -106 c 0x90
238 484 m 0x68
 263 484 286 480 306 473 c 1
 285 410 l 1
 271 415 255 418 238 418 c 0
 202 418 168 405 149 382 c 0
 125 354 125 312 125 249 c 2
 125 0 l 1
 55 0 l 1
 55 249 l 2
 55 330 55 377 95 424 c 0
 134 470 192 484 238 484 c 0x68
EndSplineSet
EndChar

StartChar: Rcaron
Encoding: 344 344 280
Width: 550
GlyphClass: 2
Flags: MW
HStem: 0 21G<75 149 75 75 420 500 420 420> 256 70<149 218 149 218> 596 70<211 259.5> 736 120<121 216 121 294>
VStem: 75 74<0 256 326 511> 121 268<856 856> 416 74<442 480>
LayerCount: 2
Fore
SplineSet
216 736 m 1x14
 121 856 l 1
 187 856 l 1
 255 780 l 1
 323 856 l 1
 389 856 l 1
 294 736 l 1
 216 736 l 1x14
227 596 m 0xea
 195 596 178 596 166 587 c 0
 149 574 149 552 149 511 c 2
 149 326 l 1
 218 326 l 2
 293 326 339 326 377 361 c 0
 403 385 416 423 416 461 c 0
 416 499 403 537 377 561 c 0
 339 596 292 596 227 596 c 0xea
227 666 m 0
 296 666 370 666 429 611 c 0
 466 576 490 524 490 461 c 0
 490 374 444 308 382 279 c 1
 500 0 l 1
 420 0 l 1
 312 259 l 1
 290 256 268 256 218 256 c 2
 149 256 l 1
 149 0 l 1
 75 0 l 1
 75 511 l 2
 75 559 75 603 115 638 c 0
 148 666 188 666 227 666 c 0
EndSplineSet
EndChar

StartChar: rcaron
Encoding: 345 345 281
Width: 338
GlyphClass: 2
Flags: MW
HStem: 0 21G<55 125 55 55> 418 66<220 246.5> 544 120<46.5 141.5 46.5 219.5>
VStem: 46.5 268<664 664> 55 70<0 249 0 289.5>
LayerCount: 2
Fore
SplineSet
141.5 544 m 1x30
 46.5 664 l 1
 112.5 664 l 1
 180.5 588 l 1
 248.5 664 l 1
 314.5 664 l 1
 219.5 544 l 1
 141.5 544 l 1x30
238 484 m 0xc8
 263 484 286 480 306 473 c 1
 285 410 l 1
 271 415 255 418 238 418 c 0
 202 418 168 405 149 382 c 0
 125 354 125 312 125 249 c 2
 125 0 l 1
 55 0 l 1
 55 249 l 2
 55 330 55 377 95 424 c 0
 134 470 192 484 238 484 c 0xc8
EndSplineSet
EndChar

